<?xml version="1.0" encoding="utf-8"?>
<!-- Generator: Adobe Illustrator 25.4.1, SVG Export Plug-In . SVG Version: 6.00 Build 0)  -->
<svg version="1.1" id="レイヤー_1" xmlns="http://www.w3.org/2000/svg" xmlns:xlink="http://www.w3.org/1999/xlink" x="0px"
	 y="0px" viewBox="0 0 147 38" style="enable-background:new 0 0 147 38;" xml:space="preserve">
<style type="text/css">
	.st0{fill:#FFFFFF;}
	.st1{fill:none;stroke:#595959;stroke-width:1.5574;stroke-linecap:round;stroke-linejoin:round;stroke-miterlimit:10;}
	.st2{fill:#595959;}
</style>
<g>
	<path class="st0" d="M20.7,12.4c-0.2,0.1-0.6,0.5-0.9,0.5c-0.2,0-0.4-0.2-0.4-0.5c0-0.2,0.1-0.3,0.3-0.4c0.7-0.4,1.3-0.9,1.7-1.6
		c0.2-0.4,0.3-0.7,0.4-1.1h-2c-0.3,0-0.4-0.1-0.4-0.4c0-0.3,0.2-0.4,0.4-0.4h2.1V7.4C21.8,7.1,22,7,22.3,7c0.2,0,0.4,0.1,0.4,0.4
		v1.1h2.2c0.3,0,0.4,0.1,0.4,0.4c0,0.3-0.2,0.4-0.4,0.4h-2c0.3,1.4,0.8,2.1,2.1,2.7c0.2,0.1,0.3,0.2,0.3,0.4c0,0.2-0.2,0.5-0.4,0.5
		c-0.3,0-1.1-0.6-1.3-0.9c-0.5-0.5-0.8-1-1.1-1.6C21.9,11.2,21.5,11.8,20.7,12.4"/>
	<path class="st1" d="M20.7,12.4c-0.2,0.1-0.6,0.5-0.9,0.5c-0.2,0-0.4-0.2-0.4-0.5c0-0.2,0.1-0.3,0.3-0.4c0.7-0.4,1.3-0.9,1.7-1.6
		c0.2-0.4,0.3-0.7,0.4-1.1h-2c-0.3,0-0.4-0.1-0.4-0.4c0-0.3,0.2-0.4,0.4-0.4h2.1V7.4C21.8,7.1,22,7,22.3,7c0.2,0,0.4,0.1,0.4,0.4
		v1.1h2.2c0.3,0,0.4,0.1,0.4,0.4c0,0.3-0.2,0.4-0.4,0.4h-2c0.3,1.4,0.8,2.1,2.1,2.7c0.2,0.1,0.3,0.2,0.3,0.4c0,0.2-0.2,0.5-0.4,0.5
		c-0.3,0-1.1-0.6-1.3-0.9c-0.5-0.5-0.8-1-1.1-1.6C21.9,11.2,21.5,11.8,20.7,12.4z"/>
	<path class="st0" d="M27.9,11.9c-0.3,0.3-1,0.9-1.3,0.9c-0.2,0-0.4-0.2-0.4-0.5c0-0.2,0.1-0.3,0.2-0.3c0.8-0.5,1.4-1,1.8-1.9
		c0.2-0.5,0.3-1,0.4-1.5c0-0.1,0-0.5,0-0.6V7.5c0-0.3,0.2-0.4,0.4-0.4c0.3,0,0.4,0.1,0.4,0.4V8c0,0.7,0.1,1.5,0.4,2.1
		c0.4,0.8,1,1.4,1.8,1.8c0.2,0.1,0.3,0.2,0.3,0.4c0,0.2-0.2,0.5-0.5,0.5c-0.4,0-1.2-0.8-1.5-1.1c-0.5-0.6-0.8-1.2-1-1.9
		C28.9,10.7,28.5,11.3,27.9,11.9"/>
	<path class="st1" d="M27.9,11.9c-0.3,0.3-1,0.9-1.3,0.9c-0.2,0-0.4-0.2-0.4-0.5c0-0.2,0.1-0.3,0.2-0.3c0.8-0.5,1.4-1,1.8-1.9
		c0.2-0.5,0.3-1,0.4-1.5c0-0.1,0-0.5,0-0.6V7.5c0-0.3,0.2-0.4,0.4-0.4c0.3,0,0.4,0.1,0.4,0.4V8c0,0.7,0.1,1.5,0.4,2.1
		c0.4,0.8,1,1.4,1.8,1.8c0.2,0.1,0.3,0.2,0.3,0.4c0,0.2-0.2,0.5-0.5,0.5c-0.4,0-1.2-0.8-1.5-1.1c-0.5-0.6-0.8-1.2-1-1.9
		C28.9,10.7,28.5,11.3,27.9,11.9z"/>
	<path class="st0" d="M38.4,7.4c0.2,0,0.4,0.1,0.4,0.3c0,0.2-0.2,0.3-0.4,0.3h-3.8c-0.1,0.1-0.2,0.3-0.3,0.4
		c0.1-0.1,0.1-0.1,0.2-0.1H38c0.2,0,0.3,0.1,0.3,0.3c0,0.2-0.1,0.3-0.3,0.3h-3.5c-0.2,0-0.3-0.1-0.3-0.3c0-0.1,0-0.1,0-0.2
		c-0.2,0.3-0.4,0.6-0.7,0.8h3.6c0.4,0,0.7,0.1,0.7,0.6c0,0.4,0,0.8,0,1.2v0.1c0,0.2,0,0.8,0.2,0.8c0.1,0,0.1-0.1,0.2-0.2
		c0.1-0.2,0.2-0.3,0.3-0.3c0.2,0,0.3,0.1,0.3,0.3c0,0.3-0.4,1.1-1,1.1c-0.3,0-0.5-0.2-0.6-0.4c-0.2-0.4-0.2-0.9-0.2-1.3
		c0-0.3,0-0.6,0-0.9c0-0.1,0-0.3-0.3-0.3h-3.3c-0.2,0-0.4-0.1-0.4-0.3c0-0.1,0-0.2,0.1-0.2c-0.2,0-0.3-0.2-0.3-0.4
		c0-0.1,0.1-0.2,0.2-0.3C33.5,8.4,33.8,8,34,7.5C34.2,7.2,34.3,7,34.6,7C34.7,7,35,7.1,35,7.3c0,0.1,0,0.1,0,0.2H38.4z M33.8,11
		c-0.2-0.1-0.3-0.2-0.3-0.4c0-0.2,0.2-0.4,0.4-0.4c0.3,0,1.2,0.6,1.5,0.8c0.3-0.2,0.5-0.4,0.8-0.7c0.1-0.1,0.1-0.1,0.3-0.1
		c0.2,0,0.4,0.2,0.4,0.4c0,0.2-0.1,0.3-0.3,0.5c-0.2,0.2-0.3,0.3-0.5,0.5c0.3,0.2,0.5,0.4,0.7,0.6c0.1,0.1,0.1,0.2,0.1,0.3
		c0,0.2-0.2,0.4-0.4,0.4c-0.2,0-0.4-0.3-0.8-0.6c-0.1-0.1-0.2-0.2-0.3-0.2c-0.5,0.3-1,0.6-1.6,0.9c-0.1,0-0.2,0.1-0.3,0.1
		c-0.2,0-0.4-0.2-0.4-0.4c0-0.2,0.1-0.3,0.2-0.3c0.5-0.2,0.9-0.4,1.3-0.6C34.3,11.2,34,11.1,33.8,11"/>
	<path class="st1" d="M38.4,7.4c0.2,0,0.4,0.1,0.4,0.3c0,0.2-0.2,0.3-0.4,0.3h-3.8c-0.1,0.1-0.2,0.3-0.3,0.4
		c0.1-0.1,0.1-0.1,0.2-0.1H38c0.2,0,0.3,0.1,0.3,0.3c0,0.2-0.1,0.3-0.3,0.3h-3.5c-0.2,0-0.3-0.1-0.3-0.3c0-0.1,0-0.1,0-0.2
		c-0.2,0.3-0.4,0.6-0.7,0.8h3.6c0.4,0,0.7,0.1,0.7,0.6c0,0.4,0,0.8,0,1.2v0.1c0,0.2,0,0.8,0.2,0.8c0.1,0,0.1-0.1,0.2-0.2
		c0.1-0.2,0.2-0.3,0.3-0.3c0.2,0,0.3,0.1,0.3,0.3c0,0.3-0.4,1.1-1,1.1c-0.3,0-0.5-0.2-0.6-0.4c-0.2-0.4-0.2-0.9-0.2-1.3
		c0-0.3,0-0.6,0-0.9c0-0.1,0-0.3-0.3-0.3h-3.3c-0.2,0-0.4-0.1-0.4-0.3c0-0.1,0-0.2,0.1-0.2c-0.2,0-0.3-0.2-0.3-0.4
		c0-0.1,0.1-0.2,0.2-0.3C33.5,8.4,33.8,8,34,7.5C34.2,7.2,34.3,7,34.6,7C34.7,7,35,7.1,35,7.3c0,0.1,0,0.1,0,0.2H38.4z M33.8,11
		c-0.2-0.1-0.3-0.2-0.3-0.4c0-0.2,0.2-0.4,0.4-0.4c0.3,0,1.2,0.6,1.5,0.8c0.3-0.2,0.5-0.4,0.8-0.7c0.1-0.1,0.1-0.1,0.3-0.1
		c0.2,0,0.4,0.2,0.4,0.4c0,0.2-0.1,0.3-0.3,0.5c-0.2,0.2-0.3,0.3-0.5,0.5c0.3,0.2,0.5,0.4,0.7,0.6c0.1,0.1,0.1,0.2,0.1,0.3
		c0,0.2-0.2,0.4-0.4,0.4c-0.2,0-0.4-0.3-0.8-0.6c-0.1-0.1-0.2-0.2-0.3-0.2c-0.5,0.3-1,0.6-1.6,0.9c-0.1,0-0.2,0.1-0.3,0.1
		c-0.2,0-0.4-0.2-0.4-0.4c0-0.2,0.1-0.3,0.2-0.3c0.5-0.2,0.9-0.4,1.3-0.6C34.3,11.2,34,11.1,33.8,11z"/>
	<path class="st0" d="M43.1,10.5h2.2c0.2,0,0.3,0.1,0.3,0.3c0,0.2-0.1,0.3-0.3,0.3h-1.7c0.1,0.1,0.2,0.2,0.3,0.3
		c0.3,0.2,0.7,0.4,1,0.5c0.6,0.1,0.7,0.2,0.7,0.4c0,0.2-0.1,0.5-0.4,0.5c-0.4,0-1.1-0.3-1.5-0.5c-0.4-0.2-0.8-0.6-1-1
		c-0.3,0.5-0.7,0.9-1.2,1.2c-0.3,0.1-0.9,0.4-1.2,0.4c-0.2,0-0.4-0.2-0.4-0.4c0-0.2,0.1-0.3,0.7-0.4c0.5-0.1,1.1-0.4,1.4-0.9h-1.7
		c-0.2,0-0.3-0.1-0.3-0.3c0-0.2,0.1-0.3,0.3-0.3h2c0-0.1,0-0.2,0.1-0.3h-2.2c-0.2,0-0.3-0.1-0.3-0.3c0-0.2,0.1-0.3,0.3-0.3h2.2V9.2
		h-1.8c-0.2,0-0.3-0.1-0.3-0.3c0-0.2,0.1-0.3,0.3-0.3h1.8V8.3h-2c-0.2,0-0.3-0.1-0.3-0.3c0-0.2,0.1-0.3,0.3-0.3h1
		c0-0.1-0.1-0.3-0.1-0.3c0-0.2,0.3-0.3,0.5-0.3c0.1,0,0.3,0,0.3,0.2c0.1,0.1,0.1,0.3,0.2,0.4h1.1c0.1-0.2,0.1-0.3,0.2-0.4
		C43.7,7.1,43.7,7,44,7c0.1,0,0.4,0.1,0.4,0.2c0,0.1-0.1,0.3-0.1,0.3h1c0.2,0,0.3,0.1,0.3,0.3c0,0.2-0.1,0.3-0.3,0.3h-2v0.3H45
		c0.2,0,0.3,0.1,0.3,0.3c0,0.2-0.1,0.3-0.3,0.3h-1.8v0.3h2.2c0.2,0,0.3,0.1,0.3,0.3c0,0.2-0.1,0.3-0.3,0.3h-2.3
		C43.2,10.3,43.1,10.4,43.1,10.5"/>
	<path class="st1" d="M43.1,10.5h2.2c0.2,0,0.3,0.1,0.3,0.3c0,0.2-0.1,0.3-0.3,0.3h-1.7c0.1,0.1,0.2,0.2,0.3,0.3
		c0.3,0.2,0.7,0.4,1,0.5c0.6,0.1,0.7,0.2,0.7,0.4c0,0.2-0.1,0.5-0.4,0.5c-0.4,0-1.1-0.3-1.5-0.5c-0.4-0.2-0.8-0.6-1-1
		c-0.3,0.5-0.7,0.9-1.2,1.2c-0.3,0.1-0.9,0.4-1.2,0.4c-0.2,0-0.4-0.2-0.4-0.4c0-0.2,0.1-0.3,0.7-0.4c0.5-0.1,1.1-0.4,1.4-0.9h-1.7
		c-0.2,0-0.3-0.1-0.3-0.3c0-0.2,0.1-0.3,0.3-0.3h2c0-0.1,0-0.2,0.1-0.3h-2.2c-0.2,0-0.3-0.1-0.3-0.3c0-0.2,0.1-0.3,0.3-0.3h2.2V9.2
		h-1.8c-0.2,0-0.3-0.1-0.3-0.3c0-0.2,0.1-0.3,0.3-0.3h1.8V8.3h-2c-0.2,0-0.3-0.1-0.3-0.3c0-0.2,0.1-0.3,0.3-0.3h1
		c0-0.1-0.1-0.3-0.1-0.3c0-0.2,0.3-0.3,0.5-0.3c0.1,0,0.3,0,0.3,0.2c0.1,0.1,0.1,0.3,0.2,0.4h1.1c0.1-0.2,0.1-0.3,0.2-0.4
		C43.7,7.1,43.7,7,44,7c0.1,0,0.4,0.1,0.4,0.2c0,0.1-0.1,0.3-0.1,0.3h1c0.2,0,0.3,0.1,0.3,0.3c0,0.2-0.1,0.3-0.3,0.3h-2v0.3H45
		c0.2,0,0.3,0.1,0.3,0.3c0,0.2-0.1,0.3-0.3,0.3h-1.8v0.3h2.2c0.2,0,0.3,0.1,0.3,0.3c0,0.2-0.1,0.3-0.3,0.3h-2.3
		C43.2,10.3,43.1,10.4,43.1,10.5z"/>
	<path class="st0" d="M47.2,11.1c-0.2,0-0.3-0.2-0.3-0.4c0-0.2,0.1-0.3,0.3-0.3c0.8-0.3,1.3-0.5,1.9-1c0.2-0.2,0.3-0.3,0.7-0.3
		c0.3,0,0.4,0.1,0.6,0.3c0.7,0.6,1.1,0.8,2,1c0.2,0.1,0.3,0.1,0.3,0.3c0,0.2-0.1,0.4-0.4,0.4c-0.1,0-0.2,0-0.4-0.1
		c0,0.1,0,0.2,0,0.3v0.8c0,0.5-0.2,0.7-0.7,0.7h-2.9c-0.5,0-0.7-0.2-0.7-0.7v-0.8c0-0.1,0-0.2,0-0.3C47.4,11.1,47.3,11.1,47.2,11.1
		 M51.9,7.5c0.5,0,0.7,0.2,0.7,0.7v0.4c0,0.2-0.1,0.4-0.4,0.4c-0.2,0-0.4-0.1-0.4-0.4V8.4c0-0.1-0.1-0.2-0.2-0.2H48
		c-0.1,0-0.2,0.1-0.2,0.2v0.3c0,0.3-0.2,0.3-0.4,0.3C47.1,9,47,8.9,47,8.7V8.2c0-0.5,0.2-0.7,0.7-0.7h1.6V7.3C49.4,7,49.6,7,49.8,7
		c0.2,0,0.4,0.1,0.4,0.3v0.2H51.9z M49.2,8.9c-0.2,0.1-0.5,0.4-0.7,0.5c-0.2,0.1-0.8,0.5-1,0.5c-0.2,0-0.3-0.2-0.3-0.4
		c0-0.2,0.1-0.2,0.2-0.3C48,9,48.2,8.9,48.7,8.5c0.1-0.1,0.2-0.1,0.3-0.1c0.2,0,0.3,0.2,0.3,0.3C49.3,8.8,49.3,8.8,49.2,8.9
		 M48.6,11.3c-0.1,0-0.2,0.1-0.2,0.2V12c0,0.1,0.1,0.2,0.2,0.2H51c0.1,0,0.2-0.1,0.2-0.2v-0.5c0-0.1-0.1-0.2-0.2-0.2H48.6z M51,10.6
		c-0.3-0.2-0.9-0.5-1.1-0.8c0,0-0.1,0-0.1,0c0,0-0.1,0-0.1,0.1c-0.3,0.3-0.7,0.6-1.1,0.8H51z M51.2,8.7c0.3,0.3,0.6,0.4,1,0.6
		c0.1,0.1,0.2,0.1,0.2,0.3c0,0.2-0.1,0.4-0.3,0.4c-0.2,0-0.8-0.3-1-0.5c-0.2-0.1-0.6-0.4-0.7-0.5c-0.1-0.1-0.1-0.1-0.1-0.2
		c0-0.2,0.2-0.3,0.4-0.3C50.9,8.4,51,8.5,51.2,8.7"/>
	<path class="st1" d="M47.2,11.1c-0.2,0-0.3-0.2-0.3-0.4c0-0.2,0.1-0.3,0.3-0.3c0.8-0.3,1.3-0.5,1.9-1c0.2-0.2,0.3-0.3,0.7-0.3
		c0.3,0,0.4,0.1,0.6,0.3c0.7,0.6,1.1,0.8,2,1c0.2,0.1,0.3,0.1,0.3,0.3c0,0.2-0.1,0.4-0.4,0.4c-0.1,0-0.2,0-0.4-0.1
		c0,0.1,0,0.2,0,0.3v0.8c0,0.5-0.2,0.7-0.7,0.7h-2.9c-0.5,0-0.7-0.2-0.7-0.7v-0.8c0-0.1,0-0.2,0-0.3C47.4,11.1,47.3,11.1,47.2,11.1z
		 M51.9,7.5c0.5,0,0.7,0.2,0.7,0.7v0.4c0,0.2-0.1,0.4-0.4,0.4c-0.2,0-0.4-0.1-0.4-0.4V8.4c0-0.1-0.1-0.2-0.2-0.2H48
		c-0.1,0-0.2,0.1-0.2,0.2v0.3c0,0.3-0.2,0.3-0.4,0.3C47.1,9,47,8.9,47,8.7V8.2c0-0.5,0.2-0.7,0.7-0.7h1.6V7.3C49.4,7,49.6,7,49.8,7
		c0.2,0,0.4,0.1,0.4,0.3v0.2H51.9z M49.2,8.9c-0.2,0.1-0.5,0.4-0.7,0.5c-0.2,0.1-0.8,0.5-1,0.5c-0.2,0-0.3-0.2-0.3-0.4
		c0-0.2,0.1-0.2,0.2-0.3C48,9,48.2,8.9,48.7,8.5c0.1-0.1,0.2-0.1,0.3-0.1c0.2,0,0.3,0.2,0.3,0.3C49.3,8.8,49.3,8.8,49.2,8.9z
		 M48.6,11.3c-0.1,0-0.2,0.1-0.2,0.2V12c0,0.1,0.1,0.2,0.2,0.2H51c0.1,0,0.2-0.1,0.2-0.2v-0.5c0-0.1-0.1-0.2-0.2-0.2H48.6z M51,10.6
		c-0.3-0.2-0.9-0.5-1.1-0.8c0,0-0.1,0-0.1,0c0,0-0.1,0-0.1,0.1c-0.3,0.3-0.7,0.6-1.1,0.8H51z M51.2,8.7c0.3,0.3,0.6,0.4,1,0.6
		c0.1,0.1,0.2,0.1,0.2,0.3c0,0.2-0.1,0.4-0.3,0.4c-0.2,0-0.8-0.3-1-0.5c-0.2-0.1-0.6-0.4-0.7-0.5c-0.1-0.1-0.1-0.1-0.1-0.2
		c0-0.2,0.2-0.3,0.4-0.3C50.9,8.4,51,8.5,51.2,8.7z"/>
	<path class="st0" d="M55.1,9.6c-0.2,0.2-0.5,0.6-0.8,0.6c-0.2,0-0.4-0.2-0.4-0.4c0-0.2,0.1-0.3,0.2-0.4c0.4-0.3,0.6-0.8,0.8-1.2
		c0-0.2,0.1-0.3,0.2-0.4c0.1-0.1,0.2-0.1,0.4-0.1h3c0.3,0,0.5,0.1,0.6,0.4c0,0.1,0,0.2,0,0.4c0,0.3,0,0.7-0.1,1
		c-0.1,0.6-0.2,1.1-0.4,1.6c-0.5,1-1.4,1.6-2.5,1.6c-0.6,0-1.1-0.1-1.6-0.4c-0.2-0.1-0.3-0.2-0.3-0.4c0-0.2,0.2-0.4,0.4-0.4
		c0.1,0,0.2,0,0.4,0.2c0.3,0.2,0.7,0.3,1.1,0.3c1.9,0,2.2-1.9,2.2-3.4h-2.6C55.5,8.9,55.3,9.2,55.1,9.6"/>
	<path class="st1" d="M55.1,9.6c-0.2,0.2-0.5,0.6-0.8,0.6c-0.2,0-0.4-0.2-0.4-0.4c0-0.2,0.1-0.3,0.2-0.4c0.4-0.3,0.6-0.8,0.8-1.2
		c0-0.2,0.1-0.3,0.2-0.4c0.1-0.1,0.2-0.1,0.4-0.1h3c0.3,0,0.5,0.1,0.6,0.4c0,0.1,0,0.2,0,0.4c0,0.3,0,0.7-0.1,1
		c-0.1,0.6-0.2,1.1-0.4,1.6c-0.5,1-1.4,1.6-2.5,1.6c-0.6,0-1.1-0.1-1.6-0.4c-0.2-0.1-0.3-0.2-0.3-0.4c0-0.2,0.2-0.4,0.4-0.4
		c0.1,0,0.2,0,0.4,0.2c0.3,0.2,0.7,0.3,1.1,0.3c1.9,0,2.2-1.9,2.2-3.4h-2.6C55.5,8.9,55.3,9.2,55.1,9.6z"/>
	<path class="st0" d="M65.1,9.3c0,1.8-0.6,3.4-2.7,3.4c-0.5,0-1-0.1-1.4-0.3c-0.2-0.1-0.5-0.2-0.5-0.5c0-0.2,0.2-0.4,0.4-0.4
		c0.1,0,0.2,0,0.4,0.1c0.3,0.2,0.7,0.2,1.1,0.2c0.7,0,1.2-0.2,1.6-0.8c0.3-0.5,0.3-1.2,0.3-1.8V7.9c0-0.3,0.2-0.4,0.4-0.4
		c0.1,0,0.2,0.1,0.3,0.1c0.1,0.1,0.1,0.2,0.1,0.3V9.3z M61.3,10.1c0,0.2-0.2,0.4-0.4,0.4c-0.2,0-0.4-0.2-0.4-0.4V7.9
		c0-0.2,0.2-0.4,0.4-0.4c0.1,0,0.2,0.1,0.3,0.2c0.1,0.1,0.1,0.1,0.1,0.2V10.1z"/>
	<path class="st1" d="M65.1,9.3c0,1.8-0.6,3.4-2.7,3.4c-0.5,0-1-0.1-1.4-0.3c-0.2-0.1-0.5-0.2-0.5-0.5c0-0.2,0.2-0.4,0.4-0.4
		c0.1,0,0.2,0,0.4,0.1c0.3,0.2,0.7,0.2,1.1,0.2c0.7,0,1.2-0.2,1.6-0.8c0.3-0.5,0.3-1.2,0.3-1.8V7.9c0-0.3,0.2-0.4,0.4-0.4
		c0.1,0,0.2,0.1,0.3,0.1c0.1,0.1,0.1,0.2,0.1,0.3V9.3z M61.3,10.1c0,0.2-0.2,0.4-0.4,0.4c-0.2,0-0.4-0.2-0.4-0.4V7.9
		c0-0.2,0.2-0.4,0.4-0.4c0.1,0,0.2,0.1,0.3,0.2c0.1,0.1,0.1,0.1,0.1,0.2V10.1z"/>
	<path class="st0" d="M69.3,11.7h1.9c0.2,0,0.4,0.2,0.4,0.4c0,0.2-0.2,0.4-0.4,0.4h-4.5c-0.2,0-0.4-0.2-0.4-0.4
		c0-0.2,0.2-0.4,0.4-0.4h1.8V8.7h-1.6c-0.2,0-0.4-0.2-0.4-0.4c0-0.2,0.2-0.4,0.4-0.4H71c0.2,0,0.4,0.2,0.4,0.4
		c0,0.2-0.2,0.4-0.4,0.4h-1.7V11.7z"/>
	<path class="st1" d="M69.3,11.7h1.9c0.2,0,0.4,0.2,0.4,0.4c0,0.2-0.2,0.4-0.4,0.4h-4.5c-0.2,0-0.4-0.2-0.4-0.4
		c0-0.2,0.2-0.4,0.4-0.4h1.8V8.7h-1.6c-0.2,0-0.4-0.2-0.4-0.4c0-0.2,0.2-0.4,0.4-0.4H71c0.2,0,0.4,0.2,0.4,0.4
		c0,0.2-0.2,0.4-0.4,0.4h-1.7V11.7z"/>
	<path class="st0" d="M75.8,12.3c0,0.2-0.2,0.4-0.4,0.4c-0.2,0-0.4-0.2-0.4-0.4V9.8c-0.5,0.1-1,0.2-1.6,0.2c-0.6,0-1-0.1-1-0.5
		c0-0.2,0.2-0.4,0.4-0.4c0.1,0,0.2,0,0.3,0c0.1,0,0.2,0,0.3,0c0.7,0,1.5-0.2,2.1-0.5c0.5-0.2,0.9-0.6,1.2-1c0.1-0.1,0.2-0.3,0.4-0.3
		c0.2,0,0.4,0.2,0.4,0.4c0,0.3-0.4,0.6-0.5,0.8c-0.4,0.4-0.8,0.7-1.3,0.9V12.3z"/>
	<path class="st1" d="M75.8,12.3c0,0.2-0.2,0.4-0.4,0.4c-0.2,0-0.4-0.2-0.4-0.4V9.8c-0.5,0.1-1,0.2-1.6,0.2c-0.6,0-1-0.1-1-0.5
		c0-0.2,0.2-0.4,0.4-0.4c0.1,0,0.2,0,0.3,0c0.1,0,0.2,0,0.3,0c0.7,0,1.5-0.2,2.1-0.5c0.5-0.2,0.9-0.6,1.2-1c0.1-0.1,0.2-0.3,0.4-0.3
		c0.2,0,0.4,0.2,0.4,0.4c0,0.3-0.4,0.6-0.5,0.8c-0.4,0.4-0.8,0.7-1.3,0.9V12.3z"/>
	<path class="st0" d="M82.9,8.4h-2.5c-0.2,0.5-0.3,0.8-0.8,1.3c-0.2,0.2-0.5,0.4-0.7,0.4c-0.2,0-0.4-0.2-0.4-0.4
		c0-0.2,0.1-0.3,0.2-0.4c0.4-0.3,0.7-0.7,0.9-1.2c0.1-0.3,0.2-0.5,0.5-0.5h3.1c0.3,0,0.5,0.2,0.5,0.5c0,0.4,0,0.8-0.1,1.2
		c0,0.3-0.1,0.6-0.2,0.9l0.2,0.1c0.2,0,0.3,0.2,0.3,0.4c0,0.2-0.2,0.4-0.5,0.4L83.1,11c-0.5,1.1-1.3,1.7-2.5,1.7
		c-0.5,0-1.1-0.1-1.6-0.4c-0.2-0.1-0.3-0.2-0.3-0.4c0-0.2,0.2-0.4,0.4-0.4c0.1,0,0.1,0,0.2,0.1c0.4,0.2,0.9,0.3,1.3,0.3
		c0.8,0,1.4-0.3,1.7-1.1l-1.9-0.5c-0.2,0-0.3-0.2-0.3-0.4c0-0.3,0.2-0.4,0.5-0.4l1.9,0.5C82.8,9.5,82.8,9,82.9,8.4"/>
	<path class="st1" d="M82.9,8.4h-2.5c-0.2,0.5-0.3,0.8-0.8,1.3c-0.2,0.2-0.5,0.4-0.7,0.4c-0.2,0-0.4-0.2-0.4-0.4
		c0-0.2,0.1-0.3,0.2-0.4c0.4-0.3,0.7-0.7,0.9-1.2c0.1-0.3,0.2-0.5,0.5-0.5h3.1c0.3,0,0.5,0.2,0.5,0.5c0,0.4,0,0.8-0.1,1.2
		c0,0.3-0.1,0.6-0.2,0.9l0.2,0.1c0.2,0,0.3,0.2,0.3,0.4c0,0.2-0.2,0.4-0.5,0.4L83.1,11c-0.5,1.1-1.3,1.7-2.5,1.7
		c-0.5,0-1.1-0.1-1.6-0.4c-0.2-0.1-0.3-0.2-0.3-0.4c0-0.2,0.2-0.4,0.4-0.4c0.1,0,0.1,0,0.2,0.1c0.4,0.2,0.9,0.3,1.3,0.3
		c0.8,0,1.4-0.3,1.7-1.1l-1.9-0.5c-0.2,0-0.3-0.2-0.3-0.4c0-0.3,0.2-0.4,0.5-0.4l1.9,0.5C82.8,9.5,82.8,9,82.9,8.4z"/>
	<path class="st0" d="M89.8,9.5c0.2,0,0.4,0.2,0.4,0.4c0,0.2-0.2,0.4-0.4,0.4h-4.2c-0.2,0-0.4-0.2-0.4-0.4c0-0.1,0.1-0.3,0.2-0.3
		c0.1,0,0.1-0.1,0.2-0.1H89.8z"/>
	<path class="st1" d="M89.8,9.5c0.2,0,0.4,0.2,0.4,0.4c0,0.2-0.2,0.4-0.4,0.4h-4.2c-0.2,0-0.4-0.2-0.4-0.4c0-0.1,0.1-0.3,0.2-0.3
		c0.1,0,0.1-0.1,0.2-0.1H89.8z"/>
	<path class="st0" d="M92.2,7.7c0-0.2,0.1-0.5,0.4-0.5c0.2,0,0.3,0.1,0.4,0.3l0.2,0.7C93.6,8.1,94.2,8,94.7,8l0.1-0.5
		c0-0.2,0.2-0.3,0.4-0.3c0.2,0,0.4,0.2,0.4,0.5L95.5,8c0.8,0.1,1.5,0.6,1.5,1.5c0,1-0.6,1.8-1.6,1.8c-0.3,0-0.9-0.1-0.9-0.5
		c0-0.2,0.2-0.4,0.4-0.4c0.1,0,0.1,0,0.2,0c0.2,0,0.2,0,0.3,0c0.6,0,0.9-0.4,0.9-1c0-0.5-0.4-0.7-0.8-0.8l-0.1,0.8
		c0,0.2-0.2,0.3-0.4,0.3c-0.3,0-0.4-0.2-0.4-0.5l0.1-0.6c-0.4,0.1-0.9,0.2-1.3,0.3l0.7,3.3c0,0.2-0.2,0.5-0.4,0.5
		c-0.2,0-0.4-0.1-0.4-0.3l-0.6-3.2c-0.2,0.1-0.6,0.2-0.7,0.2c-0.2,0-0.4-0.2-0.4-0.4c0-0.2,0.1-0.3,0.3-0.4c0.2-0.1,0.4-0.1,0.6-0.2
		L92.2,7.7z"/>
	<path class="st1" d="M92.2,7.7c0-0.2,0.1-0.5,0.4-0.5c0.2,0,0.3,0.1,0.4,0.3l0.2,0.7C93.6,8.1,94.2,8,94.7,8l0.1-0.5
		c0-0.2,0.2-0.3,0.4-0.3c0.2,0,0.4,0.2,0.4,0.5L95.5,8c0.8,0.1,1.5,0.6,1.5,1.5c0,1-0.6,1.8-1.6,1.8c-0.3,0-0.9-0.1-0.9-0.5
		c0-0.2,0.2-0.4,0.4-0.4c0.1,0,0.1,0,0.2,0c0.2,0,0.2,0,0.3,0c0.6,0,0.9-0.4,0.9-1c0-0.5-0.4-0.7-0.8-0.8l-0.1,0.8
		c0,0.2-0.2,0.3-0.4,0.3c-0.3,0-0.4-0.2-0.4-0.5l0.1-0.6c-0.4,0.1-0.9,0.2-1.3,0.3l0.7,3.3c0,0.2-0.2,0.5-0.4,0.5
		c-0.2,0-0.4-0.1-0.4-0.3l-0.6-3.2c-0.2,0.1-0.6,0.2-0.7,0.2c-0.2,0-0.4-0.2-0.4-0.4c0-0.2,0.1-0.3,0.3-0.4c0.2-0.1,0.4-0.1,0.6-0.2
		L92.2,7.7z"/>
	<path class="st0" d="M100.9,9.8l-0.3,1.3c-0.1,0.4-0.2,0.9-0.5,1.1c-0.2,0.2-0.5,0.2-0.7,0.2c-0.9,0-1.4-0.7-1.4-1.5
		c0-1.4,1-1.9,2.2-1.9l0.2-0.9h-1.7c-0.2,0-0.4-0.2-0.4-0.3c0-0.2,0.2-0.4,0.4-0.4h2.1c0.2,0,0.4,0.1,0.4,0.4c0,0,0,0.1,0,0.1
		l-0.2,1.1c0.4,0,0.9,0.1,1.3,0.3c0-0.2,0-0.5,0-0.7c0-0.1,0-0.3,0-0.4c0-0.2,0.2-0.4,0.4-0.4c0.2,0,0.4,0.2,0.4,0.4
		c0,0.3,0,0.7,0,1.1c0,0.1,0,0.2,0,0.4c0.5,0.3,0.6,0.4,0.6,0.6c0,0.2-0.2,0.4-0.4,0.4c-0.1,0-0.2,0-0.3-0.1
		c-0.1,0.6-0.3,1.2-0.7,1.6c-0.2,0.2-0.6,0.5-0.9,0.5c-0.2,0-0.4-0.2-0.4-0.4c0-0.2,0.1-0.3,0.3-0.4c0.7-0.3,0.9-0.8,1-1.7
		C101.9,10,101.4,9.9,100.9,9.8 M98.9,11c0,0.3,0.2,0.8,0.6,0.8c0.1,0,0.2,0,0.3-0.1c0.1-0.1,0.1-0.3,0.2-0.5l0.3-1.4
		C99.4,9.9,98.9,10.1,98.9,11"/>
	<path class="st1" d="M100.9,9.8l-0.3,1.3c-0.1,0.4-0.2,0.9-0.5,1.1c-0.2,0.2-0.5,0.2-0.7,0.2c-0.9,0-1.4-0.7-1.4-1.5
		c0-1.4,1-1.9,2.2-1.9l0.2-0.9h-1.7c-0.2,0-0.4-0.2-0.4-0.3c0-0.2,0.2-0.4,0.4-0.4h2.1c0.2,0,0.4,0.1,0.4,0.4c0,0,0,0.1,0,0.1
		l-0.2,1.1c0.4,0,0.9,0.1,1.3,0.3c0-0.2,0-0.5,0-0.7c0-0.1,0-0.3,0-0.4c0-0.2,0.2-0.4,0.4-0.4c0.2,0,0.4,0.2,0.4,0.4
		c0,0.3,0,0.7,0,1.1c0,0.1,0,0.2,0,0.4c0.5,0.3,0.6,0.4,0.6,0.6c0,0.2-0.2,0.4-0.4,0.4c-0.1,0-0.2,0-0.3-0.1
		c-0.1,0.6-0.3,1.2-0.7,1.6c-0.2,0.2-0.6,0.5-0.9,0.5c-0.2,0-0.4-0.2-0.4-0.4c0-0.2,0.1-0.3,0.3-0.4c0.7-0.3,0.9-0.8,1-1.7
		C101.9,10,101.4,9.9,100.9,9.8z M98.9,11c0,0.3,0.2,0.8,0.6,0.8c0.1,0,0.2,0,0.3-0.1c0.1-0.1,0.1-0.3,0.2-0.5l0.3-1.4
		C99.4,9.9,98.9,10.1,98.9,11z"/>
	<path class="st0" d="M104.6,8.7c-0.2,0-0.4-0.2-0.4-0.4c0-0.2,0.2-0.4,0.4-0.4h1.1l0.2-0.5c0-0.1,0.2-0.2,0.3-0.2
		c0.2,0,0.4,0.2,0.4,0.4c0,0,0,0.1,0,0.1L106.5,8h2.7c0.2,0,0.4,0.1,0.4,0.4c0,0.2-0.2,0.4-0.4,0.4h-3l-0.3,1
		c0.5-0.2,0.9-0.3,1.4-0.3c1,0,2.2,0.3,2.2,1.6c0,1.3-1.3,1.7-2.4,1.7c-0.6,0-1.2-0.1-1.8-0.4c-0.2-0.1-0.4-0.2-0.4-0.5
		c0-0.2,0.2-0.4,0.3-0.4c0.1,0,0.2,0,0.3,0.1c0.4,0.2,1,0.4,1.5,0.4c0.6,0,1.7-0.2,1.7-1c0-0.8-0.9-0.9-1.5-0.9
		c-0.6,0-1.2,0.2-1.7,0.5c-0.1,0.1-0.2,0.1-0.4,0.1c-0.2,0-0.3-0.2-0.3-0.4c0,0,0-0.1,0-0.1l0.5-1.5H104.6z"/>
	<path class="st1" d="M104.6,8.7c-0.2,0-0.4-0.2-0.4-0.4c0-0.2,0.2-0.4,0.4-0.4h1.1l0.2-0.5c0-0.1,0.2-0.2,0.3-0.2
		c0.2,0,0.4,0.2,0.4,0.4c0,0,0,0.1,0,0.1L106.5,8h2.7c0.2,0,0.4,0.1,0.4,0.4c0,0.2-0.2,0.4-0.4,0.4h-3l-0.3,1
		c0.5-0.2,0.9-0.3,1.4-0.3c1,0,2.2,0.3,2.2,1.6c0,1.3-1.3,1.7-2.4,1.7c-0.6,0-1.2-0.1-1.8-0.4c-0.2-0.1-0.4-0.2-0.4-0.5
		c0-0.2,0.2-0.4,0.3-0.4c0.1,0,0.2,0,0.3,0.1c0.4,0.2,1,0.4,1.5,0.4c0.6,0,1.7-0.2,1.7-1c0-0.8-0.9-0.9-1.5-0.9
		c-0.6,0-1.2,0.2-1.7,0.5c-0.1,0.1-0.2,0.1-0.4,0.1c-0.2,0-0.3-0.2-0.3-0.4c0,0,0-0.1,0-0.1l0.5-1.5H104.6z"/>
	<path class="st0" d="M110.8,8.5C110.8,8.4,110.8,8.4,110.8,8.5c0-0.3,0.2-0.4,0.3-0.4c0.2,0,0.3,0.1,0.3,0.3l0.1,0.6
		c0.5-0.1,0.9-0.2,1.3-0.3l0.1-0.4c0-0.2,0.2-0.3,0.3-0.3c0.2,0,0.4,0.2,0.3,0.4l0,0.2c0.7,0.1,1.2,0.6,1.2,1.3
		c0,0.9-0.5,1.6-1.4,1.6c-0.2,0-0.4,0-0.6-0.1c-0.1,0-0.2-0.1-0.2-0.3c0-0.2,0.2-0.3,0.3-0.3c0.1,0,0.1,0,0.2,0c0.1,0,0.2,0,0.3,0
		c0.3,0,0.5-0.1,0.6-0.4c0-0.1,0.1-0.3,0.1-0.4c0-0.4-0.3-0.6-0.6-0.7l-0.1,0.7c0,0.2-0.2,0.3-0.3,0.3c-0.2,0-0.4-0.2-0.4-0.4
		l0.1-0.5c-0.4,0.1-0.7,0.1-1.1,0.2l0.6,2.7c0,0.2-0.1,0.4-0.4,0.4c-0.2,0-0.3-0.1-0.4-0.3l-0.5-2.7c-0.2,0-0.4,0.2-0.6,0.2
		c-0.2,0-0.3-0.2-0.3-0.4c0-0.1,0.1-0.2,0.2-0.3c0.1-0.1,0.4-0.1,0.6-0.2L110.8,8.5z"/>
	<path class="st1" d="M110.8,8.5C110.8,8.4,110.8,8.4,110.8,8.5c0-0.3,0.2-0.4,0.3-0.4c0.2,0,0.3,0.1,0.3,0.3l0.1,0.6
		c0.5-0.1,0.9-0.2,1.3-0.3l0.1-0.4c0-0.2,0.2-0.3,0.3-0.3c0.2,0,0.4,0.2,0.3,0.4l0,0.2c0.7,0.1,1.2,0.6,1.2,1.3
		c0,0.9-0.5,1.6-1.4,1.6c-0.2,0-0.4,0-0.6-0.1c-0.1,0-0.2-0.1-0.2-0.3c0-0.2,0.2-0.3,0.3-0.3c0.1,0,0.1,0,0.2,0c0.1,0,0.2,0,0.3,0
		c0.3,0,0.5-0.1,0.6-0.4c0-0.1,0.1-0.3,0.1-0.4c0-0.4-0.3-0.6-0.6-0.7l-0.1,0.7c0,0.2-0.2,0.3-0.3,0.3c-0.2,0-0.4-0.2-0.4-0.4
		l0.1-0.5c-0.4,0.1-0.7,0.1-1.1,0.2l0.6,2.7c0,0.2-0.1,0.4-0.4,0.4c-0.2,0-0.3-0.1-0.4-0.3l-0.5-2.7c-0.2,0-0.4,0.2-0.6,0.2
		c-0.2,0-0.3-0.2-0.3-0.4c0-0.1,0.1-0.2,0.2-0.3c0.1-0.1,0.4-0.1,0.6-0.2L110.8,8.5z"/>
	<path class="st0" d="M117.9,9.3c0.6,0,1,0.3,1,1c0,0.1,0,0.4-0.1,0.6c0,0.2-0.1,0.4-0.1,0.6c0,0.3,0.2,0.5,0.6,0.5
		c0.7,0,0.9-0.7,0.9-1.3c0-0.2,0-0.4-0.1-0.6c0-0.1,0-0.2,0-0.2c0-0.2,0.2-0.4,0.4-0.4c0.2,0,0.3,0.1,0.4,0.3
		c0.1,0.3,0.1,0.5,0.1,0.8c0,1.1-0.4,2.1-1.7,2.1c-0.7,0-1.3-0.4-1.3-1.2c0-0.1,0-0.5,0.1-0.8c0-0.1,0-0.2,0-0.3
		c0-0.2-0.1-0.3-0.3-0.3c-0.4,0-0.7,0.2-0.9,0.5c-0.2,0.2-0.3,0.5-0.3,0.8l-0.2,0.9c0,0.2-0.2,0.3-0.4,0.3c-0.2,0-0.4-0.2-0.4-0.4
		c0,0,0-0.1,0-0.1l1.1-4.6c0-0.2,0.2-0.3,0.4-0.3c0.2,0,0.4,0.2,0.4,0.4c0,0,0,0.1,0,0.1L117,9.6C117.3,9.4,117.6,9.3,117.9,9.3"/>
	<path class="st1" d="M117.9,9.3c0.6,0,1,0.3,1,1c0,0.1,0,0.4-0.1,0.6c0,0.2-0.1,0.4-0.1,0.6c0,0.3,0.2,0.5,0.6,0.5
		c0.7,0,0.9-0.7,0.9-1.3c0-0.2,0-0.4-0.1-0.6c0-0.1,0-0.2,0-0.2c0-0.2,0.2-0.4,0.4-0.4c0.2,0,0.3,0.1,0.4,0.3
		c0.1,0.3,0.1,0.5,0.1,0.8c0,1.1-0.4,2.1-1.7,2.1c-0.7,0-1.3-0.4-1.3-1.2c0-0.1,0-0.5,0.1-0.8c0-0.1,0-0.2,0-0.3
		c0-0.2-0.1-0.3-0.3-0.3c-0.4,0-0.7,0.2-0.9,0.5c-0.2,0.2-0.3,0.5-0.3,0.8l-0.2,0.9c0,0.2-0.2,0.3-0.4,0.3c-0.2,0-0.4-0.2-0.4-0.4
		c0,0,0-0.1,0-0.1l1.1-4.6c0-0.2,0.2-0.3,0.4-0.3c0.2,0,0.4,0.2,0.4,0.4c0,0,0,0.1,0,0.1L117,9.6C117.3,9.4,117.6,9.3,117.9,9.3z"/>
	<path class="st0" d="M125.4,8.5c0,0.2-0.1,1-0.2,1.2c-0.1,0.5-0.2,1-0.3,1.5c-0.2,0.7-0.4,1.2-1.2,1.2c-0.5,0-0.8-0.2-1.1-0.6
		c-0.4-0.4-0.5-1-0.5-1.6c0-1.7,1.2-2.9,2.8-2.9c0.8,0,1.6,0.3,2.2,0.9c0.4,0.5,0.6,1,0.6,1.7c0,0.7-0.2,1.4-0.7,2
		c-0.4,0.4-0.9,0.7-1.4,0.7c-0.2,0-0.4-0.2-0.4-0.4c0-0.1,0.1-0.3,0.2-0.3c0.1-0.1,0.2-0.1,0.3-0.1c0.9-0.2,1.3-0.9,1.3-1.8
		c0-1.1-0.7-1.7-1.7-1.8C125.4,8.2,125.4,8.4,125.4,8.5 M123.5,8.7c-0.4,0.4-0.6,1-0.6,1.5c0,0.4,0.1,0.9,0.4,1.2
		c0.1,0.1,0.3,0.2,0.4,0.2c0.1,0,0.3,0,0.3-0.2c0.1-0.2,0.2-0.5,0.2-0.7c0.2-0.7,0.3-1.4,0.4-2.2c0-0.2,0.1-0.4,0.3-0.4
		C124.4,8.2,123.9,8.4,123.5,8.7"/>
	<path class="st1" d="M125.4,8.5c0,0.2-0.1,1-0.2,1.2c-0.1,0.5-0.2,1-0.3,1.5c-0.2,0.7-0.4,1.2-1.2,1.2c-0.5,0-0.8-0.2-1.1-0.6
		c-0.4-0.4-0.5-1-0.5-1.6c0-1.7,1.2-2.9,2.8-2.9c0.8,0,1.6,0.3,2.2,0.9c0.4,0.5,0.6,1,0.6,1.7c0,0.7-0.2,1.4-0.7,2
		c-0.4,0.4-0.9,0.7-1.4,0.7c-0.2,0-0.4-0.2-0.4-0.4c0-0.1,0.1-0.3,0.2-0.3c0.1-0.1,0.2-0.1,0.3-0.1c0.9-0.2,1.3-0.9,1.3-1.8
		c0-1.1-0.7-1.7-1.7-1.8C125.4,8.2,125.4,8.4,125.4,8.5z M123.5,8.7c-0.4,0.4-0.6,1-0.6,1.5c0,0.4,0.1,0.9,0.4,1.2
		c0.1,0.1,0.3,0.2,0.4,0.2c0.1,0,0.3,0,0.3-0.2c0.1-0.2,0.2-0.5,0.2-0.7c0.2-0.7,0.3-1.4,0.4-2.2c0-0.2,0.1-0.4,0.3-0.4
		C124.4,8.2,123.9,8.4,123.5,8.7z"/>
	<polygon class="st2" points="83,19.3 83,19.3 83,19.3 	"/>
	<path class="st2" d="M83.3,21c0.1,0.2,0.2,0.4,0.4,0.6c0.2,0.2,0.4,0.4,0.6,0.5c0.2,0.1,0.5,0.2,0.8,0.2v-0.5h0l0,0.5l11.3,0
		c0.5,0,1-0.4,1.1-0.9c0.1,0,0.2-0.1,0.3-0.1c0.2-0.1,0.5-0.2,0.6-0.4c0.1,0.1,0.2,0.2,0.3,0.2c0.3,0.2,0.7,0.3,1.1,0.3
		c0.3,0,0.6-0.1,0.8-0.2c0.4-0.2,0.7-0.4,0.9-0.7c0.2-0.3,0.4-0.6,0.5-1l0.4-1.8c0-0.2,0.1-0.4,0.1-0.6c0-0.2,0-0.4-0.1-0.6
		c-0.1-0.2-0.1-0.3-0.2-0.5c-0.2-0.2-0.4-0.4-0.6-0.6c-0.1,0-0.2-0.1-0.2-0.1c-0.1,0-0.1-0.1-0.2-0.1c-0.2-0.1-0.5-0.2-0.8-0.2
		c-0.3,0-0.5,0.1-0.7,0.2c-0.2,0.1-0.4,0.2-0.6,0.4c-0.1-0.1-0.2-0.1-0.3-0.2c-0.1,0-0.1-0.1-0.2-0.1c-0.1,0-0.1-0.1-0.2-0.1
		c-0.2-0.1-0.5-0.1-0.7-0.1c-0.3,0-0.5,0.1-0.7,0.2c-0.3,0.1-0.6,0.4-0.9,0.6c-0.2,0.3-0.4,0.6-0.5,1l-0.1,0.5c0,0,0,0-0.1,0l-9.9,0
		c-0.3,0-0.6,0.1-0.8,0.2c-0.4,0.2-0.7,0.4-1,0.7c-0.3,0.3-0.5,0.7-0.6,1.1c0,0.2-0.1,0.4-0.1,0.5C82.9,20.3,83.1,20.7,83.3,21"/>
	<polygon class="st2" points="101.1,22 101.1,22 101.1,22 	"/>
	<polygon class="st2" points="115.7,23.7 115.7,23.7 115.7,23.7 	"/>
	<path class="st2" d="M41.6,22.5c0.1-0.3,0.1-0.5,0.1-0.8c0-0.2,0-0.4-0.1-0.6c0.1,0,0.3,0,0.4-0.1c0.2,0,0.4-0.1,0.6-0.2
		c0.3-0.1,0.5-0.4,0.7-0.6c0.2-0.3,0.4-0.6,0.4-0.9c0.1-0.2,0.1-0.5,0.1-0.8c0-0.2,0-0.5-0.2-0.8c-0.1-0.2-0.2-0.4-0.4-0.5
		c-0.1-0.1-0.2-0.2-0.4-0.3c-0.1,0-0.2-0.1-0.3-0.1c-0.1,0-0.1-0.1-0.2-0.1c-0.2-0.1-0.4-0.1-0.5-0.2c-0.2,0-0.3,0-0.5,0
		c0,0,0,0,0,0l-8.7,0c-0.1-0.3-0.3-0.5-0.4-0.7c-0.1-0.1-0.3-0.2-0.4-0.3c-0.1-0.1-0.2-0.1-0.4-0.2c0,0,0,0-0.1,0
		c-0.2-0.1-0.4-0.2-0.6-0.2c-0.2,0-0.4-0.1-0.6-0.1c0,0,0,0-0.1,0c-0.3,0-0.6,0.1-0.8,0.2c-0.2,0.1-0.4,0.2-0.6,0.4
		c-0.2,0.2-0.5,0.4-0.7,0.7c-0.2,0.3-0.4,0.5-0.7,0.8l0,0c-1.2,1.4-2.4,2.7-3.9,3.9l0,0c0,0,0,0-0.1,0c0.1-0.2,0.1-0.4,0.1-0.7
		c0-0.2,0-0.5-0.1-0.7c-0.1-0.2-0.2-0.4-0.3-0.5c-0.1-0.1-0.2-0.2-0.4-0.3c-0.1,0-0.2-0.1-0.3-0.1c0,0-0.1-0.1-0.1-0.1
		c-0.2-0.1-0.4-0.2-0.5-0.2c-0.2,0-0.3,0-0.5,0c0,0,0,0,0,0l-4.8,0l0.1-0.5c0.1-0.3,0.1-0.6,0.1-0.9c0-0.2,0-0.4-0.1-0.7
		c-0.1-0.2-0.2-0.4-0.3-0.5c-0.1-0.1-0.2-0.2-0.4-0.3c-0.1-0.1-0.3-0.1-0.4-0.2c0,0,0,0,0,0c-0.2-0.1-0.4-0.2-0.5-0.2
		c-0.2,0-0.3-0.1-0.5-0.1c0,0,0,0,0,0c-0.3,0-0.5,0-0.8,0.1c-0.2,0-0.4,0.1-0.6,0.2c-0.3,0.2-0.6,0.4-0.7,0.7
		c-0.2,0.3-0.3,0.6-0.4,0.9l-0.4,1.4l-5.8,0c-0.3,0-0.5,0-0.8,0.1c-0.4,0.1-0.8,0.3-1,0.6c-0.3,0.3-0.5,0.7-0.6,1.1
		c-0.1,0.3-0.1,0.5-0.1,0.8c0,0.2,0,0.4,0.1,0.7c0.1,0.1,0.1,0.2,0.2,0.3c0,0,0,0,0,0.1c0.1,0.2,0.2,0.4,0.3,0.5
		C4,22.9,4.1,23,4.2,23.1c0.2,0.1,0.4,0.2,0.6,0.2c0.2,0,0.4,0.1,0.5,0.1c0,0,0,0,0,0h0l2.8,0c-0.7,0.8-1.4,1.5-2.1,2.2
		c-1.3,1.2-2.7,2.3-4.4,3.4l0,0c-0.3,0.2-0.5,0.4-0.8,0.6c-0.1,0.1-0.3,0.3-0.4,0.5c-0.1,0.2-0.2,0.4-0.3,0.6C0,31,0,31.3,0,31.5
		c0,0.4,0.1,0.8,0.3,1.2c0.1,0.3,0.2,0.5,0.4,0.7c0.2,0.2,0.4,0.4,0.7,0.5C1.7,34,2,34.1,2.3,34.1h0h0c0.2,0,0.5,0,0.7-0.1
		c0.2-0.1,0.4-0.1,0.5-0.2l0,0c0.2-0.1,0.5-0.3,0.8-0.5c0.2-0.1,0.3-0.2,0.5-0.3c0.1,0.1,0.1,0.2,0.2,0.3c0.1,0.1,0.2,0.2,0.4,0.3
		c0.2,0.1,0.4,0.2,0.6,0.2c0.2,0,0.3,0,0.5,0l0,0c0,0,0,0,0.1,0h0H7l-0.2,0.5c-0.1,0.3-0.2,0.6-0.2,1c0,0.2,0,0.4,0.1,0.6
		c0,0.1,0.1,0.2,0.2,0.3c0,0,0,0.1,0,0.1c0.1,0.2,0.2,0.4,0.3,0.5c0.1,0.1,0.2,0.2,0.3,0.3c0.2,0.1,0.4,0.2,0.6,0.2
		c0.2,0,0.4,0.1,0.6,0.1h0h0c0.3,0,0.6,0,0.9-0.1c0.2-0.1,0.4-0.2,0.7-0.3c0.2-0.1,0.3-0.2,0.4-0.3c0.2-0.2,0.3-0.4,0.5-0.6
		c0.1-0.2,0.2-0.5,0.3-0.7l0.5-1.5l1.6,0c0.3,0,0.5,0,0.8-0.1c0.2-0.1,0.4-0.1,0.6-0.2c0.2-0.1,0.4-0.3,0.6-0.5
		c0.1,0.1,0.2,0.3,0.3,0.4l0,0c0.2,0.2,0.4,0.4,0.7,0.6c0.3,0.2,0.6,0.3,1,0.2h0h0c0.4,0,0.7-0.1,1-0.2c0.5-0.2,0.8-0.5,1.2-0.9
		c0.3-0.4,0.6-0.8,0.7-1.3c0.1-0.2,0.1-0.5,0.1-0.7c0-0.2,0-0.3-0.1-0.5c-0.1-0.2-0.2-0.4-0.3-0.6c-0.1-0.2-0.2-0.3-0.3-0.4l0,0
		c-0.3-0.4-0.6-0.7-0.9-1c-0.4-0.4-0.6-0.8-0.9-1.3c-0.3-0.5-0.5-1-0.8-1.7c-0.3-0.7-0.5-1.5-0.7-2.2l4.4,0c0.3,0,0.5,0,0.8-0.1
		c0.2-0.1,0.4-0.1,0.6-0.3c0,0,0.1-0.1,0.1-0.1c0,0.1,0,0.2,0,0.3c0,0.4,0.1,0.8,0.3,1.2c0,0,0,0,0,0c0,0.1-0.1,0.2-0.1,0.3
		c-0.1,0.2-0.1,0.5-0.1,0.7c0,0.2,0,0.5,0.2,0.7c0,0.1,0.1,0.2,0.2,0.2c0,0.1,0,0.1,0.1,0.2c0,0.1,0.1,0.2,0.1,0.2
		c-0.2,0.3-0.4,0.6-0.6,1c0,0.2-0.1,0.3-0.1,0.5c0,0.2,0,0.4,0.1,0.6c0.1,0.1,0.1,0.3,0.2,0.4c0,0,0,0,0,0c0,0,0,0,0,0.1
		c0.1,0.1,0.1,0.3,0.2,0.4c0.1,0.2,0.3,0.3,0.4,0.4c0.1,0.1,0.3,0.2,0.4,0.4l0,0c0.1,0.1,0.3,0.2,0.4,0.3c-1,0.5-2,0.9-3,1.3l0,0
		c-0.2,0.1-0.3,0.1-0.5,0.2c-0.3,0.1-0.5,0.3-0.7,0.6c-0.2,0.3-0.3,0.6-0.4,0.9c-0.1,0.2-0.1,0.5-0.1,0.7c0,0.2,0,0.4,0.1,0.7
		c0.1,0.2,0.1,0.3,0.2,0.5c0,0,0,0,0,0c0.1,0.2,0.1,0.3,0.2,0.5c0.2,0.2,0.4,0.5,0.7,0.6c0.3,0.2,0.6,0.2,0.9,0.2h0h0
		c0.1,0,0.3,0,0.4,0c0.2,0,0.3-0.1,0.5-0.1c0.1,0,0.3-0.1,0.4-0.1c1.7-0.6,3.4-1.5,5-2.5c0,0,0,0,0,0l0,0c0.2,0.2,0.3,0.5,0.5,0.7
		c0.1,0.2,0.2,0.4,0.4,0.5c0.2,0.3,0.4,0.5,0.7,0.7c0.1,0.1,0.3,0.2,0.5,0.3c0.2,0.1,0.4,0.1,0.7,0.1h0c0.4,0,0.7-0.1,1-0.2
		c0.2-0.1,0.4-0.2,0.6-0.3c0.2-0.2,0.4-0.4,0.6-0.6c0,0.1,0.1,0.2,0.1,0.3c0.2,0.4,0.5,0.8,0.9,1c0.4,0.3,0.9,0.4,1.4,0.4h0h0
		c0.4,0,0.7-0.1,1-0.2c0.6-0.2,1-0.5,1.5-0.8c0.7-0.5,1.2-1.1,1.7-1.8c0.2-0.3,0.4-0.6,0.6-0.9c0.2-0.3,0.3-0.6,0.4-0.9
		c0.1-0.2,0.1-0.4,0.1-0.6c0-0.2,0-0.5-0.1-0.7c-0.1-0.3-0.3-0.6-0.6-0.9c-0.1-0.1-0.2-0.1-0.3-0.2c0,0-0.1-0.1-0.1-0.1
		c-0.3-0.2-0.6-0.3-1-0.3h0c-0.1,0-0.2,0-0.3,0c0.3-1.1,0.8-2.3,1.1-3.4c0.1-0.4,0.2-0.7,0.2-1.1c0-0.2,0-0.4-0.1-0.6
		c0-0.2-0.1-0.4-0.2-0.5h0.4c0.3,0,0.5,0,0.8-0.1c0.2-0.1,0.4-0.2,0.5-0.3c0.3-0.2,0.5-0.4,0.6-0.6C41.4,23,41.5,22.8,41.6,22.5
		 M32.5,31.9c-0.1-0.1-0.2-0.3-0.3-0.4c0,0,0-0.1-0.1-0.1c0.2-0.2,0.4-0.3,0.6-0.5c-0.1,0.2-0.1,0.5-0.2,0.7
		C32.5,31.7,32.5,31.8,32.5,31.9 M28.7,28.1c-0.2-0.2-0.5-0.4-0.8-0.6l1.6,0C29.3,27.7,29,27.9,28.7,28.1"/>
	<polygon class="st2" points="22.8,36.7 22.8,36.7 22.8,36.7 	"/>
	<path class="st2" d="M61.3,22.4c0.6-0.3,1.2-0.7,1.6-1.2c0.5-0.5,0.8-1.2,1-1.9c0.1-0.3,0.1-0.6,0.1-1c0-0.4-0.1-0.8-0.2-1.1
		c-0.2-0.5-0.5-1-1-1.3c-0.2-0.1-0.4-0.2-0.6-0.3c-0.4-0.2-0.9-0.4-1.4-0.4c0,0,0,0-0.1,0c-0.4,0-0.9,0.1-1.3,0.3
		c-0.6,0.3-1.2,0.7-1.6,1.2c-0.3,0.3-0.6,0.7-0.8,1.2c0,0-0.1,0-0.1,0l-10.4,0c-0.3,0-0.6,0.1-0.8,0.2c-0.4,0.2-0.7,0.4-1,0.7
		c-0.3,0.3-0.5,0.7-0.6,1.1C44.1,20,44,20.2,44,20.4c0,0.2,0,0.5,0.1,0.7c0.1,0.2,0.1,0.3,0.3,0.5c0.1,0.3,0.4,0.6,0.7,0.8
		c0.3,0.2,0.7,0.3,1.1,0.3l10,0c-0.2,0.7-0.4,1.3-0.6,2c-0.4,1.2-0.9,2.3-1.6,3.3l0,0c-0.4,0.6-0.8,1.1-1.2,1.5
		c-0.6,0.6-1.3,1-2,1.3c-0.7,0.3-1.5,0.4-2.4,0.4c0,0,0,0,0,0h0c-0.7,0-1.3-0.1-1.8-0.2c-0.4-0.1-0.8-0.3-1.1-0.5
		c-0.1-0.1-0.3-0.2-0.5-0.3c-0.1-0.1-0.3-0.2-0.5-0.3c-0.1-0.1-0.3-0.1-0.4-0.2c-0.2,0-0.3-0.1-0.5-0.1c-0.3,0-0.6,0.1-0.9,0.2
		c-0.4,0.2-0.7,0.4-1,0.7c-0.3,0.3-0.5,0.7-0.6,1.1C41,31.8,41,32,41,32.2c0,0.4,0.1,0.7,0.3,1c0,0.1,0.1,0.1,0.1,0.2
		c0.1,0.2,0.2,0.5,0.3,0.6c0.3,0.3,0.5,0.6,0.8,0.8c0.3,0.2,0.6,0.3,0.8,0.5l0,0c0.7,0.4,1.5,0.7,2.2,0.8c0.8,0.2,1.6,0.2,2.4,0.2v0
		h0c1,0,2-0.1,2.9-0.3c1.4-0.3,2.7-0.9,4-1.8c1.2-0.9,2.3-2.1,3.3-3.7l0,0c1.5-2.5,2.4-5.2,3.2-7.7C61.3,22.6,61.3,22.5,61.3,22.4"
		/>
	<path class="st2" d="M80.9,19.8c0-0.2,0-0.4-0.1-0.6c-0.1-0.2-0.1-0.4-0.3-0.6l0,0c-0.2-0.3-0.5-0.6-0.8-0.8
		c-0.1-0.1-0.2-0.1-0.3-0.1c0,0-0.1-0.1-0.1-0.1c-0.3-0.2-0.7-0.2-1-0.2l-11.5,0c-0.4,0-0.7,0.1-1,0.2c-0.5,0.2-0.9,0.5-1.2,0.8
		c-0.3,0.4-0.6,0.8-0.7,1.3l-3.4,12.6c-0.1,0.2-0.1,0.5-0.1,0.7c0,0.3,0,0.6,0.1,0.8c0.1,0.1,0.1,0.3,0.2,0.4c0,0,0,0,0,0
		c0.2,0.4,0.4,0.8,0.8,1.1c0.4,0.3,0.8,0.4,1.3,0.4l11.6,0c0.4,0,0.7-0.1,1.1-0.2c0.5-0.2,0.9-0.5,1.2-0.9c0.3-0.4,0.6-0.9,0.7-1.4
		l3.2-12.7C80.9,20.3,80.9,20.1,80.9,19.8 M66,30.8l2.2-8.5l7.2,0l-2.2,8.5L66,30.8z"/>
	<polygon class="st2" points="90.1,34.2 90.1,34.2 90.1,34.2 	"/>
	<path class="st2" d="M97.8,27.6c0.4-0.2,0.7-0.4,1-0.7c0.3-0.3,0.5-0.7,0.6-1.1c0-0.2,0.1-0.4,0.1-0.6c0-0.3,0-0.5-0.1-0.8
		c-0.1-0.4-0.4-0.7-0.7-0.9c-0.1-0.1-0.2-0.2-0.4-0.2c0,0,0,0-0.1,0c-0.3-0.2-0.7-0.3-1-0.3l-14.3,0c-0.3,0-0.6,0.1-0.8,0.2
		c-0.4,0.2-0.7,0.4-1,0.7c-0.3,0.3-0.5,0.7-0.6,1.1c0,0.2-0.1,0.4-0.1,0.6c0,0.2,0,0.5,0.1,0.7c0.1,0.1,0.1,0.3,0.2,0.4c0,0,0,0,0,0
		c0.1,0.4,0.4,0.7,0.7,0.9c0.3,0.2,0.7,0.3,1.1,0.3v-0.5h0v0.5l6.3,0c0,0,0,0,0,0c-0.2,0.6-0.5,1.1-0.9,1.6
		c-0.2,0.3-0.5,0.6-0.8,0.8c-0.4,0.3-0.8,0.5-1.2,0.6c-0.4,0.1-0.9,0.2-1.5,0.2c0,0,0,0,0,0c-0.7,0-1.2-0.1-1.7-0.3v0
		c-0.2-0.1-0.4-0.2-0.6-0.2c-0.2-0.1-0.4-0.1-0.6-0.1c-0.3,0-0.6,0.1-0.8,0.2c-0.4,0.2-0.7,0.4-1,0.7c-0.3,0.3-0.5,0.7-0.6,1.1
		c0,0.2-0.1,0.4-0.1,0.6c0,0.3,0.1,0.6,0.2,0.9c0,0.1,0.1,0.1,0.1,0.2c0,0.1,0.1,0.2,0.1,0.3c0.1,0.3,0.3,0.5,0.5,0.6
		c0.3,0.3,0.7,0.5,1.1,0.7c0.6,0.2,1.1,0.4,1.7,0.4c0.5,0.1,1,0.1,1.4,0.1c0,0,0,0,0,0c0,0,0,0,0,0c0.9,0,1.9-0.1,2.9-0.4
		c1-0.3,2-0.8,2.9-1.5c0.6-0.5,1.1-1,1.6-1.6c0.7-0.9,1.2-1.8,1.6-2.8c0.3-0.7,0.5-1.4,0.8-2l2.8,0C97.2,27.8,97.5,27.7,97.8,27.6"
		/>
	<path class="st2" d="M112.9,31.6c-0.1-0.1-0.2-0.1-0.3-0.2c-0.1,0-0.1-0.1-0.2-0.1c-0.3-0.2-0.7-0.3-1-0.3v0.3h0V31h-0.6l2.6-7.7
		l0,0c0.1-0.3,0.2-0.6,0.2-0.9c0-0.3,0-0.5-0.1-0.8c-0.1-0.2-0.2-0.4-0.3-0.5c-0.2-0.2-0.5-0.4-0.7-0.6c0,0-0.1,0-0.1,0
		c0,0,0,0-0.1,0c-0.3-0.2-0.7-0.3-1.1-0.3l-7.8,0c-0.3,0-0.6,0.1-0.8,0.2c-0.4,0.2-0.7,0.4-0.9,0.7c-0.3,0.3-0.5,0.7-0.6,1.1
		c0,0.2-0.1,0.3-0.1,0.5c0,0.2,0,0.5,0.1,0.7c0.1,0.2,0.1,0.3,0.2,0.5c0.1,0.3,0.4,0.6,0.7,0.8c0.3,0.2,0.7,0.4,1.1,0.3l4.9,0
		l-2.1,6.1l-6.3,0c-0.3,0-0.6,0.1-0.8,0.2c-0.4,0.2-0.7,0.4-0.9,0.7c-0.3,0.3-0.5,0.6-0.6,1.1c0,0.2-0.1,0.3-0.1,0.5
		c0,0.2,0,0.5,0.1,0.7c0,0.1,0.1,0.3,0.2,0.4c0,0,0,0.1,0,0.1c0.1,0.4,0.4,0.7,0.7,0.9c0.3,0.2,0.7,0.3,1.1,0.3l11.8,0
		c0.3,0,0.6-0.1,0.9-0.2c0.4-0.2,0.7-0.4,1-0.7c0.3-0.3,0.5-0.7,0.6-1.1c0-0.2,0.1-0.3,0.1-0.5c0-0.2,0-0.5-0.1-0.7
		C113.5,32.1,113.2,31.8,112.9,31.6"/>
	<path class="st2" d="M130.5,28.3c0.4-0.2,0.8-0.5,1.1-0.8c0.3-0.3,0.5-0.8,0.6-1.2c0-0.2,0.1-0.3,0.1-0.5c0-0.5-0.2-1.1-0.6-1.5
		c-0.2-0.2-0.4-0.4-0.7-0.5c0,0,0,0,0,0c-0.1-0.1-0.2-0.2-0.4-0.2c-0.2-0.1-0.5-0.2-0.8-0.2v0.2h0v-0.2l-12.9,0
		c-0.2,0-0.4,0-0.6,0.1c-0.2,0.1-0.4,0.1-0.5,0.2c-0.4,0.2-0.7,0.5-0.9,0.8c-0.2,0.3-0.4,0.6-0.4,1c0,0.2-0.1,0.3-0.1,0.5
		c0,0.4,0.1,0.8,0.4,1.2c0.1,0.4,0.4,0.7,0.7,0.9c0.3,0.2,0.8,0.4,1.2,0.4l12.9,0C129.9,28.5,130.2,28.4,130.5,28.3"/>
	<path class="st2" d="M146.9,32.9c-0.1-0.2-0.2-0.4-0.2-0.6l0,0l-2.5-4.7c0.6-1.2,1.2-2.4,1.6-3.7l0,0c0.3-0.7,0.5-1.3,0.6-1.9
		c0.2-0.6,0.3-1.1,0.4-1.6c0-0.2,0.1-0.4,0.1-0.6c0-0.3,0-0.5-0.1-0.8c-0.1-0.2-0.2-0.4-0.3-0.6c-0.2-0.3-0.4-0.5-0.8-0.7
		c-0.1,0-0.2-0.1-0.3-0.1c0,0-0.1-0.1-0.1-0.1c-0.3-0.2-0.6-0.2-1-0.2l-10.2,0c-0.3,0-0.6,0.1-0.8,0.2c-0.4,0.2-0.7,0.4-1,0.7
		c-0.3,0.3-0.5,0.7-0.6,1.1c0,0.2-0.1,0.3-0.1,0.5c0,0.4,0.1,0.9,0.4,1.2c0.1,0.3,0.4,0.6,0.7,0.8c0.3,0.2,0.8,0.4,1.2,0.4l7.2,0
		c-0.3,0.8-0.6,1.6-0.9,2.4c-0.6,1.3-1.4,2.5-2.3,3.6l0,0c-0.7,0.8-1.5,1.6-2.4,2.1c-0.4,0.3-0.9,0.5-1.3,0.6
		c-0.4,0.1-0.8,0.2-1.3,0.2c0,0,0,0,0,0h0c-0.2,0-0.4,0-0.6-0.1c-0.2,0-0.4-0.1-0.5-0.2l0,0c-0.2-0.1-0.4-0.2-0.6-0.3
		c-0.1,0-0.2-0.1-0.3-0.1c-0.1,0-0.2,0-0.4,0c-0.3,0-0.6,0.1-0.9,0.2c-0.4,0.2-0.7,0.4-1,0.7c-0.3,0.3-0.5,0.7-0.6,1.1
		c0,0.2-0.1,0.3-0.1,0.5c0,0.4,0.1,0.7,0.3,1c0,0,0,0.1,0.1,0.1c0,0.1,0.1,0.3,0.2,0.4c0.2,0.3,0.4,0.5,0.7,0.7l0,0c0,0,0,0,0,0
		c0,0,0,0,0,0l0,0c0.5,0.4,1.1,0.6,1.7,0.8c0.6,0.2,1.2,0.2,1.8,0.2v0c0,0,0,0,0,0c0,0,0,0,0,0c1.8,0,3.6-0.5,5.1-1.5
		c1.1-0.7,2.2-1.5,3.1-2.6l1.6,3l0,0c0.2,0.3,0.4,0.6,0.7,0.8c0.3,0.2,0.7,0.3,1.1,0.3c0.3,0,0.6-0.1,0.9-0.2c0.4-0.2,0.8-0.5,1-0.8
		c0.3-0.3,0.5-0.7,0.6-1.2c0-0.2,0.1-0.3,0.1-0.5C147,33.4,146.9,33.2,146.9,32.9"/>
	<path class="st0" d="M13.9,29.8c0.8,0,1.1,0.4,0.8,1.2c-0.2,0.8-0.8,1.1-1.5,1.1l-2.4,0l-0.7,2.3c-0.3,1-0.7,1.3-1.7,1.3
		c-0.8,0-0.9-0.5-0.7-1.3l0.7-2.3l-2.4,0c-0.8,0-1.1-0.4-0.8-1.2c0.3-0.8,0.8-1.1,1.5-1.1l2.4,0l1.6-5.4c-1.6,2.2-3.3,4-5.4,5.9
		c-0.7,0.6-2,1.7-2.8,2.1c-0.2,0.1-0.4,0.2-0.7,0.2c-0.7,0-1.2-0.7-0.9-1.5c0.2-0.6,0.6-0.9,1.1-1.2c3.5-2.3,5.7-4.5,8.3-7.9l-5.5,0
		c-0.8,0-1.1-0.4-0.8-1.2c0.3-0.8,0.8-1.2,1.5-1.2l6.5,0l0.6-2.1c0.3-1,0.8-1.2,1.6-1.2c0.8,0,1,0.4,0.7,1.2l-0.6,2.1l6.6,0
		c0.8,0,1,0.4,0.8,1.3c-0.2,0.8-0.8,1.2-1.5,1.2l-5.6,0c0.1,1.4,0.5,2.5,0.9,3.7c0.8,2,1.4,2.8,2.8,4.2c0.3,0.3,0.4,0.6,0.3,1.1
		c-0.2,0.8-1.1,1.6-1.8,1.6c-0.4,0-0.6-0.2-0.8-0.4c-0.6-0.8-1.1-1.6-1.6-2.5c-0.9-1.7-1.2-3.3-1.6-5.3l-1.6,5.4L13.9,29.8z"/>
	<path class="st0" d="M41.5,17.5c0.7,0,1.1,0.3,0.8,1.1c-0.2,0.8-0.8,1.1-1.5,1.1l-11.6,0c-0.4,0.4-0.8,0.8-1.1,1.2
		c0.3-0.2,0.5-0.2,0.8-0.2l10.6,0c0.7,0,0.9,0.4,0.7,1.1c-0.2,0.7-0.6,1-1.3,1l-10.6,0c-0.7,0-0.9-0.4-0.6-1.1
		c0.1-0.2,0.1-0.3,0.2-0.5C27,22.2,26.1,23.2,25,24l11,0c1.2,0,2,0.3,1.6,1.9c-0.4,1.3-0.9,2.6-1.2,3.9l-0.1,0.2
		c-0.2,0.7-0.7,2.6-0.1,2.6c0.3,0,0.5-0.4,0.7-0.6c0.5-0.7,0.8-1,1.3-1c0.5,0,0.8,0.5,0.7,1.1c-0.3,1.1-2.3,3.8-4.1,3.8
		c-0.8,0-1.4-0.6-1.5-1.4c-0.2-1.2,0.2-3,0.6-4.3c0.3-1,0.6-2.1,0.9-3.1c0.1-0.4,0.2-0.9-0.5-0.9l-10,0c-0.7,0-1-0.3-0.8-1.1
		c0.1-0.3,0.2-0.6,0.5-0.8c-0.5-0.1-0.8-0.8-0.6-1.4c0.1-0.4,0.4-0.7,0.8-1c1.5-1.2,2.8-2.5,4-4c1-1.1,1.3-1.8,2.2-1.8
		c0.5,0,1.3,0.3,1.1,1c-0.1,0.2-0.1,0.3-0.3,0.5L41.5,17.5z M24.1,29.3c-0.5-0.4-0.8-0.7-0.7-1.2c0.2-0.7,0.9-1.3,1.5-1.3
		c0.8,0,3,2,3.7,2.6c1.2-0.8,2-1.5,3.1-2.4c0.3-0.3,0.6-0.5,1-0.5c0.6,0,1.1,0.5,0.9,1.2c-0.1,0.5-0.7,1-1.4,1.6
		c-0.7,0.6-1.4,1.1-2,1.6c0.6,0.7,1.1,1.2,1.6,2c0.2,0.3,0.3,0.5,0.2,0.9c-0.2,0.7-1,1.4-1.7,1.4c-0.6,0-1.1-0.9-1.8-1.9
		c-0.2-0.3-0.4-0.6-0.7-0.8c-1.8,1.1-3.7,2.2-5.7,2.9c-0.3,0.1-0.6,0.2-0.9,0.2c-0.7,0-1-0.7-0.8-1.4c0.2-0.6,0.5-0.9,1.1-1.1
		c1.6-0.6,3.2-1.2,4.7-2.1C25.3,30.1,24.6,29.7,24.1,29.3"/>
	<path class="st0" d="M57.4,21.3l-11.5,0c-0.6,0-1-0.6-0.8-1.3c0.2-0.7,0.9-1.3,1.5-1.3l10.4,0C56.8,19.7,56.9,20.6,57.4,21.3
		 M59.3,22.1c0.2,0,0.4,0,0.6,0c-0.8,2.5-1.6,5-3.1,7.4c-2.4,3.9-5.5,5.3-9.2,5.3c-1.5,0-2.9-0.3-4.1-0.9c-0.8-0.4-1.8-1-1.5-2
		c0.2-0.7,0.9-1.3,1.6-1.3c0.3,0,0.5,0.2,0.9,0.4c1.1,0.8,2.4,1.1,3.9,1.1c2.6,0,4.7-1,6.4-3.6c1.4-2.2,2.1-4.7,2.8-7
		C57.9,21.9,58.6,22.1,59.3,22.1 M59.5,21.2c-1.3,0-2-1.2-1.7-2.5c0.4-1.4,1.8-2.5,3-2.5c1.3,0,2.1,1.1,1.7,2.5
		C62.2,20.1,60.8,21.2,59.5,21.2 M60.5,17.5c-0.6,0-1.3,0.6-1.4,1.2c-0.2,0.6,0.2,1.2,0.8,1.2c0.6,0,1.3-0.6,1.4-1.2
		C61.5,18,61.1,17.5,60.5,17.5"/>
	<path class="st0" d="M76.2,32.6c-0.2,0.9-1.1,1.7-2,1.7l-11.6,0c-0.8,0-1.4-0.8-1.1-1.7L64.8,20c0.2-0.9,1.2-1.7,2-1.7l11.5,0
		c0.4,0,0.8,0.2,1,0.5c0.2,0.3,0.2,0.7,0.1,1.1L76.2,32.6z M67,20.8l-2.9,10.9l9.8,0l2.8-10.9L67,20.8z"/>
	<path class="st0" d="M82.3,26.3c-0.6,0-1-0.5-0.8-1.2c0.2-0.7,0.8-1.2,1.4-1.2l14.3,0c0.6,0,1,0.6,0.8,1.2
		c-0.2,0.7-0.8,1.2-1.4,1.2l-3.6,0c-0.7,2.3-1.7,4.9-3.8,6.6c-1.6,1.3-3.5,1.7-5.2,1.7c-1.1,0-4.1-0.4-3.7-2.1
		c0.2-0.7,0.9-1.3,1.5-1.3c0.2,0,0.4,0.1,0.8,0.2c0.7,0.3,1.3,0.4,2.1,0.4c1.5,0,3-0.4,4.2-1.9c0.8-1.1,1.3-2.5,1.7-3.7L82.3,26.3z
		 M84.7,20.8c-0.6,0-1-0.6-0.8-1.2c0.2-0.7,0.8-1.2,1.4-1.2l9.9,0l-0.1,0.6c-0.2,0.9,0.2,1.7,0.9,1.9L84.7,20.8z M97.8,18.9
		c-0.1,0.6-0.7,1-1.2,1c-0.5,0-0.8-0.5-0.7-1l0.5-1.9c0.1-0.5,0.7-1,1.2-1c0.6,0,0.8,0.4,0.7,1L97.8,18.9z M100.5,18.9
		c-0.1,0.6-0.7,1-1.2,1c-0.5,0-0.8-0.5-0.7-1l0.5-1.9c0.1-0.5,0.7-1,1.2-1c0.6,0,0.8,0.5,0.7,1.1L100.5,18.9z"/>
	<path class="st0" d="M111.4,31.9c0.6,0,1,0.5,0.8,1.2c-0.1,0.6-0.8,1.2-1.4,1.2l-11.8,0c-0.6,0-1-0.5-0.8-1.2
		c0.2-0.6,0.8-1.2,1.4-1.2l7,0l2.9-8.5l-6.7,0c-0.6,0-1-0.5-0.8-1.2c0.2-0.7,0.8-1.2,1.4-1.2l7.8,0c0.8,0,1.2,0.7,0.9,1.6l-3.2,9.3
		L111.4,31.9z"/>
	<path class="st0" d="M129.8,24.4c0.7,0,1.1,0.6,1,1.3c-0.2,0.7-0.9,1.4-1.5,1.4l-12.9,0c-0.7,0-1.1-0.6-0.9-1.3
		c0.1-0.5,0.4-0.9,0.9-1.2c0.2-0.1,0.5-0.2,0.7-0.2L129.8,24.4z"/>
	<path class="st0" d="M145.3,32.5c0.2,0.3,0.3,0.6,0.2,1.1c-0.1,0.7-0.8,1.3-1.5,1.3c-0.4,0-0.7-0.2-0.9-0.5l-2.4-4.4
		c-2.2,3-5.2,4.9-8.4,4.9c-1,0-2.1-0.2-2.9-0.8c-0.4-0.3-0.6-0.7-0.5-1.2c0.2-0.7,0.8-1.3,1.5-1.3c0.2,0,0.5,0.1,0.9,0.3
		c0.5,0.2,1,0.3,1.6,0.3c2.1,0,4.1-1.4,5.6-3.2c2-2.4,3.2-5.2,4-8l-9,0c-0.6,0-1-0.6-0.9-1.3c0.1-0.7,0.8-1.3,1.4-1.3l10.2,0
		c0.8,0,1.2,0.8,1.1,1.6c-0.2,0.9-0.5,1.8-1,3.3c-0.5,1.4-1.1,2.7-1.8,4.1L145.3,32.5z"/>
	<path class="st0" d="M20.7,12.4c-0.2,0.1-0.6,0.5-0.9,0.5c-0.2,0-0.4-0.2-0.4-0.5c0-0.2,0.1-0.3,0.3-0.4c0.7-0.4,1.3-0.9,1.7-1.6
		c0.2-0.4,0.3-0.7,0.4-1.1h-2c-0.3,0-0.4-0.1-0.4-0.4c0-0.3,0.2-0.4,0.4-0.4h2.1V7.4C21.8,7.1,22,7,22.3,7c0.2,0,0.4,0.1,0.4,0.4
		v1.1h2.2c0.3,0,0.4,0.1,0.4,0.4c0,0.3-0.2,0.4-0.4,0.4h-2c0.3,1.4,0.8,2.1,2.1,2.7c0.2,0.1,0.3,0.2,0.3,0.4c0,0.2-0.2,0.5-0.4,0.5
		c-0.3,0-1.1-0.6-1.3-0.9c-0.5-0.5-0.8-1-1.1-1.6C21.9,11.2,21.5,11.8,20.7,12.4"/>
	<path class="st0" d="M27.9,11.9c-0.3,0.3-1,0.9-1.3,0.9c-0.2,0-0.4-0.2-0.4-0.5c0-0.2,0.1-0.3,0.2-0.3c0.8-0.5,1.4-1,1.8-1.9
		c0.2-0.5,0.3-1,0.4-1.5c0-0.1,0-0.5,0-0.6V7.5c0-0.3,0.2-0.4,0.4-0.4c0.3,0,0.4,0.1,0.4,0.4V8c0,0.7,0.1,1.5,0.4,2.1
		c0.4,0.8,1,1.4,1.8,1.8c0.2,0.1,0.3,0.2,0.3,0.4c0,0.2-0.2,0.5-0.5,0.5c-0.4,0-1.2-0.8-1.5-1.1c-0.5-0.6-0.8-1.2-1-1.9
		C28.9,10.7,28.5,11.3,27.9,11.9"/>
	<path class="st0" d="M38.4,7.4c0.2,0,0.4,0.1,0.4,0.3c0,0.2-0.2,0.3-0.4,0.3h-3.8c-0.1,0.1-0.2,0.3-0.3,0.4
		c0.1-0.1,0.1-0.1,0.2-0.1H38c0.2,0,0.3,0.1,0.3,0.3c0,0.2-0.1,0.3-0.3,0.3h-3.5c-0.2,0-0.3-0.1-0.3-0.3c0-0.1,0-0.1,0-0.2
		c-0.2,0.3-0.4,0.6-0.7,0.8h3.6c0.4,0,0.7,0.1,0.7,0.6c0,0.4,0,0.8,0,1.2v0.1c0,0.2,0,0.8,0.2,0.8c0.1,0,0.1-0.1,0.2-0.2
		c0.1-0.2,0.2-0.3,0.3-0.3c0.2,0,0.3,0.1,0.3,0.3c0,0.3-0.4,1.1-1,1.1c-0.3,0-0.5-0.2-0.6-0.4c-0.2-0.4-0.2-0.9-0.2-1.3
		c0-0.3,0-0.6,0-0.9c0-0.1,0-0.3-0.3-0.3h-3.3c-0.2,0-0.4-0.1-0.4-0.3c0-0.1,0-0.2,0.1-0.2c-0.2,0-0.3-0.2-0.3-0.4
		c0-0.1,0.1-0.2,0.2-0.3C33.5,8.4,33.8,8,34,7.5C34.2,7.2,34.3,7,34.6,7C34.7,7,35,7.1,35,7.3c0,0.1,0,0.1,0,0.2H38.4z M33.8,11
		c-0.2-0.1-0.3-0.2-0.3-0.4c0-0.2,0.2-0.4,0.4-0.4c0.3,0,1.2,0.6,1.5,0.8c0.3-0.2,0.5-0.4,0.8-0.7c0.1-0.1,0.1-0.1,0.3-0.1
		c0.2,0,0.4,0.2,0.4,0.4c0,0.2-0.1,0.3-0.3,0.5c-0.2,0.2-0.3,0.3-0.5,0.5c0.3,0.2,0.5,0.4,0.7,0.6c0.1,0.1,0.1,0.2,0.1,0.3
		c0,0.2-0.2,0.4-0.4,0.4c-0.2,0-0.4-0.3-0.8-0.6c-0.1-0.1-0.2-0.2-0.3-0.2c-0.5,0.3-1,0.6-1.6,0.9c-0.1,0-0.2,0.1-0.3,0.1
		c-0.2,0-0.4-0.2-0.4-0.4c0-0.2,0.1-0.3,0.2-0.3c0.5-0.2,0.9-0.4,1.3-0.6C34.3,11.2,34,11.1,33.8,11"/>
	<path class="st0" d="M43.1,10.5h2.2c0.2,0,0.3,0.1,0.3,0.3c0,0.2-0.1,0.3-0.3,0.3h-1.7c0.1,0.1,0.2,0.2,0.3,0.3
		c0.3,0.2,0.7,0.4,1,0.5c0.6,0.1,0.7,0.2,0.7,0.4c0,0.2-0.1,0.5-0.4,0.5c-0.4,0-1.1-0.3-1.5-0.5c-0.4-0.2-0.8-0.6-1-1
		c-0.3,0.5-0.7,0.9-1.2,1.2c-0.3,0.1-0.9,0.4-1.2,0.4c-0.2,0-0.4-0.2-0.4-0.4c0-0.2,0.1-0.3,0.7-0.4c0.5-0.1,1.1-0.4,1.4-0.9h-1.7
		c-0.2,0-0.3-0.1-0.3-0.3c0-0.2,0.1-0.3,0.3-0.3h2c0-0.1,0-0.2,0.1-0.3h-2.2c-0.2,0-0.3-0.1-0.3-0.3c0-0.2,0.1-0.3,0.3-0.3h2.2V9.2
		h-1.8c-0.2,0-0.3-0.1-0.3-0.3c0-0.2,0.1-0.3,0.3-0.3h1.8V8.3h-2c-0.2,0-0.3-0.1-0.3-0.3c0-0.2,0.1-0.3,0.3-0.3h1
		c0-0.1-0.1-0.3-0.1-0.3c0-0.2,0.3-0.3,0.5-0.3c0.1,0,0.3,0,0.3,0.2c0.1,0.1,0.1,0.3,0.2,0.4h1.1c0.1-0.2,0.1-0.3,0.2-0.4
		C43.7,7.1,43.7,7,44,7c0.1,0,0.4,0.1,0.4,0.2c0,0.1-0.1,0.3-0.1,0.3h1c0.2,0,0.3,0.1,0.3,0.3c0,0.2-0.1,0.3-0.3,0.3h-2v0.3H45
		c0.2,0,0.3,0.1,0.3,0.3c0,0.2-0.1,0.3-0.3,0.3h-1.8v0.3h2.2c0.2,0,0.3,0.1,0.3,0.3c0,0.2-0.1,0.3-0.3,0.3h-2.3
		C43.2,10.3,43.1,10.4,43.1,10.5"/>
	<path class="st0" d="M47.2,11.1c-0.2,0-0.3-0.2-0.3-0.4c0-0.2,0.1-0.3,0.3-0.3c0.8-0.3,1.3-0.5,1.9-1c0.2-0.2,0.3-0.3,0.7-0.3
		c0.3,0,0.4,0.1,0.6,0.3c0.7,0.6,1.1,0.8,2,1c0.2,0.1,0.3,0.1,0.3,0.3c0,0.2-0.1,0.4-0.4,0.4c-0.1,0-0.2,0-0.4-0.1
		c0,0.1,0,0.2,0,0.3v0.8c0,0.5-0.2,0.7-0.7,0.7h-2.9c-0.5,0-0.7-0.2-0.7-0.7v-0.8c0-0.1,0-0.2,0-0.3C47.4,11.1,47.3,11.1,47.2,11.1
		 M51.9,7.5c0.5,0,0.7,0.2,0.7,0.7v0.4c0,0.2-0.1,0.4-0.4,0.4c-0.2,0-0.4-0.1-0.4-0.4V8.4c0-0.1-0.1-0.2-0.2-0.2H48
		c-0.1,0-0.2,0.1-0.2,0.2v0.3c0,0.3-0.2,0.3-0.4,0.3C47.1,9,47,8.9,47,8.7V8.2c0-0.5,0.2-0.7,0.7-0.7h1.6V7.3C49.4,7,49.6,7,49.8,7
		c0.2,0,0.4,0.1,0.4,0.3v0.2H51.9z M49.2,8.9c-0.2,0.1-0.5,0.4-0.7,0.5c-0.2,0.1-0.8,0.5-1,0.5c-0.2,0-0.3-0.2-0.3-0.4
		c0-0.2,0.1-0.2,0.2-0.3C48,9,48.2,8.9,48.7,8.5c0.1-0.1,0.2-0.1,0.3-0.1c0.2,0,0.3,0.2,0.3,0.3C49.3,8.8,49.3,8.8,49.2,8.9
		 M48.6,11.3c-0.1,0-0.2,0.1-0.2,0.2V12c0,0.1,0.1,0.2,0.2,0.2H51c0.1,0,0.2-0.1,0.2-0.2v-0.5c0-0.1-0.1-0.2-0.2-0.2H48.6z M51,10.6
		c-0.3-0.2-0.9-0.5-1.1-0.8c0,0-0.1,0-0.1,0c0,0-0.1,0-0.1,0.1c-0.3,0.3-0.7,0.6-1.1,0.8H51z M51.2,8.7c0.3,0.3,0.6,0.4,1,0.6
		c0.1,0.1,0.2,0.1,0.2,0.3c0,0.2-0.1,0.4-0.3,0.4c-0.2,0-0.8-0.3-1-0.5c-0.2-0.1-0.6-0.4-0.7-0.5c-0.1-0.1-0.1-0.1-0.1-0.2
		c0-0.2,0.2-0.3,0.4-0.3C50.9,8.4,51,8.5,51.2,8.7"/>
	<path class="st0" d="M55.1,9.6c-0.2,0.2-0.5,0.6-0.8,0.6c-0.2,0-0.4-0.2-0.4-0.4c0-0.2,0.1-0.3,0.2-0.4c0.4-0.3,0.6-0.8,0.8-1.2
		c0-0.2,0.1-0.3,0.2-0.4c0.1-0.1,0.2-0.1,0.4-0.1h3c0.3,0,0.5,0.1,0.6,0.4c0,0.1,0,0.2,0,0.4c0,0.3,0,0.7-0.1,1
		c-0.1,0.6-0.2,1.1-0.4,1.6c-0.5,1-1.4,1.6-2.5,1.6c-0.6,0-1.1-0.1-1.6-0.4c-0.2-0.1-0.3-0.2-0.3-0.4c0-0.2,0.2-0.4,0.4-0.4
		c0.1,0,0.2,0,0.4,0.2c0.3,0.2,0.7,0.3,1.1,0.3c1.9,0,2.2-1.9,2.2-3.4h-2.6C55.5,8.9,55.3,9.2,55.1,9.6"/>
	<path class="st0" d="M65.1,9.3c0,1.8-0.6,3.4-2.7,3.4c-0.5,0-1-0.1-1.4-0.3c-0.2-0.1-0.5-0.2-0.5-0.5c0-0.2,0.2-0.4,0.4-0.4
		c0.1,0,0.2,0,0.4,0.1c0.3,0.2,0.7,0.2,1.1,0.2c0.7,0,1.2-0.2,1.6-0.8c0.3-0.5,0.3-1.2,0.3-1.8V7.9c0-0.3,0.2-0.4,0.4-0.4
		c0.1,0,0.2,0.1,0.3,0.1c0.1,0.1,0.1,0.2,0.1,0.3V9.3z M61.3,10.1c0,0.2-0.2,0.4-0.4,0.4c-0.2,0-0.4-0.2-0.4-0.4V7.9
		c0-0.2,0.2-0.4,0.4-0.4c0.1,0,0.2,0.1,0.3,0.2c0.1,0.1,0.1,0.1,0.1,0.2V10.1z"/>
	<path class="st0" d="M69.3,11.7h1.9c0.2,0,0.4,0.2,0.4,0.4c0,0.2-0.2,0.4-0.4,0.4h-4.5c-0.2,0-0.4-0.2-0.4-0.4
		c0-0.2,0.2-0.4,0.4-0.4h1.8V8.7h-1.6c-0.2,0-0.4-0.2-0.4-0.4c0-0.2,0.2-0.4,0.4-0.4H71c0.2,0,0.4,0.2,0.4,0.4
		c0,0.2-0.2,0.4-0.4,0.4h-1.7V11.7z"/>
	<path class="st0" d="M75.8,12.3c0,0.2-0.2,0.4-0.4,0.4c-0.2,0-0.4-0.2-0.4-0.4V9.8c-0.5,0.1-1,0.2-1.6,0.2c-0.6,0-1-0.1-1-0.5
		c0-0.2,0.2-0.4,0.4-0.4c0.1,0,0.2,0,0.3,0c0.1,0,0.2,0,0.3,0c0.7,0,1.5-0.2,2.1-0.5c0.5-0.2,0.9-0.6,1.2-1c0.1-0.1,0.2-0.3,0.4-0.3
		c0.2,0,0.4,0.2,0.4,0.4c0,0.3-0.4,0.6-0.5,0.8c-0.4,0.4-0.8,0.7-1.3,0.9V12.3z"/>
	<path class="st0" d="M82.9,8.4h-2.5c-0.2,0.5-0.3,0.8-0.8,1.3c-0.2,0.2-0.5,0.4-0.7,0.4c-0.2,0-0.4-0.2-0.4-0.4
		c0-0.2,0.1-0.3,0.2-0.4c0.4-0.3,0.7-0.7,0.9-1.2c0.1-0.3,0.2-0.5,0.5-0.5h3.1c0.3,0,0.5,0.2,0.5,0.5c0,0.4,0,0.8-0.1,1.2
		c0,0.3-0.1,0.6-0.2,0.9l0.2,0.1c0.2,0,0.3,0.2,0.3,0.4c0,0.2-0.2,0.4-0.5,0.4L83.1,11c-0.5,1.1-1.3,1.7-2.5,1.7
		c-0.5,0-1.1-0.1-1.6-0.4c-0.2-0.1-0.3-0.2-0.3-0.4c0-0.2,0.2-0.4,0.4-0.4c0.1,0,0.1,0,0.2,0.1c0.4,0.2,0.9,0.3,1.3,0.3
		c0.8,0,1.4-0.3,1.7-1.1l-1.9-0.5c-0.2,0-0.3-0.2-0.3-0.4c0-0.3,0.2-0.4,0.5-0.4l1.9,0.5C82.8,9.5,82.8,9,82.9,8.4"/>
	<path class="st0" d="M89.8,9.5c0.2,0,0.4,0.2,0.4,0.4c0,0.2-0.2,0.4-0.4,0.4h-4.2c-0.2,0-0.4-0.2-0.4-0.4c0-0.1,0.1-0.3,0.2-0.3
		c0.1,0,0.1-0.1,0.2-0.1H89.8z"/>
	<path class="st0" d="M92.2,7.7c0-0.2,0.1-0.5,0.4-0.5c0.2,0,0.3,0.1,0.4,0.3l0.2,0.7C93.6,8.1,94.2,8,94.7,8l0.1-0.5
		c0-0.2,0.2-0.3,0.4-0.3c0.2,0,0.4,0.2,0.4,0.5L95.5,8c0.8,0.1,1.5,0.6,1.5,1.5c0,1-0.6,1.8-1.6,1.8c-0.3,0-0.9-0.1-0.9-0.5
		c0-0.2,0.2-0.4,0.4-0.4c0.1,0,0.1,0,0.2,0c0.2,0,0.2,0,0.3,0c0.6,0,0.9-0.4,0.9-1c0-0.5-0.4-0.7-0.8-0.8l-0.1,0.8
		c0,0.2-0.2,0.3-0.4,0.3c-0.3,0-0.4-0.2-0.4-0.5l0.1-0.6c-0.4,0.1-0.9,0.2-1.3,0.3l0.7,3.3c0,0.2-0.2,0.5-0.4,0.5
		c-0.2,0-0.4-0.1-0.4-0.3l-0.6-3.2c-0.2,0.1-0.6,0.2-0.7,0.2c-0.2,0-0.4-0.2-0.4-0.4c0-0.2,0.1-0.3,0.3-0.4c0.2-0.1,0.4-0.1,0.6-0.2
		L92.2,7.7z"/>
	<path class="st0" d="M100.9,9.8l-0.3,1.3c-0.1,0.4-0.2,0.9-0.5,1.1c-0.2,0.2-0.5,0.2-0.7,0.2c-0.9,0-1.4-0.7-1.4-1.5
		c0-1.4,1-1.9,2.2-1.9l0.2-0.9h-1.7c-0.2,0-0.4-0.2-0.4-0.3c0-0.2,0.2-0.4,0.4-0.4h2.1c0.2,0,0.4,0.1,0.4,0.4c0,0,0,0.1,0,0.1
		l-0.2,1.1c0.4,0,0.9,0.1,1.3,0.3c0-0.2,0-0.5,0-0.7c0-0.1,0-0.3,0-0.4c0-0.2,0.2-0.4,0.4-0.4c0.2,0,0.4,0.2,0.4,0.4
		c0,0.3,0,0.7,0,1.1c0,0.1,0,0.2,0,0.4c0.5,0.3,0.6,0.4,0.6,0.6c0,0.2-0.2,0.4-0.4,0.4c-0.1,0-0.2,0-0.3-0.1
		c-0.1,0.6-0.3,1.2-0.7,1.6c-0.2,0.2-0.6,0.5-0.9,0.5c-0.2,0-0.4-0.2-0.4-0.4c0-0.2,0.1-0.3,0.3-0.4c0.7-0.3,0.9-0.8,1-1.7
		C101.9,10,101.4,9.9,100.9,9.8 M98.9,11c0,0.3,0.2,0.8,0.6,0.8c0.1,0,0.2,0,0.3-0.1c0.1-0.1,0.1-0.3,0.2-0.5l0.3-1.4
		C99.4,9.9,98.9,10.1,98.9,11"/>
	<path class="st0" d="M104.6,8.7c-0.2,0-0.4-0.2-0.4-0.4c0-0.2,0.2-0.4,0.4-0.4h1.1l0.2-0.5c0-0.1,0.2-0.2,0.3-0.2
		c0.2,0,0.4,0.2,0.4,0.4c0,0,0,0.1,0,0.1L106.5,8h2.7c0.2,0,0.4,0.1,0.4,0.4c0,0.2-0.2,0.4-0.4,0.4h-3l-0.3,1
		c0.5-0.2,0.9-0.3,1.4-0.3c1,0,2.2,0.3,2.2,1.6c0,1.3-1.3,1.7-2.4,1.7c-0.6,0-1.2-0.1-1.8-0.4c-0.2-0.1-0.4-0.2-0.4-0.5
		c0-0.2,0.2-0.4,0.3-0.4c0.1,0,0.2,0,0.3,0.1c0.4,0.2,1,0.4,1.5,0.4c0.6,0,1.7-0.2,1.7-1c0-0.8-0.9-0.9-1.5-0.9
		c-0.6,0-1.2,0.2-1.7,0.5c-0.1,0.1-0.2,0.1-0.4,0.1c-0.2,0-0.3-0.2-0.3-0.4c0,0,0-0.1,0-0.1l0.5-1.5H104.6z"/>
	<path class="st0" d="M110.8,8.5C110.8,8.4,110.8,8.4,110.8,8.5c0-0.3,0.2-0.4,0.3-0.4c0.2,0,0.3,0.1,0.3,0.3l0.1,0.6
		c0.5-0.1,0.9-0.2,1.3-0.3l0.1-0.4c0-0.2,0.2-0.3,0.3-0.3c0.2,0,0.4,0.2,0.3,0.4l0,0.2c0.7,0.1,1.2,0.6,1.2,1.3
		c0,0.9-0.5,1.6-1.4,1.6c-0.2,0-0.4,0-0.6-0.1c-0.1,0-0.2-0.1-0.2-0.3c0-0.2,0.2-0.3,0.3-0.3c0.1,0,0.1,0,0.2,0c0.1,0,0.2,0,0.3,0
		c0.3,0,0.5-0.1,0.6-0.4c0-0.1,0.1-0.3,0.1-0.4c0-0.4-0.3-0.6-0.6-0.7l-0.1,0.7c0,0.2-0.2,0.3-0.3,0.3c-0.2,0-0.4-0.2-0.4-0.4
		l0.1-0.5c-0.4,0.1-0.7,0.1-1.1,0.2l0.6,2.7c0,0.2-0.1,0.4-0.4,0.4c-0.2,0-0.3-0.1-0.4-0.3l-0.5-2.7c-0.2,0-0.4,0.2-0.6,0.2
		c-0.2,0-0.3-0.2-0.3-0.4c0-0.1,0.1-0.2,0.2-0.3c0.1-0.1,0.4-0.1,0.6-0.2L110.8,8.5z"/>
	<path class="st0" d="M117.9,9.3c0.6,0,1,0.3,1,1c0,0.1,0,0.4-0.1,0.6c0,0.2-0.1,0.4-0.1,0.6c0,0.3,0.2,0.5,0.6,0.5
		c0.7,0,0.9-0.7,0.9-1.3c0-0.2,0-0.4-0.1-0.6c0-0.1,0-0.2,0-0.2c0-0.2,0.2-0.4,0.4-0.4c0.2,0,0.3,0.1,0.4,0.3
		c0.1,0.3,0.1,0.5,0.1,0.8c0,1.1-0.4,2.1-1.7,2.1c-0.7,0-1.3-0.4-1.3-1.2c0-0.1,0-0.5,0.1-0.8c0-0.1,0-0.2,0-0.3
		c0-0.2-0.1-0.3-0.3-0.3c-0.4,0-0.7,0.2-0.9,0.5c-0.2,0.2-0.3,0.5-0.3,0.8l-0.2,0.9c0,0.2-0.2,0.3-0.4,0.3c-0.2,0-0.4-0.2-0.4-0.4
		c0,0,0-0.1,0-0.1l1.1-4.6c0-0.2,0.2-0.3,0.4-0.3c0.2,0,0.4,0.2,0.4,0.4c0,0,0,0.1,0,0.1L117,9.6C117.3,9.4,117.6,9.3,117.9,9.3"/>
	<path class="st0" d="M125.4,8.5c0,0.2-0.1,1-0.2,1.2c-0.1,0.5-0.2,1-0.3,1.5c-0.2,0.7-0.4,1.2-1.2,1.2c-0.5,0-0.8-0.2-1.1-0.6
		c-0.4-0.4-0.5-1-0.5-1.6c0-1.7,1.2-2.9,2.8-2.9c0.8,0,1.6,0.3,2.2,0.9c0.4,0.5,0.6,1,0.6,1.7c0,0.7-0.2,1.4-0.7,2
		c-0.4,0.4-0.9,0.7-1.4,0.7c-0.2,0-0.4-0.2-0.4-0.4c0-0.1,0.1-0.3,0.2-0.3c0.1-0.1,0.2-0.1,0.3-0.1c0.9-0.2,1.3-0.9,1.3-1.8
		c0-1.1-0.7-1.7-1.7-1.8C125.4,8.2,125.4,8.4,125.4,8.5 M123.5,8.7c-0.4,0.4-0.6,1-0.6,1.5c0,0.4,0.1,0.9,0.4,1.2
		c0.1,0.1,0.3,0.2,0.4,0.2c0.1,0,0.3,0,0.3-0.2c0.1-0.2,0.2-0.5,0.2-0.7c0.2-0.7,0.3-1.4,0.4-2.2c0-0.2,0.1-0.4,0.3-0.4
		C124.4,8.2,123.9,8.4,123.5,8.7"/>
	<path class="st2" d="M37.7,1.2l1.1-0.1c0.1,0,0.3,0,0.4,0c0.2,0,0.3,0.1,0.3,0.3c0,0.2-0.1,0.2-0.2,0.3l-1.5,0.1v0.5L39,2.2
		c0.1,0,0.3,0,0.3,0c0.2,0,0.3,0.1,0.3,0.3c0,0.2-0.1,0.2-0.2,0.3l-1.7,0.1v0.6c0,0.1,0.1,0.1,0.2,0.1h0.9c0.2,0,0.2,0,0.2-0.2
		c0,0,0-0.1,0-0.2c0-0.1,0-0.3,0.2-0.3c0.2,0,0.3,0.1,0.3,0.3c0,0.1,0,0.5-0.1,0.6c-0.1,0.2-0.3,0.2-0.6,0.2h-1.2
		c-0.5,0-0.6-0.1-0.6-0.5V2.8l-1,0c-0.1,0-0.3,0-0.4,0c-0.2,0-0.3-0.1-0.3-0.3c0-0.2,0.1-0.2,0.2-0.3l1.4-0.1V1.8l-0.9,0
		c-0.1,0-0.2,0-0.3,0c-0.2,0-0.3-0.1-0.3-0.3c0-0.2,0.1-0.2,0.2-0.3l1.2-0.1V0.8c-0.2,0-0.8,0-1,0h0c-0.2,0-0.4,0-0.4-0.3
		c0-0.2,0.1-0.2,0.3-0.3c0.1,0,0.3,0,0.4,0c0.7,0,1.6-0.1,2.3-0.2c0.1,0,0.4-0.1,0.5-0.1c0.2,0,0.2,0.1,0.2,0.3
		c0,0.2-0.1,0.2-0.2,0.3c-0.4,0.1-1,0.1-1.5,0.2V1.2z"/>
	<path class="st2" d="M43,1.5c0,0.1-0.1,0.5-0.1,0.7c-0.1,0.3-0.2,0.7-0.4,1C42.3,3.5,42,3.8,41.7,4c-0.1,0-0.1,0.1-0.2,0.1
		c-0.2,0-0.3-0.2-0.3-0.3c0-0.1,0.1-0.2,0.2-0.2c0.7-0.5,0.9-1.2,1-2c0-0.2,0.1-0.2,0.3-0.2C42.8,1.3,43,1.4,43,1.5 M44.7,0.5
		c0.4,0,0.5,0.1,0.5,0.5v0.5c0,0.2-0.1,0.3-0.3,0.3c-0.2,0-0.3-0.1-0.3-0.3V1.1c0-0.1,0-0.2-0.1-0.2H42c-0.1,0-0.1,0.1-0.1,0.2v0.3
		c0,0.2-0.1,0.3-0.3,0.3c-0.2,0-0.3-0.1-0.3-0.3V1c0-0.4,0.1-0.5,0.5-0.5H43V0.2C43,0,43.1,0,43.3,0c0.2,0,0.3,0.1,0.3,0.2v0.2H44.7
		z M43.9,1.3c0.2,0,0.2,0.1,0.3,0.3c0.1,0.8,0.4,1.5,1,2c0.1,0.1,0.2,0.1,0.2,0.2c0,0.2-0.2,0.3-0.3,0.3c-0.3,0-0.8-0.7-0.9-1
		c-0.2-0.3-0.3-0.7-0.4-1.1c0-0.1-0.1-0.4-0.1-0.5C43.6,1.4,43.8,1.3,43.9,1.3"/>
	<path class="st2" d="M48.9,1c0,0.2-0.1,0.7-0.1,0.9c-0.1,0.3-0.1,0.7-0.2,1c-0.1,0.5-0.3,0.9-0.9,0.9c-0.3,0-0.6-0.2-0.8-0.4
		c-0.2-0.3-0.3-0.7-0.3-1.1c0-1.2,0.8-2,2-2c0.6,0,1.2,0.2,1.5,0.6c0.3,0.3,0.4,0.7,0.4,1.2c0,0.5-0.1,1-0.5,1.4
		c-0.2,0.3-0.6,0.5-1,0.5c-0.2,0-0.3-0.1-0.3-0.3c0-0.1,0-0.2,0.1-0.2c0.1,0,0.1-0.1,0.2-0.1C49.7,3.2,50,2.7,50,2.1
		c0-0.7-0.5-1.2-1.2-1.3C48.8,0.8,48.9,0.9,48.9,1 M47.5,1.2c-0.3,0.3-0.4,0.7-0.4,1.1c0,0.3,0.1,0.6,0.3,0.8
		c0.1,0.1,0.2,0.1,0.3,0.1c0.1,0,0.2,0,0.2-0.1C48,3,48,2.8,48.1,2.6c0.1-0.5,0.2-1,0.3-1.5c0-0.2,0.1-0.3,0.2-0.3
		C48.2,0.8,47.8,1,47.5,1.2"/>
	<path class="st2" d="M51.9,3.4c0.1-0.2,0.3-0.6,0.4-0.8c0-0.1,0.1-0.2,0.2-0.2c0.1,0,0.3,0.1,0.3,0.2c0,0.2-0.3,0.8-0.4,1
		C52.4,3.7,52.2,4,52.1,4c0,0-0.1,0.1-0.1,0.1c-0.1,0-0.3-0.1-0.3-0.3C51.7,3.7,51.8,3.5,51.9,3.4 M52.5,2.1c-0.1,0-0.1-0.1-0.2-0.1
		c-0.1-0.1-0.2-0.1-0.3-0.2c-0.2-0.1-0.2-0.1-0.2-0.3c0-0.1,0.1-0.3,0.3-0.3c0.1,0,0.3,0.1,0.4,0.2c0.2,0.1,0.4,0.2,0.4,0.4
		S52.6,2.1,52.5,2.1 M52.7,0.3c0.1,0.1,0.2,0.1,0.2,0.3c0,0.1-0.1,0.3-0.3,0.3c-0.1,0-0.1,0-0.3-0.1c-0.1-0.1-0.2-0.2-0.3-0.2
		c-0.1-0.1-0.2-0.1-0.2-0.2C51.8,0.2,52,0,52.1,0C52.2,0,52.5,0.2,52.7,0.3 M55.6,1.2c0.2,0,0.3,0.1,0.3,0.3c0,0.2-0.1,0.2-0.3,0.2
		h-1.4c0,0.1-0.1,0.3-0.1,0.4c0,0.1,0.1,0.1,0.1,0.1h1c0.3,0,0.5,0.1,0.5,0.4c0,0.2-0.1,0.6-0.1,0.8c0,0.2-0.1,0.4-0.2,0.6
		c-0.1,0.2-0.4,0.2-0.6,0.2h-0.3c-0.2,0-0.4,0-0.5,0c-0.1,0-0.1-0.1-0.1-0.2c0-0.2,0.1-0.3,0.3-0.3c0.2,0,0.3,0,0.5,0
		c0.2,0,0.2,0,0.3-0.2C55,3.3,55,2.9,55,2.7c0-0.1-0.1-0.1-0.1-0.1h-1c-0.3,0-0.4-0.1-0.4-0.4c0-0.1,0.1-0.5,0.2-0.6h-0.5
		c-0.2,0-0.3-0.1-0.3-0.3c0-0.2,0.1-0.2,0.3-0.2h0.6c0-0.2,0.1-0.3,0.1-0.5h-0.6c-0.2,0-0.3-0.1-0.3-0.3c0-0.2,0.1-0.2,0.3-0.2h2.2
		c0.2,0,0.3,0.1,0.3,0.3c0,0.2-0.1,0.2-0.3,0.2h-1c0,0.2-0.1,0.3-0.1,0.5H55.6z"/>
	<path class="st2" d="M59.9,0.5c0.5,0,1.1,0.3,1.1,0.9c0,0.2-0.1,0.6-0.3,1c-0.1,0.2-0.2,0.5-0.2,0.7c0,0.1,0.1,0.2,0.2,0.2
		c0.1,0,0.2,0,0.2-0.1c0,0,0.1,0,0.1,0c0.1,0,0.3,0.1,0.3,0.3c0,0.3-0.4,0.4-0.7,0.4c-0.5,0-0.7-0.3-0.7-0.8c0-0.2,0.1-0.7,0.3-1
		c0.1-0.2,0.2-0.5,0.2-0.6c0-0.3-0.3-0.4-0.6-0.4c-0.2,0-0.5,0.1-0.7,0.2c-0.2,0.1-0.4,0.3-0.6,0.5v2.1c0,0.1-0.1,0.3-0.3,0.3
		c-0.2,0-0.3-0.1-0.3-0.3V2.8C58,3,57.7,3.1,57.6,3.1c-0.1,0-0.3-0.1-0.3-0.3c0-0.1,0.1-0.2,0.2-0.3c0.2-0.1,0.4-0.2,0.6-0.3V1.3
		h-0.5c-0.1,0-0.3-0.1-0.3-0.3c0-0.1,0.1-0.3,0.3-0.3h0.5V0.4c0-0.1,0.1-0.3,0.3-0.3c0.1,0,0.3,0.1,0.3,0.3v0.5
		C59,0.7,59.5,0.5,59.9,0.5"/>
	<path class="st2" d="M66.2,1.7c0.1,0,0.2,0.1,0.2,0.2c0,0.2-0.1,0.2-0.3,0.3c-0.2,0-0.4,0.1-0.6,0.1l0,0.5c0,0.2-0.1,0.3-0.2,0.3
		c-0.1,0-0.3-0.1-0.3-0.3l0-0.4c-0.3,0.1-1,0.2-1,0.6c0,0.4,0.5,0.4,0.8,0.4c0.2,0,0.3,0,0.5,0c0.2,0,0.4-0.1,0.6-0.2
		c0,0,0.1,0,0.1,0c0.1,0,0.2,0.1,0.2,0.3c0,0.2-0.1,0.2-0.3,0.3C65.8,4,65.3,4,65,4c-0.4,0-0.8-0.1-1.1-0.3
		c-0.2-0.1-0.3-0.4-0.3-0.6c0-0.4,0.3-0.7,0.6-0.9C64.4,2.1,64.7,2,65,1.9c-0.1-0.1-0.3-0.2-0.4-0.2c-0.2,0-0.5,0-0.7,0.2
		c-0.2,0.1-0.3,0.3-0.5,0.6l-0.1,0.1c-0.1,0.1-0.1,0.2-0.2,0.2c-0.1,0-0.3-0.1-0.3-0.3c0-0.1,0-0.1,0.1-0.2L63.8,1H63
		c-0.1,0-0.2-0.1-0.2-0.2c0-0.1,0.1-0.2,0.3-0.2h1.1l0.2-0.3c0-0.1,0.1-0.1,0.2-0.1c0.1,0,0.3,0.1,0.3,0.3c0,0,0,0.1,0,0.1l0,0H66
		c0.1,0,0.3,0.1,0.3,0.2C66.3,0.9,66.2,1,66,1h-1.6l-0.2,0.4c0.2,0,0.3-0.1,0.5-0.1c0.4,0,0.8,0.1,0.9,0.5
		C65.7,1.8,66.2,1.7,66.2,1.7"/>
	<path class="st2" d="M71.1,1.6c0,0.9,0,1.2-0.2,1.6C70.7,3.8,70,4,69.3,4c-0.2,0-0.4,0-0.6,0c-0.1,0-0.2-0.1-0.2-0.3
		c0-0.1,0.1-0.3,0.2-0.3c0.1,0,0.1,0,0.2,0c0.1,0,0.3,0,0.4,0c0.4,0,0.9-0.1,1.1-0.5C70.3,3,70.1,3,69.8,3c-0.6,0-1.4-0.1-1.4-0.9
		c0-0.7,0.8-0.8,1.4-0.8c0.2,0,0.5,0,0.7,0.1l0-0.4h-2.3C68.1,1.1,68,1,68,0.8c0-0.1,0.1-0.3,0.3-0.3h2.2l0-0.2
		c0-0.2,0.1-0.3,0.3-0.3c0.1,0,0.3,0.1,0.3,0.3l0,0.2h0.5c0.1,0,0.3,0.1,0.3,0.3c0,0.1-0.1,0.3-0.3,0.3h-0.4L71.1,1.6z M69.8,1.8
		c-0.2,0-0.8,0-0.8,0.3c0,0.3,0.4,0.4,0.8,0.4c0.3,0,0.8,0,0.8-0.3v0C70.6,1.9,70.3,1.8,69.8,1.8"/>
	<path class="st2" d="M73.6,1.2c0.1,0,0.4-0.1,0.5-0.1c0.3,0,0.5,0,0.8,0c0.4,0,0.7,0,1.1,0.2c0.4,0.2,0.5,0.6,0.5,1.1
		c0,1-0.8,1.5-1.7,1.5c-0.3,0-1.2-0.1-1.2-0.4c0-0.1,0.1-0.2,0.2-0.2c0.1,0,0.1,0,0.2,0c0.2,0.1,0.5,0.1,0.7,0.1
		c0.6,0,1.1-0.3,1.1-1c0-0.7-0.5-0.8-1.1-0.8c-0.4,0-0.8,0-1.1,0.1c-0.1,0-0.1,0-0.2,0c-0.1,0-0.2-0.1-0.2-0.3
		C73.4,1.3,73.5,1.3,73.6,1.2"/>
	<path class="st2" d="M80.7,1.6l1.1-0.1c0.1,0,0.3,0.1,0.3,0.3C82.1,1.9,82,2,81.8,2l-1,0.1L81,2.4c0,0,0,0.1,0,0.1
		c0,0.1-0.1,0.3-0.3,0.3c-0.1,0-0.2-0.1-0.2-0.2l-0.1-0.5l-1.7,0.1c-0.2,0-0.3-0.1-0.3-0.3c0-0.2,0.1-0.2,0.3-0.3l1.5-0.1L80,1.1
		l-1.4,0.1c-0.2,0-0.3-0.1-0.3-0.3c0-0.1,0.1-0.3,0.3-0.3l1.3-0.1l0-0.1c0,0,0-0.1,0-0.1c0-0.1,0.1-0.3,0.3-0.3
		c0.1,0,0.2,0.1,0.2,0.2l0.1,0.3l1.4-0.1c0.2,0,0.3,0.1,0.3,0.3C82,0.9,81.9,1,81.8,1l-1.2,0.1L80.7,1.6z M79.1,2.8
		C79.1,2.8,79.1,2.8,79.1,2.8c0,0.3,0.2,0.5,0.4,0.6c0.2,0.1,0.5,0.1,0.7,0.1c0.4,0,0.8-0.1,1.2-0.3c0.1,0,0.1-0.1,0.2-0.1
		c0.1,0,0.3,0.1,0.3,0.3c0,0.2-0.3,0.3-0.4,0.4C81.1,3.9,80.6,4,80.2,4c-0.4,0-0.9-0.1-1.3-0.3c-0.3-0.2-0.4-0.4-0.4-0.8
		c0-0.2,0.1-0.4,0.3-0.4C79,2.5,79.1,2.6,79.1,2.8"/>
	<path class="st2" d="M84.5,2.2c0,0.2-0.1,0.3-0.3,0.3c-0.2,0-0.3-0.1-0.3-0.3V0.7c0-0.2,0.1-0.3,0.3-0.3c0.1,0,0.2,0,0.2,0.1
		c0.1,0.1,0.1,0.1,0.1,0.2V2.2z M85.9,1c-0.1,0-0.1,0-0.2,0c-0.1,0-0.3-0.1-0.3-0.3c0-0.3,0.5-0.4,0.8-0.4c0.4,0,0.6,0.1,0.8,0.5
		c0.1,0.3,0.1,0.7,0.1,1c0,1.2-0.5,2.1-1.8,2.1c-0.3,0-1.3-0.1-1.3-0.5c0-0.1,0.1-0.3,0.3-0.3c0,0,0.1,0,0.2,0
		c0.3,0.1,0.5,0.2,0.8,0.2c1,0,1.3-0.7,1.3-1.6c0-0.2,0-0.6-0.1-0.8c-0.1-0.1-0.2-0.2-0.3-0.2C86.1,0.9,86,0.9,85.9,1"/>
	<path class="st2" d="M91.2,0.3h1c0.4,0,0.6,0,0.6,0.5c0,0.2,0,0.5-0.1,0.7c-0.1,0.5-0.3,1-0.5,1.4c0.2,0.3,0.3,0.4,0.6,0.6
		c0.1,0.1,0.1,0.1,0.1,0.2c0,0.2-0.1,0.3-0.3,0.3c-0.2,0-0.6-0.5-0.7-0.7c-0.2,0.2-0.3,0.4-0.5,0.5C91.3,4,91.2,4,91.1,4
		c-0.2,0-0.3-0.1-0.3-0.3c0-0.1,0.1-0.2,0.2-0.3c0.2-0.2,0.4-0.3,0.5-0.5c-0.1-0.3-0.3-0.5-0.3-0.8C91.1,1.9,91,1.4,91,1.2
		C91,1,91.1,1,91.3,1c0.2,0,0.2,0.1,0.2,0.2c0.1,0.4,0.2,0.8,0.3,1.2c0.2-0.3,0.3-0.7,0.3-1.1c0-0.1,0.1-0.3,0.1-0.4
		c0-0.1-0.1-0.1-0.2-0.1h-0.9c-0.2,0-0.3-0.1-0.3-0.2v0c-0.1,0-0.1,0-0.2,0v3.3c0,0.2-0.1,0.3-0.3,0.3c-0.2,0-0.2-0.1-0.2-0.3V3.4
		c-0.2,0.1-1,0.3-1.2,0.3c-0.2,0-0.2-0.1-0.2-0.3c0-0.2,0.2-0.2,0.3-0.3V0.6H89c-0.2,0-0.2-0.1-0.2-0.2c0-0.2,0.1-0.2,0.2-0.2h1.7
		c0.2,0,0.2,0.1,0.2,0.2v0C91.1,0.4,91.1,0.3,91.2,0.3 M89.6,1.1h0.6V0.6h-0.6V1.1z M89.6,2h0.6V1.6h-0.6V2z M90.3,2.9V2.5h-0.6V3
		C89.8,3,90,3,90.3,2.9"/>
	<path class="st2" d="M95.1,2.2c0,0.2-0.1,0.3-0.3,0.3c-0.2,0-0.3-0.1-0.3-0.3V0.7c0-0.2,0.1-0.3,0.3-0.3c0.1,0,0.2,0,0.2,0.1
		c0.1,0.1,0.1,0.1,0.1,0.2V2.2z M96.5,1c-0.1,0-0.1,0-0.2,0c-0.1,0-0.3-0.1-0.3-0.3c0-0.3,0.5-0.4,0.8-0.4c0.4,0,0.6,0.1,0.8,0.5
		c0.1,0.3,0.1,0.7,0.1,1C97.8,3.1,97.3,4,96,4c-0.3,0-1.3-0.1-1.3-0.5c0-0.1,0.1-0.3,0.3-0.3c0,0,0.1,0,0.2,0
		c0.3,0.1,0.5,0.2,0.8,0.2c1,0,1.3-0.7,1.3-1.6c0-0.2,0-0.6-0.1-0.8C97.1,1,97,0.9,96.8,0.9C96.7,0.9,96.6,0.9,96.5,1"/>
	<path class="st2" d="M100.8,1.5c-0.1,0-0.2-0.1-0.3-0.2c0,0.1-0.1,0.1-0.1,0.2c0,0,0,0.1,0,0.1c0,0,0,0,0,0.1
		c0.2,0.3,0.3,0.6,0.3,1c0,0.2,0,0.4-0.2,0.5c-0.1,0.1-0.2,0.1-0.4,0.1c-0.1,0-0.2,0-0.3-0.1v0.8c0,0.2-0.1,0.3-0.3,0.3
		c-0.2,0-0.2-0.1-0.2-0.3V0.6c0-0.4,0.1-0.5,0.5-0.5h0.4c0.3,0,0.5,0,0.5,0.4c0,0.2,0,0.3-0.1,0.5c0.4-0.3,0.6-0.4,0.9-0.8
		c0.1-0.2,0.2-0.2,0.4-0.2c0.2,0,0.3,0,0.4,0.2c0.3,0.3,0.5,0.5,0.9,0.8c0.1,0.1,0.2,0.1,0.2,0.3c0,0.1-0.1,0.3-0.3,0.3
		c-0.1,0-0.2-0.1-0.3-0.1v0c0,0.2-0.1,0.2-0.3,0.2h-0.4V2h0.9c0.2,0,0.3,0.1,0.3,0.3c0,0.2-0.1,0.2-0.3,0.2h-0.9v1.1
		c0,0.4-0.1,0.5-0.3,0.5c-0.1,0-0.2,0-0.3,0h-0.1c-0.2,0-0.4,0-0.4-0.3c0-0.2,0.1-0.3,0.3-0.3h0.1c0.1,0,0.2,0,0.2-0.2V2.5H101
		c-0.2,0-0.3-0.1-0.3-0.3c0-0.2,0.1-0.2,0.3-0.2h0.7V1.7h-0.4c-0.2,0-0.3-0.1-0.3-0.2c0,0,0,0,0,0C101,1.5,100.9,1.5,100.8,1.5
		 M100.1,2.7c0.1,0,0.1,0,0.1-0.1c0-0.1,0-0.1,0-0.2c0-0.2-0.1-0.4-0.2-0.6C100,1.7,100,1.7,100,1.6c0-0.1,0-0.2,0.1-0.4
		c0-0.1,0.2-0.4,0.2-0.5c0,0,0-0.1-0.1-0.1H100c-0.1,0-0.1,0-0.1,0.1v2.1C100,2.8,100,2.8,100.1,2.7 M101.4,3.1
		c-0.1,0.3-0.3,0.7-0.5,0.8c0,0-0.1,0.1-0.1,0.1c-0.1,0-0.3-0.1-0.3-0.3c0-0.1,0.1-0.2,0.2-0.3c0.1-0.2,0.2-0.3,0.3-0.5
		c0.1-0.1,0.1-0.2,0.2-0.2c0.1,0,0.3,0.1,0.3,0.2C101.4,2.9,101.4,3,101.4,3.1 M102.6,1.2c-0.2-0.2-0.4-0.4-0.5-0.6
		c0,0,0-0.1-0.1-0.1c0,0,0,0-0.1,0.1c-0.1,0.2-0.4,0.4-0.5,0.6H102.6z M102.8,2.7c0.1,0,0.2,0.1,0.3,0.3c0.1,0.2,0.2,0.3,0.3,0.6
		c0,0.1,0.1,0.1,0.1,0.2c0,0.2-0.2,0.3-0.3,0.3c-0.1,0-0.1,0-0.2-0.1c-0.1-0.1-0.2-0.3-0.2-0.4c-0.1-0.2-0.2-0.4-0.2-0.5
		C102.5,2.7,102.7,2.7,102.8,2.7"/>
	<path class="st2" d="M107.7,3c0.1,0.1,0.5,0.5,0.5,0.7c0,0.2-0.1,0.3-0.3,0.3c-0.1,0-0.2-0.1-0.3-0.2c-0.4-0.5-0.9-0.9-1.4-1.2
		c-0.3-0.2-0.7-0.4-1-0.5c-0.1,0-0.2-0.1-0.2-0.3c0-0.1,0.1-0.2,0.2-0.3l2.6-1.3c0,0,0.1,0,0.1,0c0.2,0,0.3,0.1,0.3,0.3
		c0,0.1-0.1,0.2-0.2,0.3l-2.1,1C106.6,2.2,107.2,2.5,107.7,3"/>
	<path class="st2" d="M111.5,3.6c0,0.2-0.2,0.4-0.4,0.4c-0.2,0-0.4-0.2-0.4-0.4c0-0.2,0.2-0.4,0.4-0.4
		C111.3,3.2,111.5,3.4,111.5,3.6 M111.3,2.5c0,0.1-0.1,0.2-0.2,0.2c-0.1,0-0.2-0.1-0.2-0.2l-0.1-1.2V0.4c0-0.2,0.1-0.3,0.3-0.3
		c0.2,0,0.3,0.1,0.3,0.3v0.9L111.3,2.5z"/>
</g>
</svg>
