<?xml version="1.0" encoding="utf-8"?>
<!-- Generator: Adobe Illustrator 25.4.1, SVG Export Plug-In . SVG Version: 6.00 Build 0)  -->
<svg version="1.1" id="レイヤー_1" xmlns="http://www.w3.org/2000/svg" xmlns:xlink="http://www.w3.org/1999/xlink" x="0px"
	 y="0px" viewBox="0 0 147 38" style="enable-background:new 0 0 147 38;" xml:space="preserve">
<style type="text/css">
	.st0{fill:#FFFFFF;}
	.st1{fill:none;stroke:#221714;stroke-width:1.5666;stroke-linecap:round;stroke-linejoin:round;stroke-miterlimit:10;}
	.st2{fill:#221714;}
	.st3{fill:#F3ED30;}
	.st4{fill:#040000;}
</style>
<g>
	<path class="st0" d="M20.8,12.5c-0.2,0.1-0.6,0.5-0.9,0.5c-0.2,0-0.4-0.2-0.4-0.5c0-0.2,0.1-0.3,0.3-0.4c0.7-0.4,1.3-0.9,1.7-1.6
		c0.2-0.4,0.3-0.7,0.4-1.1h-2c-0.3,0-0.4-0.1-0.4-0.4c0-0.3,0.2-0.4,0.4-0.4H22V7.5c0-0.3,0.2-0.4,0.4-0.4c0.2,0,0.4,0.1,0.4,0.4
		v1.1H25c0.3,0,0.4,0.1,0.4,0.4c0,0.3-0.2,0.4-0.4,0.4h-2c0.3,1.4,0.8,2.1,2.1,2.7c0.2,0.1,0.3,0.2,0.3,0.4c0,0.2-0.2,0.5-0.4,0.5
		c-0.3,0-1.1-0.6-1.4-0.9c-0.5-0.5-0.8-1-1.1-1.7C22.1,11.3,21.6,11.9,20.8,12.5"/>
	<path class="st1" d="M20.8,12.5c-0.2,0.1-0.6,0.5-0.9,0.5c-0.2,0-0.4-0.2-0.4-0.5c0-0.2,0.1-0.3,0.3-0.4c0.7-0.4,1.3-0.9,1.7-1.6
		c0.2-0.4,0.3-0.7,0.4-1.1h-2c-0.3,0-0.4-0.1-0.4-0.4c0-0.3,0.2-0.4,0.4-0.4H22V7.5c0-0.3,0.2-0.4,0.4-0.4c0.2,0,0.4,0.1,0.4,0.4
		v1.1H25c0.3,0,0.4,0.1,0.4,0.4c0,0.3-0.2,0.4-0.4,0.4h-2c0.3,1.4,0.8,2.1,2.1,2.7c0.2,0.1,0.3,0.2,0.3,0.4c0,0.2-0.2,0.5-0.4,0.5
		c-0.3,0-1.1-0.6-1.4-0.9c-0.5-0.5-0.8-1-1.1-1.7C22.1,11.3,21.6,11.9,20.8,12.5z"/>
	<path class="st0" d="M28.1,12c-0.3,0.3-1,0.9-1.4,0.9c-0.2,0-0.4-0.2-0.4-0.5c0-0.2,0.1-0.3,0.2-0.3c0.8-0.5,1.4-1,1.8-1.9
		c0.2-0.5,0.3-1,0.4-1.5c0-0.1,0-0.5,0-0.6V7.5c0-0.3,0.2-0.4,0.4-0.4c0.3,0,0.4,0.1,0.4,0.4v0.6c0,0.7,0.1,1.5,0.4,2.1
		c0.4,0.8,1,1.4,1.8,1.9c0.2,0.1,0.3,0.2,0.3,0.4c0,0.2-0.2,0.5-0.5,0.5c-0.4,0-1.2-0.8-1.5-1.1c-0.5-0.6-0.8-1.2-1-2
		C29,10.7,28.7,11.4,28.1,12"/>
	<path class="st1" d="M28.1,12c-0.3,0.3-1,0.9-1.4,0.9c-0.2,0-0.4-0.2-0.4-0.5c0-0.2,0.1-0.3,0.2-0.3c0.8-0.5,1.4-1,1.8-1.9
		c0.2-0.5,0.3-1,0.4-1.5c0-0.1,0-0.5,0-0.6V7.5c0-0.3,0.2-0.4,0.4-0.4c0.3,0,0.4,0.1,0.4,0.4v0.6c0,0.7,0.1,1.5,0.4,2.1
		c0.4,0.8,1,1.4,1.8,1.9c0.2,0.1,0.3,0.2,0.3,0.4c0,0.2-0.2,0.5-0.5,0.5c-0.4,0-1.2-0.8-1.5-1.1c-0.5-0.6-0.8-1.2-1-2
		C29,10.7,28.7,11.4,28.1,12z"/>
	<path class="st0" d="M38.6,7.5c0.2,0,0.4,0.1,0.4,0.3c0,0.2-0.2,0.3-0.4,0.3h-3.8c-0.1,0.1-0.2,0.3-0.3,0.4
		c0.1-0.1,0.1-0.1,0.2-0.1h3.5c0.2,0,0.3,0.1,0.3,0.3c0,0.2-0.1,0.3-0.3,0.3h-3.5c-0.2,0-0.3-0.1-0.3-0.3c0-0.1,0-0.1,0-0.2
		c-0.2,0.3-0.4,0.6-0.7,0.8h3.6c0.4,0,0.7,0.1,0.7,0.6c0,0.4,0,0.8,0,1.2v0.1c0,0.2,0,0.8,0.2,0.8c0.1,0,0.1-0.1,0.2-0.2
		c0.1-0.2,0.2-0.3,0.3-0.3c0.2,0,0.3,0.1,0.3,0.3c0,0.3-0.4,1.1-1,1.1c-0.3,0-0.5-0.2-0.6-0.4c-0.2-0.4-0.2-0.9-0.2-1.3
		c0-0.3,0-0.6,0-0.9c0-0.1,0-0.3-0.3-0.3h-3.3c-0.2,0-0.4-0.1-0.4-0.3c0-0.1,0-0.2,0.1-0.2c-0.2,0-0.3-0.2-0.3-0.4
		c0-0.1,0.1-0.2,0.2-0.3C33.7,8.4,34,8,34.2,7.6C34.4,7.2,34.5,7,34.8,7c0.2,0,0.4,0.1,0.4,0.3c0,0.1,0,0.1,0,0.2H38.6z M34,11.1
		c-0.2-0.1-0.3-0.2-0.3-0.4c0-0.2,0.2-0.4,0.4-0.4c0.3,0,1.2,0.6,1.5,0.8c0.3-0.2,0.5-0.4,0.8-0.7c0.1-0.1,0.1-0.1,0.3-0.1
		c0.2,0,0.4,0.2,0.4,0.4c0,0.2-0.1,0.3-0.3,0.5c-0.2,0.2-0.3,0.3-0.5,0.5c0.3,0.2,0.5,0.4,0.7,0.6c0.1,0.1,0.1,0.2,0.1,0.3
		c0,0.2-0.2,0.4-0.4,0.4c-0.2,0-0.4-0.3-0.8-0.6c-0.1-0.1-0.2-0.2-0.3-0.2c-0.5,0.3-1,0.6-1.6,0.9c-0.1,0-0.2,0.1-0.3,0.1
		c-0.2,0-0.4-0.2-0.4-0.4c0-0.2,0.1-0.3,0.2-0.3c0.5-0.2,0.9-0.4,1.3-0.6C34.5,11.3,34.2,11.2,34,11.1"/>
	<path class="st1" d="M38.6,7.5c0.2,0,0.4,0.1,0.4,0.3c0,0.2-0.2,0.3-0.4,0.3h-3.8c-0.1,0.1-0.2,0.3-0.3,0.4
		c0.1-0.1,0.1-0.1,0.2-0.1h3.5c0.2,0,0.3,0.1,0.3,0.3c0,0.2-0.1,0.3-0.3,0.3h-3.5c-0.2,0-0.3-0.1-0.3-0.3c0-0.1,0-0.1,0-0.2
		c-0.2,0.3-0.4,0.6-0.7,0.8h3.6c0.4,0,0.7,0.1,0.7,0.6c0,0.4,0,0.8,0,1.2v0.1c0,0.2,0,0.8,0.2,0.8c0.1,0,0.1-0.1,0.2-0.2
		c0.1-0.2,0.2-0.3,0.3-0.3c0.2,0,0.3,0.1,0.3,0.3c0,0.3-0.4,1.1-1,1.1c-0.3,0-0.5-0.2-0.6-0.4c-0.2-0.4-0.2-0.9-0.2-1.3
		c0-0.3,0-0.6,0-0.9c0-0.1,0-0.3-0.3-0.3h-3.3c-0.2,0-0.4-0.1-0.4-0.3c0-0.1,0-0.2,0.1-0.2c-0.2,0-0.3-0.2-0.3-0.4
		c0-0.1,0.1-0.2,0.2-0.3C33.7,8.4,34,8,34.2,7.6C34.4,7.2,34.5,7,34.8,7c0.2,0,0.4,0.1,0.4,0.3c0,0.1,0,0.1,0,0.2H38.6z M34,11.1
		c-0.2-0.1-0.3-0.2-0.3-0.4c0-0.2,0.2-0.4,0.4-0.4c0.3,0,1.2,0.6,1.5,0.8c0.3-0.2,0.5-0.4,0.8-0.7c0.1-0.1,0.1-0.1,0.3-0.1
		c0.2,0,0.4,0.2,0.4,0.4c0,0.2-0.1,0.3-0.3,0.5c-0.2,0.2-0.3,0.3-0.5,0.5c0.3,0.2,0.5,0.4,0.7,0.6c0.1,0.1,0.1,0.2,0.1,0.3
		c0,0.2-0.2,0.4-0.4,0.4c-0.2,0-0.4-0.3-0.8-0.6c-0.1-0.1-0.2-0.2-0.3-0.2c-0.5,0.3-1,0.6-1.6,0.9c-0.1,0-0.2,0.1-0.3,0.1
		c-0.2,0-0.4-0.2-0.4-0.4c0-0.2,0.1-0.3,0.2-0.3c0.5-0.2,0.9-0.4,1.3-0.6C34.5,11.3,34.2,11.2,34,11.1z"/>
	<path class="st0" d="M43.4,10.6h2.2c0.2,0,0.3,0.1,0.3,0.3c0,0.2-0.1,0.3-0.3,0.3h-1.7c0.1,0.1,0.2,0.2,0.3,0.3
		c0.3,0.2,0.7,0.4,1.1,0.5c0.6,0.1,0.7,0.2,0.7,0.4c0,0.2-0.1,0.5-0.4,0.5c-0.4,0-1.1-0.3-1.5-0.5c-0.4-0.2-0.8-0.6-1-1
		c-0.3,0.5-0.7,0.9-1.2,1.2C41.6,12.7,41,13,40.7,13c-0.2,0-0.4-0.2-0.4-0.4c0-0.2,0.1-0.3,0.7-0.4c0.5-0.1,1.1-0.4,1.4-0.9h-1.7
		c-0.2,0-0.3-0.1-0.3-0.3c0-0.2,0.1-0.3,0.3-0.3h2c0-0.1,0-0.2,0.1-0.3h-2.2c-0.2,0-0.3-0.1-0.3-0.3c0-0.2,0.1-0.3,0.3-0.3h2.2V9.2
		h-1.8c-0.2,0-0.3-0.1-0.3-0.3c0-0.2,0.1-0.3,0.3-0.3h1.8V8.3h-2c-0.2,0-0.3-0.1-0.3-0.3c0-0.2,0.1-0.3,0.3-0.3h1
		c0-0.1-0.1-0.3-0.1-0.3c0-0.2,0.3-0.3,0.5-0.3c0.1,0,0.3,0,0.3,0.2c0.1,0.1,0.1,0.3,0.2,0.4h1.1c0.1-0.2,0.1-0.3,0.2-0.4
		c0.1-0.2,0.2-0.2,0.4-0.2c0.1,0,0.4,0.1,0.4,0.2c0,0.1-0.1,0.3-0.1,0.3h1c0.2,0,0.3,0.1,0.3,0.3c0,0.2-0.1,0.3-0.3,0.3h-2v0.3h1.8
		c0.2,0,0.3,0.1,0.3,0.3c0,0.2-0.1,0.3-0.3,0.3h-1.8v0.3h2.2c0.2,0,0.3,0.1,0.3,0.3c0,0.2-0.1,0.3-0.3,0.3h-2.3
		C43.4,10.3,43.4,10.4,43.4,10.6"/>
	<path class="st1" d="M43.4,10.6h2.2c0.2,0,0.3,0.1,0.3,0.3c0,0.2-0.1,0.3-0.3,0.3h-1.7c0.1,0.1,0.2,0.2,0.3,0.3
		c0.3,0.2,0.7,0.4,1.1,0.5c0.6,0.1,0.7,0.2,0.7,0.4c0,0.2-0.1,0.5-0.4,0.5c-0.4,0-1.1-0.3-1.5-0.5c-0.4-0.2-0.8-0.6-1-1
		c-0.3,0.5-0.7,0.9-1.2,1.2C41.6,12.7,41,13,40.7,13c-0.2,0-0.4-0.2-0.4-0.4c0-0.2,0.1-0.3,0.7-0.4c0.5-0.1,1.1-0.4,1.4-0.9h-1.7
		c-0.2,0-0.3-0.1-0.3-0.3c0-0.2,0.1-0.3,0.3-0.3h2c0-0.1,0-0.2,0.1-0.3h-2.2c-0.2,0-0.3-0.1-0.3-0.3c0-0.2,0.1-0.3,0.3-0.3h2.2V9.2
		h-1.8c-0.2,0-0.3-0.1-0.3-0.3c0-0.2,0.1-0.3,0.3-0.3h1.8V8.3h-2c-0.2,0-0.3-0.1-0.3-0.3c0-0.2,0.1-0.3,0.3-0.3h1
		c0-0.1-0.1-0.3-0.1-0.3c0-0.2,0.3-0.3,0.5-0.3c0.1,0,0.3,0,0.3,0.2c0.1,0.1,0.1,0.3,0.2,0.4h1.1c0.1-0.2,0.1-0.3,0.2-0.4
		c0.1-0.2,0.2-0.2,0.4-0.2c0.1,0,0.4,0.1,0.4,0.2c0,0.1-0.1,0.3-0.1,0.3h1c0.2,0,0.3,0.1,0.3,0.3c0,0.2-0.1,0.3-0.3,0.3h-2v0.3h1.8
		c0.2,0,0.3,0.1,0.3,0.3c0,0.2-0.1,0.3-0.3,0.3h-1.8v0.3h2.2c0.2,0,0.3,0.1,0.3,0.3c0,0.2-0.1,0.3-0.3,0.3h-2.3
		C43.4,10.3,43.4,10.4,43.4,10.6z"/>
	<path class="st0" d="M47.5,11.2c-0.2,0-0.3-0.2-0.3-0.4c0-0.2,0.1-0.3,0.3-0.3c0.8-0.3,1.3-0.5,2-1c0.2-0.2,0.3-0.3,0.7-0.3
		c0.3,0,0.4,0.1,0.6,0.3c0.7,0.6,1.1,0.8,2,1c0.2,0.1,0.3,0.1,0.3,0.3c0,0.2-0.1,0.4-0.4,0.4c-0.1,0-0.2,0-0.4-0.1
		c0,0.1,0,0.2,0,0.3v0.8c0,0.5-0.2,0.7-0.7,0.7h-2.9c-0.5,0-0.7-0.2-0.7-0.7v-0.8c0-0.1,0-0.2,0-0.3C47.7,11.2,47.6,11.2,47.5,11.2
		 M52.2,7.6c0.5,0,0.7,0.2,0.7,0.7v0.4c0,0.2-0.1,0.4-0.4,0.4c-0.2,0-0.4-0.1-0.4-0.4V8.4c0-0.1-0.1-0.2-0.2-0.2h-3.6
		c-0.1,0-0.2,0.1-0.2,0.2v0.3c0,0.3-0.2,0.3-0.4,0.3c-0.2,0-0.4-0.1-0.4-0.3V8.3c0-0.5,0.2-0.7,0.7-0.7h1.7V7.4
		c0-0.3,0.2-0.3,0.4-0.3c0.2,0,0.4,0.1,0.4,0.3v0.2H52.2z M49.5,8.9c-0.2,0.1-0.5,0.4-0.7,0.5c-0.2,0.1-0.8,0.5-1,0.5
		c-0.2,0-0.3-0.2-0.3-0.4c0-0.2,0.1-0.2,0.2-0.3C48.3,9,48.4,8.9,49,8.5c0.1-0.1,0.2-0.1,0.3-0.1c0.2,0,0.3,0.2,0.3,0.3
		C49.6,8.8,49.6,8.9,49.5,8.9 M48.9,11.3c-0.1,0-0.2,0.1-0.2,0.2V12c0,0.1,0.1,0.2,0.2,0.2h2.4c0.1,0,0.2-0.1,0.2-0.2v-0.5
		c0-0.1-0.1-0.2-0.2-0.2H48.9z M51.3,10.7c-0.3-0.2-0.9-0.5-1.1-0.8c0,0-0.1,0-0.1,0c0,0-0.1,0-0.1,0.1c-0.3,0.3-0.7,0.6-1.1,0.8
		H51.3z M51.5,8.7c0.3,0.3,0.6,0.4,1,0.6c0.1,0.1,0.2,0.1,0.2,0.3c0,0.2-0.1,0.4-0.3,0.4c-0.2,0-0.8-0.3-1-0.5
		c-0.2-0.1-0.6-0.4-0.7-0.5c-0.1-0.1-0.1-0.1-0.1-0.2c0-0.2,0.2-0.3,0.4-0.3C51.2,8.4,51.3,8.6,51.5,8.7"/>
	<path class="st1" d="M47.5,11.2c-0.2,0-0.3-0.2-0.3-0.4c0-0.2,0.1-0.3,0.3-0.3c0.8-0.3,1.3-0.5,2-1c0.2-0.2,0.3-0.3,0.7-0.3
		c0.3,0,0.4,0.1,0.6,0.3c0.7,0.6,1.1,0.8,2,1c0.2,0.1,0.3,0.1,0.3,0.3c0,0.2-0.1,0.4-0.4,0.4c-0.1,0-0.2,0-0.4-0.1
		c0,0.1,0,0.2,0,0.3v0.8c0,0.5-0.2,0.7-0.7,0.7h-2.9c-0.5,0-0.7-0.2-0.7-0.7v-0.8c0-0.1,0-0.2,0-0.3C47.7,11.2,47.6,11.2,47.5,11.2z
		 M52.2,7.6c0.5,0,0.7,0.2,0.7,0.7v0.4c0,0.2-0.1,0.4-0.4,0.4c-0.2,0-0.4-0.1-0.4-0.4V8.4c0-0.1-0.1-0.2-0.2-0.2h-3.6
		c-0.1,0-0.2,0.1-0.2,0.2v0.3c0,0.3-0.2,0.3-0.4,0.3c-0.2,0-0.4-0.1-0.4-0.3V8.3c0-0.5,0.2-0.7,0.7-0.7h1.7V7.4
		c0-0.3,0.2-0.3,0.4-0.3c0.2,0,0.4,0.1,0.4,0.3v0.2H52.2z M49.5,8.9c-0.2,0.1-0.5,0.4-0.7,0.5c-0.2,0.1-0.8,0.5-1,0.5
		c-0.2,0-0.3-0.2-0.3-0.4c0-0.2,0.1-0.2,0.2-0.3C48.3,9,48.4,8.9,49,8.5c0.1-0.1,0.2-0.1,0.3-0.1c0.2,0,0.3,0.2,0.3,0.3
		C49.6,8.8,49.6,8.9,49.5,8.9z M48.9,11.3c-0.1,0-0.2,0.1-0.2,0.2V12c0,0.1,0.1,0.2,0.2,0.2h2.4c0.1,0,0.2-0.1,0.2-0.2v-0.5
		c0-0.1-0.1-0.2-0.2-0.2H48.9z M51.3,10.7c-0.3-0.2-0.9-0.5-1.1-0.8c0,0-0.1,0-0.1,0c0,0-0.1,0-0.1,0.1c-0.3,0.3-0.7,0.6-1.1,0.8
		H51.3z M51.5,8.7c0.3,0.3,0.6,0.4,1,0.6c0.1,0.1,0.2,0.1,0.2,0.3c0,0.2-0.1,0.4-0.3,0.4c-0.2,0-0.8-0.3-1-0.5
		c-0.2-0.1-0.6-0.4-0.7-0.5c-0.1-0.1-0.1-0.1-0.1-0.2c0-0.2,0.2-0.3,0.4-0.3C51.2,8.4,51.3,8.6,51.5,8.7z"/>
	<path class="st0" d="M55.4,9.6c-0.2,0.2-0.5,0.6-0.8,0.6c-0.2,0-0.4-0.2-0.4-0.4c0-0.2,0.1-0.3,0.2-0.4c0.4-0.3,0.6-0.8,0.8-1.2
		c0-0.2,0.1-0.3,0.2-0.4c0.1-0.1,0.2-0.1,0.4-0.1h3c0.3,0,0.5,0.1,0.6,0.4c0,0.1,0,0.2,0,0.4c0,0.3,0,0.7-0.1,1
		c-0.1,0.6-0.2,1.1-0.4,1.6c-0.5,1-1.4,1.6-2.5,1.6c-0.6,0-1.2-0.1-1.7-0.4c-0.2-0.1-0.3-0.2-0.3-0.4c0-0.2,0.2-0.4,0.4-0.4
		c0.1,0,0.2,0,0.4,0.2c0.3,0.2,0.7,0.3,1.1,0.3c1.9,0,2.2-1.9,2.2-3.4h-2.6C55.8,8.9,55.7,9.3,55.4,9.6"/>
	<path class="st1" d="M55.4,9.6c-0.2,0.2-0.5,0.6-0.8,0.6c-0.2,0-0.4-0.2-0.4-0.4c0-0.2,0.1-0.3,0.2-0.4c0.4-0.3,0.6-0.8,0.8-1.2
		c0-0.2,0.1-0.3,0.2-0.4c0.1-0.1,0.2-0.1,0.4-0.1h3c0.3,0,0.5,0.1,0.6,0.4c0,0.1,0,0.2,0,0.4c0,0.3,0,0.7-0.1,1
		c-0.1,0.6-0.2,1.1-0.4,1.6c-0.5,1-1.4,1.6-2.5,1.6c-0.6,0-1.2-0.1-1.7-0.4c-0.2-0.1-0.3-0.2-0.3-0.4c0-0.2,0.2-0.4,0.4-0.4
		c0.1,0,0.2,0,0.4,0.2c0.3,0.2,0.7,0.3,1.1,0.3c1.9,0,2.2-1.9,2.2-3.4h-2.6C55.8,8.9,55.7,9.3,55.4,9.6z"/>
	<path class="st0" d="M65.4,9.3c0,1.8-0.6,3.4-2.7,3.4c-0.5,0-1-0.1-1.4-0.3c-0.2-0.1-0.5-0.2-0.5-0.5c0-0.2,0.2-0.4,0.4-0.4
		c0.1,0,0.2,0,0.4,0.1c0.3,0.2,0.7,0.2,1.1,0.2c0.7,0,1.3-0.2,1.6-0.8c0.3-0.5,0.3-1.2,0.3-1.8V7.9c0-0.3,0.2-0.4,0.4-0.4
		c0.1,0,0.2,0.1,0.3,0.1c0.1,0.1,0.1,0.2,0.1,0.3V9.3z M61.7,10.1c0,0.2-0.2,0.4-0.4,0.4s-0.4-0.2-0.4-0.4V7.9
		c0-0.2,0.2-0.4,0.4-0.4c0.1,0,0.2,0.1,0.3,0.2c0.1,0.1,0.1,0.1,0.1,0.2V10.1z"/>
	<path class="st1" d="M65.4,9.3c0,1.8-0.6,3.4-2.7,3.4c-0.5,0-1-0.1-1.4-0.3c-0.2-0.1-0.5-0.2-0.5-0.5c0-0.2,0.2-0.4,0.4-0.4
		c0.1,0,0.2,0,0.4,0.1c0.3,0.2,0.7,0.2,1.1,0.2c0.7,0,1.3-0.2,1.6-0.8c0.3-0.5,0.3-1.2,0.3-1.8V7.9c0-0.3,0.2-0.4,0.4-0.4
		c0.1,0,0.2,0.1,0.3,0.1c0.1,0.1,0.1,0.2,0.1,0.3V9.3z M61.7,10.1c0,0.2-0.2,0.4-0.4,0.4s-0.4-0.2-0.4-0.4V7.9
		c0-0.2,0.2-0.4,0.4-0.4c0.1,0,0.2,0.1,0.3,0.2c0.1,0.1,0.1,0.1,0.1,0.2V10.1z"/>
	<path class="st0" d="M69.7,11.8h1.9c0.2,0,0.4,0.2,0.4,0.4c0,0.2-0.2,0.4-0.4,0.4H67c-0.2,0-0.4-0.2-0.4-0.4c0-0.2,0.2-0.4,0.4-0.4
		h1.8V8.7h-1.6c-0.2,0-0.4-0.2-0.4-0.4c0-0.2,0.2-0.4,0.4-0.4h4.1c0.2,0,0.4,0.2,0.4,0.4c0,0.2-0.2,0.4-0.4,0.4h-1.7V11.8z"/>
	<path class="st1" d="M69.7,11.8h1.9c0.2,0,0.4,0.2,0.4,0.4c0,0.2-0.2,0.4-0.4,0.4H67c-0.2,0-0.4-0.2-0.4-0.4c0-0.2,0.2-0.4,0.4-0.4
		h1.8V8.7h-1.6c-0.2,0-0.4-0.2-0.4-0.4c0-0.2,0.2-0.4,0.4-0.4h4.1c0.2,0,0.4,0.2,0.4,0.4c0,0.2-0.2,0.4-0.4,0.4h-1.7V11.8z"/>
	<path class="st0" d="M76.2,12.4c0,0.2-0.2,0.4-0.4,0.4c-0.2,0-0.4-0.2-0.4-0.4V9.8c-0.5,0.1-1,0.2-1.6,0.2c-0.6,0-1-0.1-1-0.5
		c0-0.2,0.2-0.4,0.4-0.4c0.1,0,0.2,0,0.3,0c0.1,0,0.2,0,0.3,0c0.7,0,1.5-0.2,2.1-0.5c0.5-0.2,0.9-0.6,1.2-1c0.1-0.1,0.2-0.3,0.4-0.3
		c0.2,0,0.4,0.2,0.4,0.4c0,0.3-0.4,0.6-0.5,0.8c-0.4,0.4-0.8,0.7-1.3,0.9V12.4z"/>
	<path class="st1" d="M76.2,12.4c0,0.2-0.2,0.4-0.4,0.4c-0.2,0-0.4-0.2-0.4-0.4V9.8c-0.5,0.1-1,0.2-1.6,0.2c-0.6,0-1-0.1-1-0.5
		c0-0.2,0.2-0.4,0.4-0.4c0.1,0,0.2,0,0.3,0c0.1,0,0.2,0,0.3,0c0.7,0,1.5-0.2,2.1-0.5c0.5-0.2,0.9-0.6,1.2-1c0.1-0.1,0.2-0.3,0.4-0.3
		c0.2,0,0.4,0.2,0.4,0.4c0,0.3-0.4,0.6-0.5,0.8c-0.4,0.4-0.8,0.7-1.3,0.9V12.4z"/>
	<path class="st0" d="M83.4,8.5h-2.5C80.6,9,80.5,9.3,80,9.8c-0.2,0.2-0.5,0.4-0.7,0.4c-0.2,0-0.4-0.2-0.4-0.4
		c0-0.2,0.1-0.3,0.2-0.4c0.4-0.3,0.7-0.7,0.9-1.2c0.1-0.3,0.2-0.5,0.5-0.5h3.1c0.3,0,0.5,0.2,0.5,0.5c0,0.4,0,0.8-0.1,1.2
		c0,0.3-0.1,0.6-0.2,0.9l0.2,0.1c0.2,0,0.3,0.2,0.3,0.4c0,0.2-0.2,0.4-0.5,0.4l-0.3-0.1c-0.5,1.1-1.3,1.7-2.5,1.7
		c-0.5,0-1.1-0.1-1.6-0.4c-0.2-0.1-0.3-0.2-0.3-0.4c0-0.2,0.2-0.4,0.4-0.4c0.1,0,0.1,0,0.2,0.1c0.4,0.2,0.9,0.3,1.3,0.3
		c0.8,0,1.4-0.3,1.8-1.1L81,10.4c-0.2,0-0.3-0.2-0.3-0.4c0-0.3,0.2-0.4,0.5-0.4l1.9,0.5C83.3,9.6,83.3,9,83.4,8.5"/>
	<path class="st1" d="M83.4,8.5h-2.5C80.6,9,80.5,9.3,80,9.8c-0.2,0.2-0.5,0.4-0.7,0.4c-0.2,0-0.4-0.2-0.4-0.4
		c0-0.2,0.1-0.3,0.2-0.4c0.4-0.3,0.7-0.7,0.9-1.2c0.1-0.3,0.2-0.5,0.5-0.5h3.1c0.3,0,0.5,0.2,0.5,0.5c0,0.4,0,0.8-0.1,1.2
		c0,0.3-0.1,0.6-0.2,0.9l0.2,0.1c0.2,0,0.3,0.2,0.3,0.4c0,0.2-0.2,0.4-0.5,0.4l-0.3-0.1c-0.5,1.1-1.3,1.7-2.5,1.7
		c-0.5,0-1.1-0.1-1.6-0.4c-0.2-0.1-0.3-0.2-0.3-0.4c0-0.2,0.2-0.4,0.4-0.4c0.1,0,0.1,0,0.2,0.1c0.4,0.2,0.9,0.3,1.3,0.3
		c0.8,0,1.4-0.3,1.8-1.1L81,10.4c-0.2,0-0.3-0.2-0.3-0.4c0-0.3,0.2-0.4,0.5-0.4l1.9,0.5C83.3,9.6,83.3,9,83.4,8.5z"/>
	<path class="st0" d="M90.3,9.6c0.2,0,0.4,0.2,0.4,0.4c0,0.2-0.2,0.4-0.4,0.4h-4.2c-0.2,0-0.4-0.2-0.4-0.4c0-0.1,0.1-0.3,0.2-0.3
		c0.1,0,0.1-0.1,0.2-0.1H90.3z"/>
	<path class="st1" d="M90.3,9.6c0.2,0,0.4,0.2,0.4,0.4c0,0.2-0.2,0.4-0.4,0.4h-4.2c-0.2,0-0.4-0.2-0.4-0.4c0-0.1,0.1-0.3,0.2-0.3
		c0.1,0,0.1-0.1,0.2-0.1H90.3z"/>
	<path class="st0" d="M92.7,7.8c0-0.2,0.1-0.5,0.4-0.5c0.2,0,0.3,0.1,0.4,0.3l0.2,0.7c0.5-0.1,1.1-0.3,1.6-0.3l0.1-0.5
		c0-0.2,0.2-0.3,0.4-0.3c0.2,0,0.4,0.2,0.4,0.5L96,8c0.8,0.1,1.5,0.6,1.5,1.5c0,1-0.6,1.8-1.6,1.8c-0.3,0-0.9-0.1-0.9-0.5
		c0-0.2,0.2-0.4,0.4-0.4c0.1,0,0.1,0,0.2,0c0.2,0,0.2,0,0.3,0c0.6,0,0.9-0.4,0.9-1c0-0.5-0.4-0.7-0.8-0.8l-0.1,0.8
		c0,0.2-0.2,0.3-0.4,0.3c-0.3,0-0.4-0.2-0.4-0.5l0.1-0.6c-0.4,0.1-0.9,0.2-1.3,0.3l0.7,3.3c0,0.2-0.2,0.5-0.4,0.5
		c-0.2,0-0.4-0.1-0.4-0.3L93,9.3c-0.2,0.1-0.6,0.2-0.7,0.2c-0.2,0-0.4-0.2-0.4-0.4c0-0.2,0.1-0.3,0.3-0.4c0.2-0.1,0.4-0.1,0.6-0.2
		L92.7,7.8z"/>
	<path class="st1" d="M92.7,7.8c0-0.2,0.1-0.5,0.4-0.5c0.2,0,0.3,0.1,0.4,0.3l0.2,0.7c0.5-0.1,1.1-0.3,1.6-0.3l0.1-0.5
		c0-0.2,0.2-0.3,0.4-0.3c0.2,0,0.4,0.2,0.4,0.5L96,8c0.8,0.1,1.5,0.6,1.5,1.5c0,1-0.6,1.8-1.6,1.8c-0.3,0-0.9-0.1-0.9-0.5
		c0-0.2,0.2-0.4,0.4-0.4c0.1,0,0.1,0,0.2,0c0.2,0,0.2,0,0.3,0c0.6,0,0.9-0.4,0.9-1c0-0.5-0.4-0.7-0.8-0.8l-0.1,0.8
		c0,0.2-0.2,0.3-0.4,0.3c-0.3,0-0.4-0.2-0.4-0.5l0.1-0.6c-0.4,0.1-0.9,0.2-1.3,0.3l0.7,3.3c0,0.2-0.2,0.5-0.4,0.5
		c-0.2,0-0.4-0.1-0.4-0.3L93,9.3c-0.2,0.1-0.6,0.2-0.7,0.2c-0.2,0-0.4-0.2-0.4-0.4c0-0.2,0.1-0.3,0.3-0.4c0.2-0.1,0.4-0.1,0.6-0.2
		L92.7,7.8z"/>
	<path class="st0" d="M101.5,9.9l-0.3,1.3c-0.1,0.4-0.2,0.9-0.5,1.1c-0.2,0.2-0.5,0.2-0.7,0.2c-0.9,0-1.4-0.7-1.4-1.5
		c0-1.4,1-1.9,2.2-1.9l0.2-0.9h-1.7c-0.2,0-0.4-0.2-0.4-0.3c0-0.2,0.2-0.4,0.4-0.4h2.1c0.2,0,0.4,0.1,0.4,0.4c0,0,0,0.1,0,0.1
		l-0.2,1.1c0.4,0,0.9,0.1,1.3,0.3c0-0.2,0-0.5,0-0.7c0-0.1,0-0.3,0-0.4c0-0.2,0.2-0.4,0.4-0.4c0.2,0,0.4,0.2,0.4,0.4
		c0,0.3,0,0.7,0,1.1c0,0.1,0,0.2,0,0.4c0.5,0.3,0.6,0.4,0.6,0.6c0,0.2-0.2,0.4-0.4,0.4c-0.1,0-0.2,0-0.3-0.1
		c-0.1,0.6-0.3,1.2-0.7,1.6c-0.2,0.2-0.6,0.5-0.9,0.5c-0.2,0-0.4-0.2-0.4-0.4c0-0.2,0.1-0.3,0.3-0.4c0.7-0.3,0.9-0.8,1-1.7
		C102.5,10.1,102,9.9,101.5,9.9 M99.4,11.1c0,0.3,0.2,0.8,0.6,0.8c0.1,0,0.2,0,0.3-0.1c0.1-0.1,0.1-0.3,0.2-0.5l0.3-1.4
		C100,9.9,99.4,10.2,99.4,11.1"/>
	<path class="st1" d="M101.5,9.9l-0.3,1.3c-0.1,0.4-0.2,0.9-0.5,1.1c-0.2,0.2-0.5,0.2-0.7,0.2c-0.9,0-1.4-0.7-1.4-1.5
		c0-1.4,1-1.9,2.2-1.9l0.2-0.9h-1.7c-0.2,0-0.4-0.2-0.4-0.3c0-0.2,0.2-0.4,0.4-0.4h2.1c0.2,0,0.4,0.1,0.4,0.4c0,0,0,0.1,0,0.1
		l-0.2,1.1c0.4,0,0.9,0.1,1.3,0.3c0-0.2,0-0.5,0-0.7c0-0.1,0-0.3,0-0.4c0-0.2,0.2-0.4,0.4-0.4c0.2,0,0.4,0.2,0.4,0.4
		c0,0.3,0,0.7,0,1.1c0,0.1,0,0.2,0,0.4c0.5,0.3,0.6,0.4,0.6,0.6c0,0.2-0.2,0.4-0.4,0.4c-0.1,0-0.2,0-0.3-0.1
		c-0.1,0.6-0.3,1.2-0.7,1.6c-0.2,0.2-0.6,0.5-0.9,0.5c-0.2,0-0.4-0.2-0.4-0.4c0-0.2,0.1-0.3,0.3-0.4c0.7-0.3,0.9-0.8,1-1.7
		C102.5,10.1,102,9.9,101.5,9.9z M99.4,11.1c0,0.3,0.2,0.8,0.6,0.8c0.1,0,0.2,0,0.3-0.1c0.1-0.1,0.1-0.3,0.2-0.5l0.3-1.4
		C100,9.9,99.4,10.2,99.4,11.1z"/>
	<path class="st0" d="M105.2,8.7c-0.2,0-0.4-0.2-0.4-0.4c0-0.2,0.2-0.4,0.4-0.4h1.1l0.2-0.5c0-0.1,0.2-0.2,0.3-0.2
		c0.2,0,0.4,0.2,0.4,0.4c0,0,0,0.1,0,0.1L107.1,8h2.7c0.2,0,0.4,0.1,0.4,0.4c0,0.2-0.2,0.4-0.4,0.4h-3l-0.3,1
		c0.5-0.2,0.9-0.3,1.4-0.3c1,0,2.3,0.3,2.3,1.6c0,1.3-1.3,1.7-2.4,1.7c-0.6,0-1.2-0.1-1.8-0.4c-0.2-0.1-0.4-0.2-0.4-0.5
		c0-0.2,0.2-0.4,0.3-0.4c0.1,0,0.2,0,0.3,0.1c0.4,0.2,1,0.4,1.5,0.4c0.6,0,1.7-0.2,1.7-1c0-0.8-0.9-0.9-1.5-0.9
		c-0.6,0-1.2,0.2-1.8,0.5c-0.1,0.1-0.2,0.1-0.4,0.1c-0.2,0-0.3-0.2-0.3-0.4c0,0,0-0.1,0-0.1l0.5-1.6H105.2z"/>
	<path class="st1" d="M105.2,8.7c-0.2,0-0.4-0.2-0.4-0.4c0-0.2,0.2-0.4,0.4-0.4h1.1l0.2-0.5c0-0.1,0.2-0.2,0.3-0.2
		c0.2,0,0.4,0.2,0.4,0.4c0,0,0,0.1,0,0.1L107.1,8h2.7c0.2,0,0.4,0.1,0.4,0.4c0,0.2-0.2,0.4-0.4,0.4h-3l-0.3,1
		c0.5-0.2,0.9-0.3,1.4-0.3c1,0,2.3,0.3,2.3,1.6c0,1.3-1.3,1.7-2.4,1.7c-0.6,0-1.2-0.1-1.8-0.4c-0.2-0.1-0.4-0.2-0.4-0.5
		c0-0.2,0.2-0.4,0.3-0.4c0.1,0,0.2,0,0.3,0.1c0.4,0.2,1,0.4,1.5,0.4c0.6,0,1.7-0.2,1.7-1c0-0.8-0.9-0.9-1.5-0.9
		c-0.6,0-1.2,0.2-1.8,0.5c-0.1,0.1-0.2,0.1-0.4,0.1c-0.2,0-0.3-0.2-0.3-0.4c0,0,0-0.1,0-0.1l0.5-1.6H105.2z"/>
	<path class="st0" d="M111.5,8.5C111.5,8.5,111.5,8.5,111.5,8.5c0-0.3,0.2-0.4,0.3-0.4c0.2,0,0.3,0.1,0.3,0.3l0.1,0.6
		c0.5-0.1,0.9-0.2,1.4-0.3l0.1-0.4c0-0.2,0.2-0.3,0.3-0.3c0.2,0,0.4,0.2,0.3,0.4l0,0.2c0.7,0.1,1.2,0.6,1.2,1.3
		c0,0.9-0.5,1.6-1.4,1.6c-0.2,0-0.4,0-0.6-0.1c-0.1,0-0.2-0.1-0.2-0.3c0-0.2,0.2-0.3,0.3-0.3c0.1,0,0.1,0,0.2,0c0.1,0,0.2,0,0.3,0
		c0.3,0,0.5-0.1,0.6-0.4c0-0.1,0.1-0.3,0.1-0.4c0-0.4-0.3-0.6-0.6-0.7l-0.1,0.7c0,0.2-0.2,0.3-0.3,0.3c-0.2,0-0.4-0.2-0.4-0.4
		l0.1-0.5c-0.4,0.1-0.7,0.1-1.1,0.2l0.6,2.8c0,0.2-0.1,0.4-0.4,0.4c-0.2,0-0.3-0.1-0.4-0.3l-0.5-2.7c-0.2,0-0.4,0.2-0.6,0.2
		c-0.2,0-0.3-0.2-0.3-0.4c0-0.1,0.1-0.2,0.2-0.3c0.1-0.1,0.4-0.1,0.6-0.2L111.5,8.5z"/>
	<path class="st1" d="M111.5,8.5C111.5,8.5,111.5,8.5,111.5,8.5c0-0.3,0.2-0.4,0.3-0.4c0.2,0,0.3,0.1,0.3,0.3l0.1,0.6
		c0.5-0.1,0.9-0.2,1.4-0.3l0.1-0.4c0-0.2,0.2-0.3,0.3-0.3c0.2,0,0.4,0.2,0.3,0.4l0,0.2c0.7,0.1,1.2,0.6,1.2,1.3
		c0,0.9-0.5,1.6-1.4,1.6c-0.2,0-0.4,0-0.6-0.1c-0.1,0-0.2-0.1-0.2-0.3c0-0.2,0.2-0.3,0.3-0.3c0.1,0,0.1,0,0.2,0c0.1,0,0.2,0,0.3,0
		c0.3,0,0.5-0.1,0.6-0.4c0-0.1,0.1-0.3,0.1-0.4c0-0.4-0.3-0.6-0.6-0.7l-0.1,0.7c0,0.2-0.2,0.3-0.3,0.3c-0.2,0-0.4-0.2-0.4-0.4
		l0.1-0.5c-0.4,0.1-0.7,0.1-1.1,0.2l0.6,2.8c0,0.2-0.1,0.4-0.4,0.4c-0.2,0-0.3-0.1-0.4-0.3l-0.5-2.7c-0.2,0-0.4,0.2-0.6,0.2
		c-0.2,0-0.3-0.2-0.3-0.4c0-0.1,0.1-0.2,0.2-0.3c0.1-0.1,0.4-0.1,0.6-0.2L111.5,8.5z"/>
	<path class="st0" d="M118.6,9.4c0.6,0,1,0.3,1,1c0,0.1,0,0.4-0.1,0.6c0,0.2-0.1,0.4-0.1,0.6c0,0.3,0.2,0.5,0.6,0.5
		c0.7,0,0.9-0.7,0.9-1.3c0-0.2,0-0.4-0.1-0.6c0-0.1,0-0.2,0-0.2c0-0.2,0.2-0.4,0.4-0.4c0.2,0,0.3,0.1,0.4,0.3
		c0.1,0.3,0.1,0.5,0.1,0.8c0,1.1-0.4,2.1-1.7,2.1c-0.7,0-1.3-0.4-1.3-1.2c0-0.1,0-0.5,0.1-0.8c0-0.1,0-0.2,0-0.3
		c0-0.2-0.1-0.3-0.3-0.3c-0.4,0-0.7,0.2-0.9,0.5c-0.2,0.2-0.3,0.5-0.3,0.8l-0.2,0.9c0,0.2-0.2,0.3-0.4,0.3c-0.2,0-0.4-0.2-0.4-0.4
		c0,0,0-0.1,0-0.1l1.1-4.6c0-0.2,0.2-0.3,0.4-0.3c0.2,0,0.4,0.2,0.4,0.4c0,0,0,0.1,0,0.1l-0.4,1.8C118,9.5,118.3,9.4,118.6,9.4"/>
	<path class="st1" d="M118.6,9.4c0.6,0,1,0.3,1,1c0,0.1,0,0.4-0.1,0.6c0,0.2-0.1,0.4-0.1,0.6c0,0.3,0.2,0.5,0.6,0.5
		c0.7,0,0.9-0.7,0.9-1.3c0-0.2,0-0.4-0.1-0.6c0-0.1,0-0.2,0-0.2c0-0.2,0.2-0.4,0.4-0.4c0.2,0,0.3,0.1,0.4,0.3
		c0.1,0.3,0.1,0.5,0.1,0.8c0,1.1-0.4,2.1-1.7,2.1c-0.7,0-1.3-0.4-1.3-1.2c0-0.1,0-0.5,0.1-0.8c0-0.1,0-0.2,0-0.3
		c0-0.2-0.1-0.3-0.3-0.3c-0.4,0-0.7,0.2-0.9,0.5c-0.2,0.2-0.3,0.5-0.3,0.8l-0.2,0.9c0,0.2-0.2,0.3-0.4,0.3c-0.2,0-0.4-0.2-0.4-0.4
		c0,0,0-0.1,0-0.1l1.1-4.6c0-0.2,0.2-0.3,0.4-0.3c0.2,0,0.4,0.2,0.4,0.4c0,0,0,0.1,0,0.1l-0.4,1.8C118,9.5,118.3,9.4,118.6,9.4z"/>
	<path class="st0" d="M126.2,8.6c0,0.2-0.1,1-0.2,1.2c-0.1,0.5-0.2,1-0.3,1.5c-0.2,0.7-0.4,1.3-1.2,1.3c-0.5,0-0.8-0.2-1.1-0.6
		c-0.4-0.4-0.5-1-0.5-1.6c0-1.7,1.2-2.9,2.8-2.9c0.8,0,1.6,0.3,2.2,0.9c0.4,0.5,0.6,1.1,0.6,1.7c0,0.7-0.2,1.4-0.7,2
		c-0.4,0.4-0.9,0.7-1.4,0.7c-0.2,0-0.4-0.2-0.4-0.4c0-0.1,0.1-0.3,0.2-0.3c0.1-0.1,0.2-0.1,0.3-0.1c0.9-0.2,1.3-0.9,1.3-1.8
		c0-1.1-0.7-1.7-1.8-1.8C126.1,8.3,126.2,8.4,126.2,8.6 M124.3,8.8c-0.4,0.4-0.6,1-0.6,1.5c0,0.4,0.1,0.9,0.4,1.2
		c0.1,0.1,0.3,0.2,0.4,0.2c0.1,0,0.3,0,0.3-0.2c0.1-0.2,0.2-0.5,0.2-0.7c0.2-0.7,0.3-1.4,0.4-2.2c0-0.2,0.1-0.4,0.3-0.4
		C125.1,8.2,124.6,8.4,124.3,8.8"/>
	<path class="st1" d="M126.2,8.6c0,0.2-0.1,1-0.2,1.2c-0.1,0.5-0.2,1-0.3,1.5c-0.2,0.7-0.4,1.3-1.2,1.3c-0.5,0-0.8-0.2-1.1-0.6
		c-0.4-0.4-0.5-1-0.5-1.6c0-1.7,1.2-2.9,2.8-2.9c0.8,0,1.6,0.3,2.2,0.9c0.4,0.5,0.6,1.1,0.6,1.7c0,0.7-0.2,1.4-0.7,2
		c-0.4,0.4-0.9,0.7-1.4,0.7c-0.2,0-0.4-0.2-0.4-0.4c0-0.1,0.1-0.3,0.2-0.3c0.1-0.1,0.2-0.1,0.3-0.1c0.9-0.2,1.3-0.9,1.3-1.8
		c0-1.1-0.7-1.7-1.8-1.8C126.1,8.3,126.2,8.4,126.2,8.6z M124.3,8.8c-0.4,0.4-0.6,1-0.6,1.5c0,0.4,0.1,0.9,0.4,1.2
		c0.1,0.1,0.3,0.2,0.4,0.2c0.1,0,0.3,0,0.3-0.2c0.1-0.2,0.2-0.5,0.2-0.7c0.2-0.7,0.3-1.4,0.4-2.2c0-0.2,0.1-0.4,0.3-0.4
		C125.1,8.2,124.6,8.4,124.3,8.8z"/>
	<polygon class="st2" points="83.5,19.4 83.5,19.4 83.5,19.4 	"/>
	<path class="st2" d="M83.8,21.2c0.1,0.2,0.2,0.4,0.4,0.6c0.2,0.2,0.4,0.4,0.6,0.5c0.2,0.1,0.5,0.2,0.8,0.2v-0.5h0l0,0.5l11.3,0
		c0.5,0,1-0.4,1.1-0.9c0.1,0,0.2-0.1,0.3-0.1c0.2-0.1,0.5-0.2,0.7-0.4c0.1,0.1,0.2,0.2,0.3,0.2c0.3,0.2,0.7,0.3,1.1,0.3
		c0.3,0,0.6-0.1,0.8-0.2c0.4-0.2,0.7-0.4,0.9-0.7c0.2-0.3,0.4-0.6,0.5-1l0.4-1.8c0-0.2,0.1-0.4,0.1-0.6c0-0.2,0-0.4-0.1-0.6
		c-0.1-0.2-0.1-0.3-0.2-0.5c-0.2-0.2-0.4-0.4-0.7-0.6c-0.1,0-0.2-0.1-0.2-0.1c-0.1,0-0.1-0.1-0.2-0.1c-0.2-0.1-0.5-0.2-0.8-0.2
		c-0.3,0-0.5,0.1-0.8,0.2c-0.2,0.1-0.4,0.2-0.6,0.4c-0.1-0.1-0.2-0.1-0.3-0.2c-0.1,0-0.1-0.1-0.2-0.1c-0.1,0-0.1-0.1-0.2-0.1
		c-0.2-0.1-0.5-0.1-0.7-0.1c-0.3,0-0.5,0.1-0.8,0.2c-0.3,0.1-0.6,0.4-0.9,0.6c-0.2,0.3-0.4,0.6-0.5,1l-0.1,0.5c0,0,0,0-0.1,0l-9.9,0
		c-0.3,0-0.6,0.1-0.8,0.2c-0.4,0.2-0.7,0.4-1,0.7c-0.3,0.3-0.5,0.7-0.6,1.1c0,0.2-0.1,0.4-0.1,0.5C83.4,20.4,83.5,20.8,83.8,21.2"/>
	<polygon class="st2" points="101.6,22.1 101.6,22.1 101.6,22.1 	"/>
	<polygon class="st2" points="116.4,23.9 116.4,23.9 116.4,23.9 	"/>
	<path class="st2" d="M41.8,22.6c0.1-0.3,0.1-0.5,0.1-0.8c0-0.2,0-0.4-0.1-0.6c0.1,0,0.3,0,0.4-0.1c0.2,0,0.4-0.1,0.6-0.2
		c0.3-0.2,0.5-0.4,0.7-0.6c0.2-0.3,0.4-0.6,0.4-0.9c0.1-0.3,0.1-0.5,0.1-0.8c0-0.2,0-0.5-0.2-0.8c-0.1-0.2-0.2-0.4-0.4-0.5
		c-0.1-0.1-0.2-0.2-0.4-0.3c-0.1,0-0.2-0.1-0.3-0.1c-0.1,0-0.1-0.1-0.2-0.1c-0.2-0.1-0.4-0.1-0.5-0.2c-0.2,0-0.3,0-0.5,0
		c0,0,0,0,0,0l-8.8,0c-0.1-0.3-0.3-0.5-0.4-0.7c-0.1-0.1-0.3-0.2-0.4-0.3c-0.1-0.1-0.2-0.1-0.4-0.2c0,0,0,0-0.1,0
		c-0.2-0.1-0.4-0.2-0.6-0.2c-0.2,0-0.4-0.1-0.6-0.1c0,0,0,0-0.1,0c-0.3,0-0.6,0.1-0.9,0.2c-0.2,0.1-0.4,0.2-0.6,0.4
		c-0.3,0.2-0.5,0.4-0.7,0.7c-0.2,0.3-0.4,0.5-0.7,0.8l0,0c-1.2,1.4-2.4,2.7-3.9,3.9l0,0c0,0,0,0-0.1,0c0.1-0.2,0.1-0.4,0.1-0.7
		c0-0.2,0-0.5-0.1-0.7c-0.1-0.2-0.2-0.4-0.4-0.5c-0.1-0.1-0.2-0.2-0.4-0.3C22.8,19,22.7,19,22.6,19c0,0-0.1-0.1-0.1-0.1
		c-0.2-0.1-0.4-0.2-0.5-0.2c-0.2,0-0.3,0-0.5,0c0,0,0,0,0,0l-4.8,0l0.1-0.5c0.1-0.3,0.1-0.6,0.2-0.9c0-0.2,0-0.4-0.1-0.7
		c-0.1-0.2-0.2-0.4-0.3-0.5c-0.1-0.1-0.2-0.2-0.4-0.3c-0.1-0.1-0.3-0.1-0.4-0.2c0,0,0,0,0,0c-0.2-0.1-0.4-0.2-0.5-0.2
		c-0.2,0-0.3-0.1-0.5-0.1c0,0,0,0,0,0c-0.3,0-0.5,0-0.8,0.1c-0.2,0-0.4,0.1-0.6,0.2c-0.3,0.2-0.6,0.4-0.7,0.7
		c-0.2,0.3-0.3,0.6-0.4,0.9l-0.4,1.4l-5.9,0c-0.3,0-0.5,0-0.8,0.1c-0.4,0.1-0.8,0.3-1.1,0.6c-0.3,0.3-0.5,0.7-0.6,1.1
		c-0.1,0.3-0.1,0.6-0.1,0.8c0,0.2,0,0.4,0.1,0.7c0.1,0.1,0.1,0.2,0.2,0.3c0,0,0,0,0,0.1c0.1,0.2,0.2,0.4,0.4,0.5
		c0.1,0.1,0.2,0.2,0.4,0.3c0.2,0.1,0.4,0.2,0.6,0.2c0.2,0,0.4,0.1,0.5,0.1c0,0,0,0,0,0h0l2.8,0c-0.7,0.8-1.4,1.6-2.1,2.2
		C4.7,27,3.4,28,1.6,29.2l0,0c-0.3,0.2-0.6,0.4-0.8,0.7c-0.1,0.1-0.3,0.3-0.4,0.5c-0.1,0.2-0.2,0.4-0.3,0.6C0,31.2,0,31.5,0,31.7
		c0,0.4,0.1,0.8,0.3,1.2c0.1,0.3,0.2,0.5,0.4,0.7C1,33.8,1.2,34,1.4,34.1c0.3,0.1,0.6,0.2,0.9,0.2h0h0c0.3,0,0.5,0,0.7-0.1
		C3.2,34.1,3.3,34,3.5,34l0,0c0.2-0.1,0.5-0.3,0.8-0.5c0.2-0.1,0.3-0.2,0.5-0.4c0.1,0.1,0.1,0.2,0.2,0.3c0.1,0.1,0.2,0.2,0.4,0.3
		c0.2,0.1,0.4,0.2,0.6,0.2c0.2,0,0.3,0,0.5,0l0,0c0,0,0,0,0.1,0h0H7l-0.2,0.5c-0.1,0.3-0.2,0.6-0.2,1c0,0.2,0,0.4,0.1,0.6
		c0,0.1,0.1,0.2,0.2,0.3c0,0,0,0.1,0,0.1c0.1,0.2,0.2,0.4,0.3,0.5c0.1,0.1,0.2,0.2,0.4,0.3c0.2,0.1,0.4,0.2,0.6,0.2
		c0.2,0,0.4,0.1,0.6,0.1h0h0c0.3,0,0.6,0,0.9-0.1c0.2-0.1,0.4-0.2,0.7-0.3c0.2-0.1,0.3-0.2,0.4-0.3c0.2-0.2,0.3-0.4,0.5-0.7
		c0.1-0.2,0.2-0.5,0.3-0.7l0.5-1.5l1.6,0c0.3,0,0.5,0,0.8-0.1c0.2-0.1,0.4-0.1,0.6-0.2c0.2-0.1,0.4-0.3,0.6-0.5
		c0.1,0.1,0.2,0.3,0.3,0.4l0,0c0.2,0.2,0.4,0.4,0.7,0.6c0.3,0.2,0.6,0.3,1,0.3h0h0c0.4,0,0.7-0.1,1-0.2c0.5-0.2,0.8-0.5,1.2-0.9
		c0.3-0.4,0.6-0.8,0.7-1.3c0.1-0.2,0.1-0.5,0.1-0.7c0-0.2,0-0.3-0.1-0.5c-0.1-0.2-0.2-0.4-0.3-0.6c-0.1-0.2-0.2-0.3-0.3-0.4l0,0
		c-0.3-0.4-0.6-0.7-0.9-1c-0.4-0.4-0.6-0.8-0.9-1.3c-0.3-0.5-0.5-1-0.8-1.7c-0.3-0.7-0.5-1.5-0.7-2.2l4.4,0c0.3,0,0.5,0,0.8-0.1
		c0.2-0.1,0.4-0.1,0.6-0.3c0,0,0.1-0.1,0.1-0.1c0,0.1,0,0.2,0,0.3c0,0.4,0.1,0.8,0.3,1.2c0,0,0,0,0,0c0,0.1-0.1,0.2-0.1,0.3
		c-0.1,0.2-0.1,0.5-0.1,0.7c0,0.2,0,0.5,0.2,0.7c0,0.1,0.1,0.2,0.2,0.2c0,0.1,0,0.1,0.1,0.2c0,0.1,0.1,0.2,0.1,0.2
		c-0.2,0.3-0.4,0.6-0.6,1c0,0.2-0.1,0.3-0.1,0.5c0,0.2,0,0.4,0.1,0.6c0.1,0.1,0.1,0.3,0.2,0.4c0,0,0,0,0,0c0,0,0,0,0,0.1
		c0.1,0.2,0.1,0.3,0.2,0.4c0.1,0.2,0.3,0.3,0.4,0.5c0.1,0.1,0.3,0.2,0.4,0.4l0,0c0.1,0.1,0.3,0.2,0.4,0.3c-1,0.5-2,0.9-3,1.3l0,0
		c-0.2,0.1-0.3,0.1-0.5,0.2c-0.3,0.1-0.5,0.3-0.7,0.6c-0.2,0.3-0.4,0.6-0.4,0.9c-0.1,0.2-0.1,0.5-0.1,0.7c0,0.2,0,0.4,0.1,0.7
		c0.1,0.2,0.1,0.3,0.2,0.5c0,0,0,0,0,0c0.1,0.2,0.1,0.3,0.2,0.5c0.2,0.2,0.4,0.5,0.7,0.6c0.3,0.2,0.6,0.2,0.9,0.2h0h0
		c0.1,0,0.3,0,0.4,0c0.2,0,0.3-0.1,0.5-0.1c0.2,0,0.3-0.1,0.4-0.1c1.7-0.6,3.4-1.5,5.1-2.5c0,0,0,0,0,0l0,0c0.2,0.2,0.3,0.5,0.5,0.7
		c0.1,0.2,0.2,0.4,0.4,0.5c0.2,0.3,0.4,0.5,0.7,0.7c0.1,0.1,0.3,0.2,0.5,0.3c0.2,0.1,0.4,0.1,0.7,0.1h0c0.4,0,0.7-0.1,1-0.2
		c0.2-0.1,0.4-0.2,0.6-0.4c0.2-0.2,0.4-0.4,0.6-0.6c0,0.1,0.1,0.2,0.1,0.3c0.2,0.4,0.5,0.8,0.9,1c0.4,0.3,0.9,0.4,1.4,0.4h0h0
		c0.4,0,0.7-0.1,1-0.2c0.6-0.2,1-0.5,1.5-0.8c0.7-0.5,1.2-1.2,1.7-1.8c0.2-0.3,0.4-0.6,0.6-0.9c0.2-0.3,0.3-0.6,0.4-0.9
		c0.1-0.2,0.1-0.4,0.1-0.6c0-0.2,0-0.5-0.1-0.7c-0.1-0.3-0.3-0.6-0.6-0.9c-0.1-0.1-0.2-0.1-0.3-0.2c0,0-0.1-0.1-0.1-0.1
		c-0.3-0.2-0.6-0.3-1-0.3h0c-0.1,0-0.2,0-0.3,0c0.3-1.1,0.8-2.3,1.1-3.5c0.1-0.4,0.2-0.7,0.2-1.1c0-0.2,0-0.4-0.1-0.6
		c0-0.2-0.1-0.4-0.2-0.6h0.4c0.3,0,0.5,0,0.8-0.1c0.2-0.1,0.4-0.2,0.5-0.3c0.3-0.2,0.5-0.4,0.6-0.6C41.6,23.2,41.7,22.9,41.8,22.6
		 M32.7,32.1c-0.1-0.1-0.2-0.3-0.3-0.4c0,0,0-0.1-0.1-0.1c0.2-0.2,0.4-0.3,0.6-0.5c-0.1,0.2-0.1,0.5-0.2,0.7
		C32.7,31.9,32.7,32,32.7,32.1 M28.9,28.3c-0.2-0.2-0.5-0.4-0.8-0.6l1.6,0C29.5,27.9,29.2,28.1,28.9,28.3"/>
	<polygon class="st2" points="22.9,36.9 22.9,36.9 22.9,36.9 	"/>
	<path class="st2" d="M61.6,22.5c0.6-0.3,1.2-0.7,1.6-1.2c0.5-0.5,0.8-1.2,1-1.9c0.1-0.3,0.1-0.7,0.1-1c0-0.4-0.1-0.8-0.2-1.1
		c-0.2-0.5-0.5-1-1-1.3c-0.2-0.1-0.4-0.2-0.6-0.3c-0.4-0.2-0.9-0.4-1.4-0.4c0,0,0,0-0.1,0c-0.4,0-0.9,0.1-1.3,0.3
		c-0.6,0.3-1.2,0.7-1.6,1.2c-0.3,0.3-0.6,0.7-0.8,1.2c0,0-0.1,0-0.1,0l-10.5,0c-0.3,0-0.6,0.1-0.8,0.2c-0.4,0.2-0.7,0.4-1,0.7
		c-0.3,0.3-0.5,0.7-0.6,1.1c-0.1,0.2-0.1,0.4-0.1,0.6c0,0.2,0,0.5,0.1,0.7c0.1,0.2,0.1,0.3,0.3,0.5c0.1,0.3,0.4,0.6,0.7,0.8
		c0.3,0.2,0.7,0.3,1.1,0.3l10,0c-0.2,0.7-0.4,1.3-0.6,2c-0.4,1.2-0.9,2.3-1.6,3.3l0,0c-0.4,0.6-0.8,1.1-1.2,1.5
		c-0.6,0.6-1.3,1-2,1.3c-0.7,0.3-1.5,0.4-2.4,0.4c0,0,0,0,0,0h0c-0.7,0-1.3-0.1-1.8-0.2c-0.4-0.1-0.8-0.3-1.1-0.5
		c-0.1-0.1-0.3-0.2-0.5-0.3c-0.1-0.1-0.3-0.2-0.5-0.3c-0.1-0.1-0.3-0.1-0.4-0.2c-0.2,0-0.3-0.1-0.5-0.1c-0.3,0-0.6,0.1-0.9,0.2
		c-0.4,0.2-0.7,0.4-1,0.7c-0.3,0.3-0.5,0.7-0.6,1.1c-0.1,0.2-0.1,0.4-0.1,0.6c0,0.4,0.1,0.7,0.3,1c0,0.1,0.1,0.1,0.1,0.2
		c0.1,0.2,0.2,0.5,0.3,0.6c0.3,0.3,0.5,0.6,0.8,0.8c0.3,0.2,0.6,0.3,0.8,0.5l0,0c0.7,0.4,1.5,0.7,2.2,0.8c0.8,0.2,1.6,0.2,2.4,0.2v0
		h0c1,0,2-0.1,2.9-0.3c1.4-0.3,2.8-0.9,4-1.9c1.2-0.9,2.3-2.2,3.3-3.7l0,0c1.6-2.5,2.4-5.2,3.2-7.7C61.6,22.8,61.7,22.6,61.6,22.5"
		/>
	<path class="st2" d="M81.4,20c0-0.2,0-0.4-0.1-0.6c-0.1-0.2-0.1-0.4-0.3-0.6l0,0c-0.2-0.3-0.5-0.6-0.8-0.8
		c-0.1-0.1-0.2-0.1-0.3-0.1c0,0-0.1-0.1-0.1-0.1c-0.3-0.2-0.7-0.2-1-0.2l-11.5,0c-0.4,0-0.7,0.1-1,0.2c-0.5,0.2-0.9,0.5-1.2,0.8
		c-0.3,0.4-0.6,0.8-0.7,1.3l-3.4,12.7c-0.1,0.2-0.1,0.5-0.1,0.7c0,0.3,0,0.6,0.1,0.8c0.1,0.1,0.1,0.3,0.2,0.4c0,0,0,0,0,0
		c0.2,0.4,0.4,0.8,0.8,1.1c0.4,0.3,0.8,0.4,1.3,0.4L75,36c0.4,0,0.7-0.1,1.1-0.2c0.5-0.2,0.9-0.5,1.3-0.9c0.3-0.4,0.6-0.9,0.8-1.4
		l3.3-12.8C81.4,20.5,81.4,20.2,81.4,20 M66.4,31l2.3-8.6l7.3,0L73.7,31L66.4,31z"/>
	<polygon class="st2" points="90.7,34.4 90.7,34.4 90.7,34.4 	"/>
	<path class="st2" d="M98.4,27.7c0.4-0.2,0.7-0.4,1-0.7c0.3-0.3,0.5-0.7,0.6-1.1c0-0.2,0.1-0.4,0.1-0.6c0-0.3,0-0.5-0.1-0.8
		c-0.1-0.4-0.4-0.7-0.7-0.9c-0.1-0.1-0.2-0.2-0.4-0.2c0,0,0,0-0.1,0c-0.3-0.2-0.7-0.3-1.1-0.3l-14.3,0c-0.3,0-0.6,0.1-0.8,0.2
		c-0.4,0.2-0.7,0.4-1,0.7c-0.3,0.3-0.5,0.7-0.6,1.1c0,0.2-0.1,0.4-0.1,0.6c0,0.2,0,0.5,0.1,0.7c0.1,0.1,0.1,0.3,0.2,0.4c0,0,0,0,0,0
		c0.1,0.4,0.4,0.7,0.7,0.9c0.3,0.2,0.7,0.3,1.1,0.3v-0.5h0v0.5l6.3,0c0,0,0,0,0,0c-0.2,0.6-0.5,1.1-0.9,1.6
		c-0.2,0.3-0.5,0.6-0.8,0.8c-0.4,0.3-0.8,0.5-1.3,0.6c-0.5,0.1-0.9,0.2-1.5,0.2c0,0,0,0,0,0c-0.7,0-1.2-0.1-1.7-0.3v0
		c-0.2-0.1-0.4-0.2-0.6-0.2c-0.2-0.1-0.4-0.1-0.6-0.1c-0.3,0-0.6,0.1-0.8,0.2c-0.4,0.2-0.7,0.4-1,0.7c-0.3,0.3-0.5,0.7-0.6,1.1
		c0,0.2-0.1,0.4-0.1,0.6c0,0.3,0.1,0.7,0.2,0.9c0,0.1,0.1,0.1,0.1,0.2c0,0.1,0.1,0.2,0.1,0.3c0.1,0.3,0.3,0.5,0.5,0.6
		c0.3,0.3,0.7,0.5,1.1,0.7c0.6,0.2,1.1,0.4,1.7,0.4c0.5,0.1,1,0.1,1.4,0.1c0,0,0,0,0,0c0,0,0,0,0,0c0.9,0,2-0.1,3-0.4
		c1-0.3,2-0.8,3-1.5c0.6-0.5,1.1-1,1.6-1.6c0.7-0.9,1.2-1.8,1.6-2.8c0.3-0.7,0.6-1.4,0.8-2l2.9,0C97.8,27.9,98.1,27.9,98.4,27.7"/>
	<path class="st2" d="M113.6,31.8c-0.1-0.1-0.2-0.1-0.3-0.2c-0.1,0-0.1-0.1-0.2-0.1c-0.3-0.2-0.7-0.3-1-0.3v0.3h0v-0.3h-0.6l2.6-7.7
		l0,0c0.1-0.3,0.2-0.6,0.2-0.9c0-0.3,0-0.5-0.1-0.8c-0.1-0.2-0.2-0.4-0.3-0.5c-0.2-0.2-0.5-0.5-0.7-0.6c0,0-0.1,0-0.1,0
		c0,0,0,0-0.1,0c-0.3-0.2-0.7-0.3-1.1-0.3l-7.8,0c-0.3,0-0.6,0.1-0.8,0.2c-0.4,0.2-0.7,0.4-0.9,0.7c-0.3,0.3-0.5,0.7-0.6,1.1
		c0,0.2-0.1,0.3-0.1,0.5c0,0.2,0,0.5,0.1,0.7c0.1,0.2,0.1,0.3,0.2,0.5c0.1,0.3,0.4,0.6,0.7,0.8c0.3,0.2,0.7,0.4,1.1,0.4l4.9,0
		l-2.1,6.2l-6.3,0c-0.3,0-0.6,0.1-0.8,0.2c-0.4,0.2-0.7,0.4-0.9,0.7c-0.3,0.3-0.5,0.7-0.6,1.1c0,0.2-0.1,0.3-0.1,0.5
		c0,0.2,0,0.5,0.1,0.7c0,0.1,0.1,0.3,0.2,0.4c0,0,0,0.1,0,0.1c0.1,0.4,0.4,0.7,0.7,0.9c0.3,0.2,0.7,0.3,1.1,0.3l11.9,0
		c0.3,0,0.6-0.1,0.9-0.2c0.4-0.2,0.7-0.4,1-0.7c0.3-0.3,0.5-0.7,0.6-1.1c0-0.2,0.1-0.4,0.1-0.5c0-0.3,0-0.5-0.1-0.7
		C114.1,32.3,113.9,32,113.6,31.8"/>
	<path class="st2" d="M131.2,28.5c0.4-0.2,0.8-0.5,1.1-0.8c0.3-0.3,0.5-0.8,0.6-1.2c0-0.2,0.1-0.4,0.1-0.5c0-0.5-0.2-1.1-0.6-1.5
		c-0.2-0.2-0.4-0.4-0.7-0.5c0,0,0,0,0,0c-0.1-0.1-0.3-0.2-0.4-0.2c-0.2-0.1-0.5-0.2-0.8-0.2v0.2h0v-0.2l-12.9,0
		c-0.2,0-0.4,0-0.6,0.1c-0.2,0.1-0.4,0.1-0.5,0.2c-0.4,0.2-0.7,0.5-0.9,0.8c-0.2,0.3-0.4,0.6-0.4,1c0,0.2-0.1,0.3-0.1,0.5
		c0,0.4,0.1,0.8,0.4,1.2c0.1,0.4,0.4,0.7,0.7,1c0.3,0.2,0.8,0.4,1.2,0.4l13,0C130.6,28.7,131,28.6,131.2,28.5"/>
	<path class="st2" d="M147.7,33.1c-0.1-0.2-0.2-0.4-0.2-0.6l0,0l-2.5-4.8c0.6-1.2,1.2-2.5,1.6-3.7l0,0c0.3-0.7,0.5-1.4,0.6-1.9
		c0.2-0.6,0.3-1.1,0.4-1.6c0-0.2,0.1-0.4,0.1-0.6c0-0.3,0-0.5-0.1-0.8c-0.1-0.2-0.2-0.4-0.3-0.6c-0.2-0.3-0.4-0.5-0.8-0.7
		c-0.1,0-0.2-0.1-0.3-0.1c0,0-0.1-0.1-0.2-0.1c-0.3-0.2-0.6-0.2-1-0.2l-10.2,0c-0.3,0-0.6,0.1-0.9,0.2c-0.4,0.2-0.7,0.4-1,0.7
		c-0.3,0.3-0.5,0.7-0.6,1.1c0,0.2-0.1,0.3-0.1,0.5c0,0.4,0.1,0.9,0.4,1.2c0.1,0.3,0.4,0.6,0.7,0.8c0.3,0.2,0.8,0.4,1.2,0.4l7.3,0
		c-0.3,0.8-0.6,1.6-1,2.4c-0.6,1.3-1.4,2.6-2.3,3.7l0,0c-0.7,0.8-1.5,1.6-2.4,2.1c-0.4,0.3-0.9,0.5-1.3,0.6
		c-0.4,0.1-0.8,0.2-1.3,0.2c0,0,0,0,0,0h0c-0.2,0-0.4,0-0.6-0.1c-0.2,0-0.4-0.1-0.5-0.2l0,0c-0.2-0.1-0.4-0.2-0.6-0.3
		c-0.1,0-0.2-0.1-0.3-0.1c-0.1,0-0.2,0-0.4,0c-0.3,0-0.6,0.1-0.9,0.2c-0.4,0.2-0.7,0.4-1,0.7c-0.3,0.3-0.5,0.7-0.6,1.1
		c0,0.2-0.1,0.3-0.1,0.5c0,0.4,0.1,0.7,0.3,1c0,0,0,0.1,0.1,0.1c0,0.1,0.1,0.3,0.2,0.4c0.2,0.3,0.4,0.6,0.7,0.7l0,0c0,0,0,0,0,0
		c0,0,0,0,0,0l0,0c0.5,0.4,1.1,0.6,1.7,0.8c0.6,0.2,1.2,0.2,1.8,0.2v0c0,0,0,0,0,0c0,0,0,0,0,0c1.8,0,3.6-0.5,5.1-1.5
		c1.1-0.7,2.2-1.6,3.1-2.6l1.6,3l0,0c0.2,0.3,0.4,0.6,0.7,0.8c0.3,0.2,0.7,0.3,1.1,0.3c0.3,0,0.6-0.1,0.9-0.2c0.4-0.2,0.8-0.5,1-0.8
		c0.3-0.3,0.5-0.7,0.6-1.2c0-0.2,0.1-0.3,0.1-0.5C147.9,33.6,147.8,33.4,147.7,33.1"/>
	<path class="st0" d="M13.9,29.9c0.8,0,1.1,0.4,0.8,1.3c-0.3,0.8-0.8,1.1-1.5,1.1l-2.4,0l-0.7,2.3c-0.3,1-0.8,1.3-1.7,1.3
		c-0.8,0-1-0.5-0.7-1.3l0.7-2.3l-2.4,0c-0.8,0-1.1-0.4-0.8-1.3c0.3-0.8,0.8-1.1,1.5-1.1l2.4,0l1.6-5.4c-1.7,2.2-3.3,4-5.4,5.9
		c-0.7,0.6-2,1.7-2.8,2.1c-0.2,0.1-0.4,0.2-0.7,0.2c-0.7,0-1.2-0.7-0.9-1.5c0.2-0.6,0.6-0.9,1.1-1.3c3.6-2.4,5.8-4.5,8.4-7.9l-5.5,0
		c-0.8,0-1.1-0.4-0.8-1.3C4.5,20,5,19.6,5.8,19.6l6.6,0l0.6-2.1c0.3-1,0.8-1.2,1.7-1.2c0.8,0,1,0.4,0.7,1.2l-0.6,2.1l6.7,0
		c0.8,0,1,0.4,0.8,1.3c-0.3,0.8-0.8,1.2-1.5,1.2l-5.7,0c0.1,1.4,0.5,2.5,0.9,3.7c0.8,2,1.4,2.8,2.8,4.3c0.3,0.3,0.4,0.6,0.3,1.1
		c-0.2,0.8-1.1,1.6-1.9,1.6c-0.4,0-0.6-0.2-0.8-0.4c-0.6-0.8-1.1-1.6-1.6-2.5c-0.9-1.7-1.2-3.3-1.6-5.3l-1.6,5.5L13.9,29.9z"/>
	<path class="st0" d="M41.8,17.7c0.7,0,1.1,0.3,0.8,1.1c-0.2,0.8-0.8,1.1-1.5,1.1l-11.6,0c-0.4,0.4-0.8,0.8-1.1,1.3
		c0.3-0.2,0.5-0.2,0.8-0.2l10.6,0c0.7,0,0.9,0.4,0.7,1.1c-0.2,0.7-0.6,1-1.3,1l-10.6,0c-0.7,0-0.9-0.4-0.7-1.1
		c0.1-0.2,0.1-0.3,0.2-0.5c-0.9,0.9-1.9,1.9-2.9,2.7l11,0c1.2,0,2,0.3,1.6,1.9c-0.4,1.3-0.9,2.6-1.2,3.9l-0.1,0.2
		c-0.2,0.8-0.7,2.6-0.1,2.6c0.3,0,0.5-0.4,0.7-0.6c0.5-0.7,0.9-1,1.3-1c0.5,0,0.8,0.5,0.7,1.1c-0.3,1.1-2.3,3.8-4.1,3.8
		c-0.8,0-1.4-0.6-1.5-1.4c-0.2-1.2,0.2-3,0.6-4.4c0.3-1,0.6-2.1,0.9-3.1c0.1-0.4,0.2-0.9-0.5-0.9l-10,0c-0.7,0-1-0.3-0.8-1.1
		c0.1-0.3,0.2-0.6,0.5-0.8c-0.5-0.1-0.8-0.8-0.6-1.4c0.1-0.4,0.4-0.7,0.8-1c1.5-1.2,2.8-2.5,4-4c1-1.1,1.4-1.8,2.2-1.8
		c0.5,0,1.3,0.3,1.1,1c-0.1,0.2-0.1,0.3-0.3,0.5L41.8,17.7z M24.2,29.5c-0.5-0.4-0.8-0.7-0.7-1.2c0.2-0.7,0.9-1.3,1.5-1.3
		c0.8,0,3.1,2,3.7,2.6c1.2-0.8,2-1.5,3.1-2.4c0.3-0.3,0.6-0.5,1-0.5c0.6,0,1.1,0.5,0.9,1.2c-0.1,0.5-0.7,1-1.4,1.6
		C31.7,30,31,30.5,30.3,31c0.6,0.7,1.1,1.2,1.6,2c0.2,0.3,0.3,0.5,0.2,0.9c-0.2,0.7-1,1.4-1.7,1.4c-0.6,0-1.1-0.9-1.8-1.9
		c-0.2-0.3-0.4-0.6-0.7-0.8c-1.9,1.2-3.8,2.2-5.7,2.9c-0.3,0.1-0.6,0.2-0.9,0.2c-0.7,0-1-0.7-0.8-1.4c0.2-0.6,0.5-0.9,1.1-1.1
		c1.6-0.6,3.2-1.3,4.7-2.1C25.5,30.3,24.7,29.8,24.2,29.5"/>
	<path class="st0" d="M57.7,21.4l-11.6,0c-0.6,0-1-0.6-0.8-1.3c0.2-0.7,0.9-1.3,1.5-1.3l10.5,0C57.1,19.8,57.2,20.7,57.7,21.4
		 M59.6,22.3c0.2,0,0.4,0,0.6,0c-0.8,2.5-1.6,5-3.1,7.4c-2.4,3.9-5.5,5.4-9.3,5.4c-1.5,0-2.9-0.3-4.1-0.9c-0.8-0.4-1.8-1-1.5-2
		c0.2-0.7,0.9-1.3,1.6-1.3c0.3,0,0.5,0.2,0.9,0.4c1.1,0.8,2.4,1.1,3.9,1.1c2.6,0,4.7-1,6.4-3.7c1.4-2.2,2.1-4.7,2.8-7.1
		C58.3,22,58.9,22.3,59.6,22.3 M59.8,21.4c-1.3,0-2.1-1.2-1.7-2.5c0.4-1.4,1.8-2.6,3.1-2.6c1.3,0,2.1,1.1,1.7,2.5
		C62.5,20.2,61.1,21.4,59.8,21.4 M60.8,17.6c-0.6,0-1.3,0.6-1.4,1.2c-0.2,0.6,0.2,1.2,0.8,1.2c0.6,0,1.3-0.6,1.4-1.2
		C61.8,18.1,61.5,17.6,60.8,17.6"/>
	<path class="st0" d="M76.6,32.8c-0.2,0.9-1.1,1.7-2,1.7l-11.7,0c-0.8,0-1.4-0.8-1.1-1.7l3.4-12.7c0.2-0.9,1.2-1.7,2-1.7l11.5,0
		c0.4,0,0.8,0.2,1,0.5c0.2,0.3,0.2,0.7,0.1,1.1L76.6,32.8z M67.4,21l-2.9,11l9.9,0l2.8-11L67.4,21z"/>
	<path class="st0" d="M82.8,26.5c-0.6,0-1-0.5-0.9-1.2c0.2-0.7,0.8-1.2,1.4-1.2l14.3,0c0.6,0,1,0.6,0.8,1.2
		c-0.2,0.7-0.8,1.2-1.4,1.2l-3.6,0c-0.7,2.3-1.7,5-3.8,6.7c-1.6,1.3-3.5,1.7-5.2,1.7c-1.2,0-4.1-0.4-3.7-2.1
		c0.2-0.7,0.9-1.3,1.5-1.3c0.2,0,0.4,0.1,0.8,0.2c0.7,0.3,1.4,0.4,2.1,0.4c1.5,0,3.1-0.4,4.2-1.9c0.8-1.1,1.3-2.5,1.7-3.7L82.8,26.5
		z M85.2,20.9c-0.6,0-1-0.6-0.8-1.2c0.2-0.7,0.8-1.2,1.5-1.2l9.9,0L95.6,19c-0.2,0.9,0.2,1.7,0.9,1.9L85.2,20.9z M98.3,19
		c-0.1,0.6-0.7,1-1.2,1c-0.5,0-0.8-0.5-0.7-1l0.5-1.9c0.1-0.6,0.7-1,1.2-1c0.6,0,0.8,0.4,0.7,1L98.3,19z M101.1,19
		c-0.1,0.6-0.7,1-1.2,1c-0.5,0-0.8-0.5-0.7-1l0.5-1.9c0.1-0.6,0.7-1,1.2-1c0.6,0,0.8,0.5,0.7,1.1L101.1,19z"/>
	<path class="st0" d="M112.1,32.1c0.6,0,1,0.5,0.8,1.2c-0.1,0.6-0.8,1.2-1.4,1.2l-11.9,0c-0.6,0-1-0.5-0.8-1.2
		c0.2-0.6,0.8-1.2,1.4-1.2l7,0l2.9-8.6l-6.8,0c-0.6,0-1-0.5-0.8-1.2c0.2-0.7,0.8-1.2,1.4-1.2l7.8,0c0.8,0,1.2,0.7,0.9,1.6l-3.2,9.4
		L112.1,32.1z"/>
	<path class="st0" d="M130.5,24.5c0.7,0,1.1,0.6,1,1.3c-0.2,0.7-0.9,1.4-1.5,1.4l-13,0c-0.7,0-1.1-0.6-1-1.3
		c0.1-0.5,0.4-0.9,0.9-1.2c0.2-0.1,0.5-0.2,0.7-0.2L130.5,24.5z"/>
	<path class="st0" d="M146.2,32.7c0.2,0.3,0.3,0.6,0.2,1.1c-0.1,0.7-0.8,1.3-1.5,1.3c-0.4,0-0.7-0.2-0.9-0.5l-2.4-4.5
		c-2.2,3-5.2,4.9-8.4,4.9c-1,0-2.1-0.3-2.9-0.8c-0.4-0.3-0.6-0.7-0.5-1.2c0.2-0.7,0.8-1.3,1.5-1.3c0.2,0,0.5,0.1,0.9,0.3
		c0.5,0.2,1,0.3,1.6,0.3c2.1,0,4.1-1.4,5.7-3.2c2-2.4,3.2-5.3,4-8.1l-9,0c-0.6,0-1.1-0.6-0.9-1.3c0.1-0.7,0.8-1.3,1.5-1.3l10.2,0
		c0.8,0,1.2,0.8,1.1,1.6c-0.2,0.9-0.5,1.9-1,3.3c-0.5,1.4-1.1,2.8-1.9,4.1L146.2,32.7z"/>
	<path class="st3" d="M20.8,12.5c-0.2,0.1-0.6,0.5-0.9,0.5c-0.2,0-0.4-0.2-0.4-0.5c0-0.2,0.1-0.3,0.3-0.4c0.7-0.4,1.3-0.9,1.7-1.6
		c0.2-0.4,0.3-0.7,0.4-1.1h-2c-0.3,0-0.4-0.1-0.4-0.4c0-0.3,0.2-0.4,0.4-0.4H22V7.5c0-0.3,0.2-0.4,0.4-0.4c0.2,0,0.4,0.1,0.4,0.4
		v1.1H25c0.3,0,0.4,0.1,0.4,0.4c0,0.3-0.2,0.4-0.4,0.4h-2c0.3,1.4,0.8,2.1,2.1,2.7c0.2,0.1,0.3,0.2,0.3,0.4c0,0.2-0.2,0.5-0.4,0.5
		c-0.3,0-1.1-0.6-1.4-0.9c-0.5-0.5-0.8-1-1.1-1.7C22.1,11.3,21.6,11.9,20.8,12.5"/>
	<path class="st3" d="M28.1,12c-0.3,0.3-1,0.9-1.4,0.9c-0.2,0-0.4-0.2-0.4-0.5c0-0.2,0.1-0.3,0.2-0.3c0.8-0.5,1.4-1,1.8-1.9
		c0.2-0.5,0.3-1,0.4-1.5c0-0.1,0-0.5,0-0.6V7.5c0-0.3,0.2-0.4,0.4-0.4c0.3,0,0.4,0.1,0.4,0.4v0.6c0,0.7,0.1,1.5,0.4,2.1
		c0.4,0.8,1,1.4,1.8,1.9c0.2,0.1,0.3,0.2,0.3,0.4c0,0.2-0.2,0.5-0.5,0.5c-0.4,0-1.2-0.8-1.5-1.1c-0.5-0.6-0.8-1.2-1-2
		C29,10.7,28.7,11.4,28.1,12"/>
	<path class="st3" d="M38.6,7.5c0.2,0,0.4,0.1,0.4,0.3c0,0.2-0.2,0.3-0.4,0.3h-3.8c-0.1,0.1-0.2,0.3-0.3,0.4
		c0.1-0.1,0.1-0.1,0.2-0.1h3.5c0.2,0,0.3,0.1,0.3,0.3c0,0.2-0.1,0.3-0.3,0.3h-3.5c-0.2,0-0.3-0.1-0.3-0.3c0-0.1,0-0.1,0-0.2
		c-0.2,0.3-0.4,0.6-0.7,0.8h3.6c0.4,0,0.7,0.1,0.7,0.6c0,0.4,0,0.8,0,1.2v0.1c0,0.2,0,0.8,0.2,0.8c0.1,0,0.1-0.1,0.2-0.2
		c0.1-0.2,0.2-0.3,0.3-0.3c0.2,0,0.3,0.1,0.3,0.3c0,0.3-0.4,1.1-1,1.1c-0.3,0-0.5-0.2-0.6-0.4c-0.2-0.4-0.2-0.9-0.2-1.3
		c0-0.3,0-0.6,0-0.9c0-0.1,0-0.3-0.3-0.3h-3.3c-0.2,0-0.4-0.1-0.4-0.3c0-0.1,0-0.2,0.1-0.2c-0.2,0-0.3-0.2-0.3-0.4
		c0-0.1,0.1-0.2,0.2-0.3C33.7,8.4,34,8,34.2,7.6C34.4,7.2,34.5,7,34.8,7c0.2,0,0.4,0.1,0.4,0.3c0,0.1,0,0.1,0,0.2H38.6z M34,11.1
		c-0.2-0.1-0.3-0.2-0.3-0.4c0-0.2,0.2-0.4,0.4-0.4c0.3,0,1.2,0.6,1.5,0.8c0.3-0.2,0.5-0.4,0.8-0.7c0.1-0.1,0.1-0.1,0.3-0.1
		c0.2,0,0.4,0.2,0.4,0.4c0,0.2-0.1,0.3-0.3,0.5c-0.2,0.2-0.3,0.3-0.5,0.5c0.3,0.2,0.5,0.4,0.7,0.6c0.1,0.1,0.1,0.2,0.1,0.3
		c0,0.2-0.2,0.4-0.4,0.4c-0.2,0-0.4-0.3-0.8-0.6c-0.1-0.1-0.2-0.2-0.3-0.2c-0.5,0.3-1,0.6-1.6,0.9c-0.1,0-0.2,0.1-0.3,0.1
		c-0.2,0-0.4-0.2-0.4-0.4c0-0.2,0.1-0.3,0.2-0.3c0.5-0.2,0.9-0.4,1.3-0.6C34.5,11.3,34.2,11.2,34,11.1"/>
	<path class="st3" d="M43.4,10.6h2.2c0.2,0,0.3,0.1,0.3,0.3c0,0.2-0.1,0.3-0.3,0.3h-1.7c0.1,0.1,0.2,0.2,0.3,0.3
		c0.3,0.2,0.7,0.4,1.1,0.5c0.6,0.1,0.7,0.2,0.7,0.4c0,0.2-0.1,0.5-0.4,0.5c-0.4,0-1.1-0.3-1.5-0.5c-0.4-0.2-0.8-0.6-1-1
		c-0.3,0.5-0.7,0.9-1.2,1.2C41.6,12.7,41,13,40.7,13c-0.2,0-0.4-0.2-0.4-0.4c0-0.2,0.1-0.3,0.7-0.4c0.5-0.1,1.1-0.4,1.4-0.9h-1.7
		c-0.2,0-0.3-0.1-0.3-0.3c0-0.2,0.1-0.3,0.3-0.3h2c0-0.1,0-0.2,0.1-0.3h-2.2c-0.2,0-0.3-0.1-0.3-0.3c0-0.2,0.1-0.3,0.3-0.3h2.2V9.2
		h-1.8c-0.2,0-0.3-0.1-0.3-0.3c0-0.2,0.1-0.3,0.3-0.3h1.8V8.3h-2c-0.2,0-0.3-0.1-0.3-0.3c0-0.2,0.1-0.3,0.3-0.3h1
		c0-0.1-0.1-0.3-0.1-0.3c0-0.2,0.3-0.3,0.5-0.3c0.1,0,0.3,0,0.3,0.2c0.1,0.1,0.1,0.3,0.2,0.4h1.1c0.1-0.2,0.1-0.3,0.2-0.4
		c0.1-0.2,0.2-0.2,0.4-0.2c0.1,0,0.4,0.1,0.4,0.2c0,0.1-0.1,0.3-0.1,0.3h1c0.2,0,0.3,0.1,0.3,0.3c0,0.2-0.1,0.3-0.3,0.3h-2v0.3h1.8
		c0.2,0,0.3,0.1,0.3,0.3c0,0.2-0.1,0.3-0.3,0.3h-1.8v0.3h2.2c0.2,0,0.3,0.1,0.3,0.3c0,0.2-0.1,0.3-0.3,0.3h-2.3
		C43.4,10.3,43.4,10.4,43.4,10.6"/>
	<path class="st3" d="M47.5,11.2c-0.2,0-0.3-0.2-0.3-0.4c0-0.2,0.1-0.3,0.3-0.3c0.8-0.3,1.3-0.5,2-1c0.2-0.2,0.3-0.3,0.7-0.3
		c0.3,0,0.4,0.1,0.6,0.3c0.7,0.6,1.1,0.8,2,1c0.2,0.1,0.3,0.1,0.3,0.3c0,0.2-0.1,0.4-0.4,0.4c-0.1,0-0.2,0-0.4-0.1
		c0,0.1,0,0.2,0,0.3v0.8c0,0.5-0.2,0.7-0.7,0.7h-2.9c-0.5,0-0.7-0.2-0.7-0.7v-0.8c0-0.1,0-0.2,0-0.3C47.7,11.2,47.6,11.2,47.5,11.2
		 M52.2,7.6c0.5,0,0.7,0.2,0.7,0.7v0.4c0,0.2-0.1,0.4-0.4,0.4c-0.2,0-0.4-0.1-0.4-0.4V8.4c0-0.1-0.1-0.2-0.2-0.2h-3.6
		c-0.1,0-0.2,0.1-0.2,0.2v0.3c0,0.3-0.2,0.3-0.4,0.3c-0.2,0-0.4-0.1-0.4-0.3V8.3c0-0.5,0.2-0.7,0.7-0.7h1.7V7.4
		c0-0.3,0.2-0.3,0.4-0.3c0.2,0,0.4,0.1,0.4,0.3v0.2H52.2z M49.5,8.9c-0.2,0.1-0.5,0.4-0.7,0.5c-0.2,0.1-0.8,0.5-1,0.5
		c-0.2,0-0.3-0.2-0.3-0.4c0-0.2,0.1-0.2,0.2-0.3C48.3,9,48.4,8.9,49,8.5c0.1-0.1,0.2-0.1,0.3-0.1c0.2,0,0.3,0.2,0.3,0.3
		C49.6,8.8,49.6,8.9,49.5,8.9 M48.9,11.3c-0.1,0-0.2,0.1-0.2,0.2V12c0,0.1,0.1,0.2,0.2,0.2h2.4c0.1,0,0.2-0.1,0.2-0.2v-0.5
		c0-0.1-0.1-0.2-0.2-0.2H48.9z M51.3,10.7c-0.3-0.2-0.9-0.5-1.1-0.8c0,0-0.1,0-0.1,0c0,0-0.1,0-0.1,0.1c-0.3,0.3-0.7,0.6-1.1,0.8
		H51.3z M51.5,8.7c0.3,0.3,0.6,0.4,1,0.6c0.1,0.1,0.2,0.1,0.2,0.3c0,0.2-0.1,0.4-0.3,0.4c-0.2,0-0.8-0.3-1-0.5
		c-0.2-0.1-0.6-0.4-0.7-0.5c-0.1-0.1-0.1-0.1-0.1-0.2c0-0.2,0.2-0.3,0.4-0.3C51.2,8.4,51.3,8.6,51.5,8.7"/>
	<path class="st3" d="M55.4,9.6c-0.2,0.2-0.5,0.6-0.8,0.6c-0.2,0-0.4-0.2-0.4-0.4c0-0.2,0.1-0.3,0.2-0.4c0.4-0.3,0.6-0.8,0.8-1.2
		c0-0.2,0.1-0.3,0.2-0.4c0.1-0.1,0.2-0.1,0.4-0.1h3c0.3,0,0.5,0.1,0.6,0.4c0,0.1,0,0.2,0,0.4c0,0.3,0,0.7-0.1,1
		c-0.1,0.6-0.2,1.1-0.4,1.6c-0.5,1-1.4,1.6-2.5,1.6c-0.6,0-1.2-0.1-1.7-0.4c-0.2-0.1-0.3-0.2-0.3-0.4c0-0.2,0.2-0.4,0.4-0.4
		c0.1,0,0.2,0,0.4,0.2c0.3,0.2,0.7,0.3,1.1,0.3c1.9,0,2.2-1.9,2.2-3.4h-2.6C55.8,8.9,55.7,9.3,55.4,9.6"/>
	<path class="st3" d="M65.4,9.3c0,1.8-0.6,3.4-2.7,3.4c-0.5,0-1-0.1-1.4-0.3c-0.2-0.1-0.5-0.2-0.5-0.5c0-0.2,0.2-0.4,0.4-0.4
		c0.1,0,0.2,0,0.4,0.1c0.3,0.2,0.7,0.2,1.1,0.2c0.7,0,1.3-0.2,1.6-0.8c0.3-0.5,0.3-1.2,0.3-1.8V7.9c0-0.3,0.2-0.4,0.4-0.4
		c0.1,0,0.2,0.1,0.3,0.1c0.1,0.1,0.1,0.2,0.1,0.3V9.3z M61.7,10.1c0,0.2-0.2,0.4-0.4,0.4s-0.4-0.2-0.4-0.4V7.9
		c0-0.2,0.2-0.4,0.4-0.4c0.1,0,0.2,0.1,0.3,0.2c0.1,0.1,0.1,0.1,0.1,0.2V10.1z"/>
	<path class="st3" d="M69.7,11.8h1.9c0.2,0,0.4,0.2,0.4,0.4c0,0.2-0.2,0.4-0.4,0.4H67c-0.2,0-0.4-0.2-0.4-0.4c0-0.2,0.2-0.4,0.4-0.4
		h1.8V8.7h-1.6c-0.2,0-0.4-0.2-0.4-0.4c0-0.2,0.2-0.4,0.4-0.4h4.1c0.2,0,0.4,0.2,0.4,0.4c0,0.2-0.2,0.4-0.4,0.4h-1.7V11.8z"/>
	<path class="st3" d="M76.2,12.4c0,0.2-0.2,0.4-0.4,0.4c-0.2,0-0.4-0.2-0.4-0.4V9.8c-0.5,0.1-1,0.2-1.6,0.2c-0.6,0-1-0.1-1-0.5
		c0-0.2,0.2-0.4,0.4-0.4c0.1,0,0.2,0,0.3,0c0.1,0,0.2,0,0.3,0c0.7,0,1.5-0.2,2.1-0.5c0.5-0.2,0.9-0.6,1.2-1c0.1-0.1,0.2-0.3,0.4-0.3
		c0.2,0,0.4,0.2,0.4,0.4c0,0.3-0.4,0.6-0.5,0.8c-0.4,0.4-0.8,0.7-1.3,0.9V12.4z"/>
	<path class="st3" d="M83.4,8.5h-2.5C80.6,9,80.5,9.3,80,9.8c-0.2,0.2-0.5,0.4-0.7,0.4c-0.2,0-0.4-0.2-0.4-0.4
		c0-0.2,0.1-0.3,0.2-0.4c0.4-0.3,0.7-0.7,0.9-1.2c0.1-0.3,0.2-0.5,0.5-0.5h3.1c0.3,0,0.5,0.2,0.5,0.5c0,0.4,0,0.8-0.1,1.2
		c0,0.3-0.1,0.6-0.2,0.9l0.2,0.1c0.2,0,0.3,0.2,0.3,0.4c0,0.2-0.2,0.4-0.5,0.4l-0.3-0.1c-0.5,1.1-1.3,1.7-2.5,1.7
		c-0.5,0-1.1-0.1-1.6-0.4c-0.2-0.1-0.3-0.2-0.3-0.4c0-0.2,0.2-0.4,0.4-0.4c0.1,0,0.1,0,0.2,0.1c0.4,0.2,0.9,0.3,1.3,0.3
		c0.8,0,1.4-0.3,1.8-1.1L81,10.4c-0.2,0-0.3-0.2-0.3-0.4c0-0.3,0.2-0.4,0.5-0.4l1.9,0.5C83.3,9.6,83.3,9,83.4,8.5"/>
	<path class="st3" d="M90.3,9.6c0.2,0,0.4,0.2,0.4,0.4c0,0.2-0.2,0.4-0.4,0.4h-4.2c-0.2,0-0.4-0.2-0.4-0.4c0-0.1,0.1-0.3,0.2-0.3
		c0.1,0,0.1-0.1,0.2-0.1H90.3z"/>
	<path class="st3" d="M92.7,7.8c0-0.2,0.1-0.5,0.4-0.5c0.2,0,0.3,0.1,0.4,0.3l0.2,0.7c0.5-0.1,1.1-0.3,1.6-0.3l0.1-0.5
		c0-0.2,0.2-0.3,0.4-0.3c0.2,0,0.4,0.2,0.4,0.5L96,8c0.8,0.1,1.5,0.6,1.5,1.5c0,1-0.6,1.8-1.6,1.8c-0.3,0-0.9-0.1-0.9-0.5
		c0-0.2,0.2-0.4,0.4-0.4c0.1,0,0.1,0,0.2,0c0.2,0,0.2,0,0.3,0c0.6,0,0.9-0.4,0.9-1c0-0.5-0.4-0.7-0.8-0.8l-0.1,0.8
		c0,0.2-0.2,0.3-0.4,0.3c-0.3,0-0.4-0.2-0.4-0.5l0.1-0.6c-0.4,0.1-0.9,0.2-1.3,0.3l0.7,3.3c0,0.2-0.2,0.5-0.4,0.5
		c-0.2,0-0.4-0.1-0.4-0.3L93,9.3c-0.2,0.1-0.6,0.2-0.7,0.2c-0.2,0-0.4-0.2-0.4-0.4c0-0.2,0.1-0.3,0.3-0.4c0.2-0.1,0.4-0.1,0.6-0.2
		L92.7,7.8z"/>
	<path class="st3" d="M101.5,9.9l-0.3,1.3c-0.1,0.4-0.2,0.9-0.5,1.1c-0.2,0.2-0.5,0.2-0.7,0.2c-0.9,0-1.4-0.7-1.4-1.5
		c0-1.4,1-1.9,2.2-1.9l0.2-0.9h-1.7c-0.2,0-0.4-0.2-0.4-0.3c0-0.2,0.2-0.4,0.4-0.4h2.1c0.2,0,0.4,0.1,0.4,0.4c0,0,0,0.1,0,0.1
		l-0.2,1.1c0.4,0,0.9,0.1,1.3,0.3c0-0.2,0-0.5,0-0.7c0-0.1,0-0.3,0-0.4c0-0.2,0.2-0.4,0.4-0.4c0.2,0,0.4,0.2,0.4,0.4
		c0,0.3,0,0.7,0,1.1c0,0.1,0,0.2,0,0.4c0.5,0.3,0.6,0.4,0.6,0.6c0,0.2-0.2,0.4-0.4,0.4c-0.1,0-0.2,0-0.3-0.1
		c-0.1,0.6-0.3,1.2-0.7,1.6c-0.2,0.2-0.6,0.5-0.9,0.5c-0.2,0-0.4-0.2-0.4-0.4c0-0.2,0.1-0.3,0.3-0.4c0.7-0.3,0.9-0.8,1-1.7
		C102.5,10.1,102,9.9,101.5,9.9 M99.4,11.1c0,0.3,0.2,0.8,0.6,0.8c0.1,0,0.2,0,0.3-0.1c0.1-0.1,0.1-0.3,0.2-0.5l0.3-1.4
		C100,9.9,99.4,10.2,99.4,11.1"/>
	<path class="st3" d="M105.2,8.7c-0.2,0-0.4-0.2-0.4-0.4c0-0.2,0.2-0.4,0.4-0.4h1.1l0.2-0.5c0-0.1,0.2-0.2,0.3-0.2
		c0.2,0,0.4,0.2,0.4,0.4c0,0,0,0.1,0,0.1L107.1,8h2.7c0.2,0,0.4,0.1,0.4,0.4c0,0.2-0.2,0.4-0.4,0.4h-3l-0.3,1
		c0.5-0.2,0.9-0.3,1.4-0.3c1,0,2.3,0.3,2.3,1.6c0,1.3-1.3,1.7-2.4,1.7c-0.6,0-1.2-0.1-1.8-0.4c-0.2-0.1-0.4-0.2-0.4-0.5
		c0-0.2,0.2-0.4,0.3-0.4c0.1,0,0.2,0,0.3,0.1c0.4,0.2,1,0.4,1.5,0.4c0.6,0,1.7-0.2,1.7-1c0-0.8-0.9-0.9-1.5-0.9
		c-0.6,0-1.2,0.2-1.8,0.5c-0.1,0.1-0.2,0.1-0.4,0.1c-0.2,0-0.3-0.2-0.3-0.4c0,0,0-0.1,0-0.1l0.5-1.6H105.2z"/>
	<path class="st3" d="M111.5,8.5C111.5,8.5,111.5,8.5,111.5,8.5c0-0.3,0.2-0.4,0.3-0.4c0.2,0,0.3,0.1,0.3,0.3l0.1,0.6
		c0.5-0.1,0.9-0.2,1.4-0.3l0.1-0.4c0-0.2,0.2-0.3,0.3-0.3c0.2,0,0.4,0.2,0.3,0.4l0,0.2c0.7,0.1,1.2,0.6,1.2,1.3
		c0,0.9-0.5,1.6-1.4,1.6c-0.2,0-0.4,0-0.6-0.1c-0.1,0-0.2-0.1-0.2-0.3c0-0.2,0.2-0.3,0.3-0.3c0.1,0,0.1,0,0.2,0c0.1,0,0.2,0,0.3,0
		c0.3,0,0.5-0.1,0.6-0.4c0-0.1,0.1-0.3,0.1-0.4c0-0.4-0.3-0.6-0.6-0.7l-0.1,0.7c0,0.2-0.2,0.3-0.3,0.3c-0.2,0-0.4-0.2-0.4-0.4
		l0.1-0.5c-0.4,0.1-0.7,0.1-1.1,0.2l0.6,2.8c0,0.2-0.1,0.4-0.4,0.4c-0.2,0-0.3-0.1-0.4-0.3l-0.5-2.7c-0.2,0-0.4,0.2-0.6,0.2
		c-0.2,0-0.3-0.2-0.3-0.4c0-0.1,0.1-0.2,0.2-0.3c0.1-0.1,0.4-0.1,0.6-0.2L111.5,8.5z"/>
	<path class="st3" d="M118.6,9.4c0.6,0,1,0.3,1,1c0,0.1,0,0.4-0.1,0.6c0,0.2-0.1,0.4-0.1,0.6c0,0.3,0.2,0.5,0.6,0.5
		c0.7,0,0.9-0.7,0.9-1.3c0-0.2,0-0.4-0.1-0.6c0-0.1,0-0.2,0-0.2c0-0.2,0.2-0.4,0.4-0.4c0.2,0,0.3,0.1,0.4,0.3
		c0.1,0.3,0.1,0.5,0.1,0.8c0,1.1-0.4,2.1-1.7,2.1c-0.7,0-1.3-0.4-1.3-1.2c0-0.1,0-0.5,0.1-0.8c0-0.1,0-0.2,0-0.3
		c0-0.2-0.1-0.3-0.3-0.3c-0.4,0-0.7,0.2-0.9,0.5c-0.2,0.2-0.3,0.5-0.3,0.8l-0.2,0.9c0,0.2-0.2,0.3-0.4,0.3c-0.2,0-0.4-0.2-0.4-0.4
		c0,0,0-0.1,0-0.1l1.1-4.6c0-0.2,0.2-0.3,0.4-0.3c0.2,0,0.4,0.2,0.4,0.4c0,0,0,0.1,0,0.1l-0.4,1.8C118,9.5,118.3,9.4,118.6,9.4"/>
	<path class="st3" d="M126.2,8.6c0,0.2-0.1,1-0.2,1.2c-0.1,0.5-0.2,1-0.3,1.5c-0.2,0.7-0.4,1.3-1.2,1.3c-0.5,0-0.8-0.2-1.1-0.6
		c-0.4-0.4-0.5-1-0.5-1.6c0-1.7,1.2-2.9,2.8-2.9c0.8,0,1.6,0.3,2.2,0.9c0.4,0.5,0.6,1.1,0.6,1.7c0,0.7-0.2,1.4-0.7,2
		c-0.4,0.4-0.9,0.7-1.4,0.7c-0.2,0-0.4-0.2-0.4-0.4c0-0.1,0.1-0.3,0.2-0.3c0.1-0.1,0.2-0.1,0.3-0.1c0.9-0.2,1.3-0.9,1.3-1.8
		c0-1.1-0.7-1.7-1.8-1.8C126.1,8.3,126.2,8.4,126.2,8.6 M124.3,8.8c-0.4,0.4-0.6,1-0.6,1.5c0,0.4,0.1,0.9,0.4,1.2
		c0.1,0.1,0.3,0.2,0.4,0.2c0.1,0,0.3,0,0.3-0.2c0.1-0.2,0.2-0.5,0.2-0.7c0.2-0.7,0.3-1.4,0.4-2.2c0-0.2,0.1-0.4,0.3-0.4
		C125.1,8.2,124.6,8.4,124.3,8.8"/>
	<path class="st4" d="M37.9,1.2L39,1.2c0.1,0,0.3,0,0.4,0c0.2,0,0.3,0.1,0.3,0.3c0,0.2-0.1,0.2-0.2,0.3l-1.5,0.1v0.5l1.3-0.1
		c0.1,0,0.3,0,0.3,0c0.2,0,0.3,0.1,0.3,0.3c0,0.2-0.1,0.3-0.2,0.3l-1.7,0.1v0.6c0,0.1,0.1,0.1,0.2,0.1H39c0.2,0,0.2,0,0.2-0.2
		c0,0,0-0.1,0-0.2c0-0.1,0-0.3,0.3-0.3c0.2,0,0.3,0.1,0.3,0.3c0,0.1,0,0.5-0.1,0.6c-0.1,0.2-0.3,0.2-0.6,0.2H38
		c-0.5,0-0.6-0.1-0.6-0.5V2.8l-1,0c-0.1,0-0.3,0-0.4,0c-0.2,0-0.3-0.1-0.3-0.3c0-0.2,0.1-0.3,0.2-0.3l1.4-0.1V1.8l-0.9,0
		c-0.1,0-0.2,0-0.3,0c-0.2,0-0.3-0.1-0.3-0.3c0-0.2,0.1-0.2,0.2-0.3l1.2-0.1V0.8c-0.2,0-0.8,0-1,0h0c-0.2,0-0.4,0-0.4-0.3
		c0-0.2,0.1-0.3,0.3-0.3c0.1,0,0.3,0,0.4,0c0.7,0,1.6-0.1,2.3-0.2C39,0.1,39.3,0,39.4,0c0.2,0,0.2,0.1,0.2,0.3
		c0,0.2-0.1,0.2-0.2,0.3c-0.4,0.1-1,0.1-1.5,0.2V1.2z"/>
	<path class="st4" d="M43.2,1.6c0,0.1-0.1,0.5-0.1,0.7c-0.1,0.3-0.2,0.7-0.4,1c-0.2,0.3-0.4,0.7-0.7,0.9c-0.1,0-0.1,0.1-0.2,0.1
		c-0.2,0-0.3-0.2-0.3-0.3c0-0.1,0.1-0.2,0.2-0.2c0.7-0.5,0.9-1.2,1-2c0-0.2,0.1-0.2,0.3-0.2C43,1.3,43.2,1.4,43.2,1.6 M45,0.5
		c0.4,0,0.5,0.1,0.5,0.5v0.5c0,0.2-0.1,0.3-0.3,0.3C45,1.7,45,1.6,45,1.4V1.1C45,1,44.9,1,44.8,1h-2.6c-0.1,0-0.1,0.1-0.1,0.2v0.3
		c0,0.2-0.1,0.3-0.3,0.3c-0.2,0-0.3-0.1-0.3-0.3V1c0-0.4,0.1-0.5,0.5-0.5h1.2V0.2C43.2,0,43.4,0,43.5,0c0.2,0,0.3,0.1,0.3,0.2v0.2
		H45z M44.2,1.3c0.2,0,0.2,0.1,0.3,0.3c0.1,0.8,0.4,1.5,1,2c0.1,0.1,0.2,0.1,0.2,0.2c0,0.2-0.2,0.3-0.3,0.3c-0.3,0-0.8-0.7-0.9-1
		C44.2,2.8,44,2.4,43.9,2c0-0.1-0.1-0.4-0.1-0.5C43.9,1.4,44,1.3,44.2,1.3"/>
	<path class="st4" d="M49.2,1c0,0.2-0.1,0.7-0.1,0.9c-0.1,0.3-0.1,0.7-0.2,1c-0.1,0.5-0.3,0.9-0.9,0.9c-0.3,0-0.6-0.2-0.8-0.4
		c-0.3-0.3-0.3-0.7-0.3-1.1c0-1.2,0.8-2,2-2c0.6,0,1.2,0.2,1.6,0.6c0.3,0.3,0.4,0.7,0.4,1.2c0,0.5-0.1,1-0.5,1.4
		c-0.3,0.3-0.6,0.5-1,0.5c-0.2,0-0.3-0.1-0.3-0.3c0-0.1,0-0.2,0.1-0.2c0.1,0,0.1-0.1,0.2-0.1c0.6-0.1,0.9-0.7,0.9-1.3
		c0-0.7-0.5-1.2-1.2-1.3C49.1,0.8,49.2,0.9,49.2,1 M47.8,1.2c-0.3,0.3-0.4,0.7-0.4,1.1c0,0.3,0.1,0.6,0.3,0.8
		c0.1,0.1,0.2,0.1,0.3,0.1c0.1,0,0.2,0,0.2-0.1c0.1-0.1,0.1-0.4,0.2-0.5c0.1-0.5,0.2-1,0.3-1.5c0-0.2,0.1-0.3,0.2-0.3
		C48.4,0.8,48.1,1,47.8,1.2"/>
	<path class="st4" d="M52.2,3.4c0.1-0.2,0.3-0.6,0.4-0.8c0-0.1,0.1-0.2,0.2-0.2c0.1,0,0.3,0.1,0.3,0.2c0,0.2-0.3,0.8-0.4,1
		c-0.1,0.1-0.2,0.4-0.3,0.5c0,0-0.1,0.1-0.1,0.1C52.2,4.1,52,4,52,3.9C52,3.7,52.2,3.5,52.2,3.4 M52.8,2.1c-0.1,0-0.1-0.1-0.2-0.1
		c-0.1-0.1-0.2-0.1-0.3-0.2C52.1,1.6,52,1.6,52,1.5c0-0.1,0.1-0.3,0.3-0.3c0.1,0,0.3,0.1,0.4,0.2c0.2,0.1,0.4,0.2,0.4,0.4
		S52.9,2.1,52.8,2.1 M53,0.3c0.1,0.1,0.2,0.1,0.2,0.3c0,0.1-0.1,0.3-0.3,0.3c-0.1,0-0.1,0-0.3-0.1c-0.1-0.1-0.2-0.2-0.3-0.2
		c-0.1-0.1-0.2-0.1-0.2-0.2c0-0.1,0.1-0.3,0.3-0.3C52.5,0,52.8,0.2,53,0.3 M55.9,1.2c0.2,0,0.3,0.1,0.3,0.3c0,0.2-0.1,0.2-0.3,0.2
		h-1.4c0,0.1-0.1,0.3-0.1,0.4c0,0.1,0.1,0.1,0.1,0.1h1c0.3,0,0.5,0.1,0.5,0.4c0,0.2-0.1,0.6-0.1,0.8c0,0.2-0.1,0.4-0.2,0.6
		c-0.1,0.2-0.4,0.2-0.6,0.2h-0.3c-0.2,0-0.4,0-0.5,0c-0.1,0-0.1-0.1-0.1-0.2c0-0.2,0.1-0.3,0.3-0.3c0.2,0,0.3,0,0.5,0
		c0.2,0,0.2,0,0.3-0.2c0-0.1,0.1-0.6,0.1-0.7c0-0.1-0.1-0.1-0.1-0.1h-1c-0.3,0-0.4-0.1-0.4-0.4c0-0.1,0.1-0.5,0.2-0.6h-0.5
		c-0.2,0-0.3-0.1-0.3-0.3c0-0.2,0.1-0.2,0.3-0.2H54c0-0.2,0.1-0.3,0.1-0.5h-0.6c-0.2,0-0.3-0.1-0.3-0.3c0-0.2,0.1-0.2,0.3-0.2h2.2
		c0.2,0,0.3,0.1,0.3,0.3c0,0.2-0.1,0.2-0.3,0.2h-1.1c0,0.2-0.1,0.3-0.1,0.5H55.9z"/>
	<path class="st4" d="M60.3,0.5c0.5,0,1.1,0.3,1.1,0.9c0,0.2-0.1,0.6-0.3,1c-0.1,0.2-0.2,0.5-0.2,0.7c0,0.1,0.1,0.2,0.2,0.2
		c0.1,0,0.2,0,0.2-0.1c0,0,0.1,0,0.1,0c0.1,0,0.3,0.1,0.3,0.3c0,0.3-0.4,0.4-0.7,0.4c-0.5,0-0.7-0.3-0.7-0.8c0-0.2,0.1-0.7,0.3-1
		c0.1-0.2,0.2-0.5,0.2-0.6c0-0.3-0.3-0.4-0.6-0.4c-0.2,0-0.5,0.1-0.7,0.2c-0.2,0.1-0.4,0.3-0.6,0.5v2.1C59,3.9,58.9,4,58.8,4
		c-0.2,0-0.3-0.1-0.3-0.3V2.9C58.3,3,58.1,3.1,58,3.1c-0.1,0-0.3-0.1-0.3-0.3c0-0.1,0.1-0.2,0.2-0.3c0.2-0.1,0.4-0.2,0.6-0.3V1.3H58
		c-0.1,0-0.3-0.1-0.3-0.3c0-0.1,0.1-0.3,0.3-0.3h0.5V0.4c0-0.1,0.1-0.3,0.3-0.3c0.1,0,0.3,0.1,0.3,0.3V1C59.4,0.7,59.8,0.5,60.3,0.5
		"/>
	<path class="st4" d="M66.6,1.7c0.1,0,0.2,0.1,0.2,0.3c0,0.2-0.1,0.2-0.3,0.3c-0.2,0-0.4,0.1-0.6,0.1l0,0.5c0,0.2-0.1,0.3-0.2,0.3
		c-0.1,0-0.3-0.1-0.3-0.3l0-0.4c-0.3,0.1-1,0.2-1,0.6c0,0.4,0.5,0.4,0.8,0.4c0.2,0,0.3,0,0.5,0c0.2,0,0.4-0.1,0.6-0.2
		c0,0,0.1,0,0.1,0c0.1,0,0.2,0.1,0.2,0.3c0,0.2-0.1,0.2-0.3,0.3C66.1,4,65.7,4,65.3,4c-0.4,0-0.8-0.1-1.1-0.3
		c-0.2-0.1-0.3-0.4-0.3-0.6c0-0.4,0.3-0.7,0.6-0.9c0.3-0.1,0.6-0.2,0.9-0.3c-0.1-0.1-0.3-0.2-0.4-0.2c-0.2,0-0.5,0-0.7,0.2
		c-0.2,0.1-0.3,0.3-0.5,0.6l-0.1,0.1c-0.1,0.1-0.1,0.2-0.2,0.2c-0.1,0-0.3-0.1-0.3-0.3c0-0.1,0-0.1,0.1-0.2L64.1,1h-0.8
		c-0.1,0-0.3-0.1-0.3-0.3c0-0.1,0.1-0.3,0.3-0.3h1.1l0.2-0.3c0-0.1,0.1-0.1,0.2-0.1c0.1,0,0.3,0.1,0.3,0.3c0,0,0,0.1,0,0.1l0,0h1.3
		c0.1,0,0.3,0.1,0.3,0.3c0,0.1-0.1,0.3-0.3,0.3h-1.6l-0.2,0.4c0.2,0,0.3-0.1,0.5-0.1c0.4,0,0.8,0.1,0.9,0.5
		C66.1,1.8,66.6,1.7,66.6,1.7"/>
	<path class="st4" d="M71.5,1.6c0,0.9,0,1.2-0.2,1.6c-0.3,0.6-1,0.8-1.6,0.8c-0.2,0-0.4,0-0.6,0c-0.1,0-0.2-0.1-0.2-0.3
		c0-0.1,0.1-0.3,0.3-0.3c0.1,0,0.1,0,0.2,0c0.1,0,0.3,0,0.4,0c0.4,0,0.9-0.1,1.1-0.5C70.7,3,70.5,3,70.2,3c-0.6,0-1.4-0.1-1.4-0.9
		c0-0.7,0.8-0.8,1.4-0.8c0.3,0,0.5,0,0.7,0.1l0-0.4h-2.3c-0.1,0-0.3-0.1-0.3-0.3c0-0.1,0.1-0.3,0.3-0.3h2.2l0-0.2
		c0-0.2,0.1-0.3,0.3-0.3c0.1,0,0.3,0.1,0.3,0.3l0,0.2H72c0.1,0,0.3,0.1,0.3,0.3c0,0.1-0.1,0.3-0.3,0.3h-0.4L71.5,1.6z M70.2,1.8
		c-0.2,0-0.8,0-0.8,0.3c0,0.3,0.4,0.4,0.8,0.4c0.3,0,0.8,0,0.8-0.3v0C71,1.9,70.7,1.8,70.2,1.8"/>
	<path class="st4" d="M74,1.2c0.1,0,0.4-0.1,0.5-0.1c0.3,0,0.6,0,0.8,0c0.4,0,0.8,0,1.1,0.2C76.8,1.5,77,1.9,77,2.4
		c0,1-0.8,1.5-1.7,1.5c-0.3,0-1.2-0.1-1.2-0.4c0-0.1,0.1-0.3,0.2-0.3c0.1,0,0.1,0,0.2,0c0.2,0.1,0.5,0.1,0.7,0.1
		c0.6,0,1.2-0.3,1.2-1c0-0.7-0.5-0.8-1.1-0.8c-0.4,0-0.8,0-1.1,0.1c-0.1,0-0.2,0-0.2,0c-0.1,0-0.3-0.1-0.3-0.3
		C73.8,1.3,73.9,1.3,74,1.2"/>
	<path class="st4" d="M81.2,1.6l1.1-0.1c0.2,0,0.3,0.1,0.3,0.3c0,0.1-0.1,0.3-0.2,0.3l-1,0.1l0.1,0.3c0,0,0,0.1,0,0.1
		c0,0.1-0.1,0.3-0.3,0.3c-0.1,0-0.2-0.1-0.3-0.2l-0.1-0.5l-1.7,0.1c-0.2,0-0.3-0.1-0.3-0.3c0-0.2,0.1-0.3,0.3-0.3l1.5-0.1l-0.2-0.5
		l-1.4,0.1c-0.2,0-0.3-0.1-0.3-0.3c0-0.1,0.1-0.3,0.3-0.3l1.3-0.1l0-0.1c0,0,0-0.1,0-0.1c0-0.1,0.1-0.3,0.3-0.3
		c0.1,0,0.2,0.1,0.3,0.2l0.1,0.3l1.4-0.1c0.2,0,0.3,0.1,0.3,0.3c0,0.1-0.1,0.3-0.2,0.3L81,1.1L81.2,1.6z M79.6,2.8
		C79.6,2.8,79.6,2.9,79.6,2.8c0,0.3,0.2,0.5,0.4,0.6c0.2,0.1,0.5,0.1,0.7,0.1c0.4,0,0.8-0.1,1.2-0.3c0.1,0,0.1-0.1,0.2-0.1
		c0.1,0,0.3,0.1,0.3,0.3c0,0.2-0.3,0.3-0.4,0.4C81.6,3.9,81.1,4,80.7,4c-0.4,0-0.9-0.1-1.3-0.3C79.2,3.5,79,3.2,79,2.9
		c0-0.2,0.1-0.4,0.3-0.4C79.4,2.5,79.6,2.6,79.6,2.8"/>
	<path class="st4" d="M85,2.3c0,0.2-0.1,0.3-0.3,0.3c-0.2,0-0.3-0.1-0.3-0.3V0.7c0-0.2,0.1-0.3,0.3-0.3c0.1,0,0.2,0,0.2,0.1
		C85,0.5,85,0.6,85,0.7V2.3z M86.4,1c-0.1,0-0.1,0-0.2,0C86.1,1,86,0.9,86,0.8c0-0.3,0.5-0.4,0.8-0.4c0.4,0,0.6,0.1,0.8,0.5
		c0.1,0.3,0.1,0.7,0.1,1c0,1.2-0.5,2.1-1.8,2.1c-0.3,0-1.3-0.1-1.3-0.5c0-0.1,0.1-0.3,0.3-0.3c0,0,0.1,0,0.2,0
		c0.3,0.1,0.5,0.2,0.8,0.2c1,0,1.3-0.7,1.3-1.6c0-0.3,0-0.6-0.1-0.8C87,1,86.9,0.9,86.8,0.9C86.6,0.9,86.5,0.9,86.4,1"/>
	<path class="st4" d="M91.7,0.3h1c0.4,0,0.6,0,0.6,0.5c0,0.2,0,0.5-0.1,0.7C93.2,2,93,2.5,92.7,3c0.2,0.3,0.3,0.4,0.6,0.6
		c0.1,0.1,0.1,0.1,0.1,0.2c0,0.2-0.1,0.3-0.3,0.3c-0.2,0-0.6-0.5-0.7-0.7c-0.2,0.2-0.3,0.4-0.5,0.5c-0.1,0.1-0.1,0.1-0.2,0.1
		c-0.2,0-0.3-0.1-0.3-0.3c0-0.1,0.1-0.2,0.2-0.3c0.2-0.2,0.4-0.3,0.5-0.5c-0.1-0.3-0.3-0.5-0.3-0.8c-0.1-0.2-0.2-0.7-0.2-0.9
		C91.6,1,91.7,1,91.8,1c0.2,0,0.2,0.1,0.2,0.2c0.1,0.4,0.2,0.8,0.3,1.2c0.2-0.3,0.3-0.7,0.3-1.1c0-0.1,0.1-0.3,0.1-0.4
		c0-0.1-0.1-0.1-0.2-0.1h-0.9c-0.2,0-0.3-0.1-0.3-0.3v0c-0.1,0-0.1,0-0.2,0v3.3c0,0.2-0.1,0.3-0.3,0.3c-0.2,0-0.2-0.1-0.2-0.3V3.4
		c-0.2,0.1-1.1,0.3-1.2,0.3c-0.2,0-0.2-0.1-0.2-0.3c0-0.2,0.2-0.2,0.3-0.3V0.6h-0.1c-0.2,0-0.2-0.1-0.2-0.3c0-0.2,0.1-0.3,0.2-0.3
		h1.7c0.2,0,0.2,0.1,0.2,0.2v0C91.6,0.4,91.7,0.3,91.7,0.3 M90.1,1.1h0.6V0.6h-0.6V1.1z M90.1,2h0.6V1.6h-0.6V2z M90.8,2.9V2.5h-0.6
		V3C90.4,3,90.6,3,90.8,2.9"/>
	<path class="st4" d="M95.7,2.3c0,0.2-0.1,0.3-0.3,0.3c-0.2,0-0.3-0.1-0.3-0.3V0.7c0-0.2,0.1-0.3,0.3-0.3c0.1,0,0.2,0,0.2,0.1
		c0.1,0.1,0.1,0.1,0.1,0.2V2.3z M97.1,1C97,1,97,1,96.9,1c-0.1,0-0.3-0.1-0.3-0.3c0-0.3,0.5-0.4,0.8-0.4c0.4,0,0.6,0.1,0.8,0.5
		c0.1,0.3,0.2,0.7,0.2,1c0,1.2-0.5,2.1-1.8,2.1c-0.3,0-1.3-0.1-1.3-0.5c0-0.1,0.1-0.3,0.3-0.3c0,0,0.1,0,0.2,0
		c0.3,0.1,0.5,0.2,0.8,0.2c1,0,1.3-0.7,1.3-1.6c0-0.3,0-0.6-0.1-0.8c-0.1-0.1-0.2-0.2-0.3-0.2C97.3,0.9,97.2,0.9,97.1,1"/>
	<path class="st4" d="M101.4,1.6c-0.1,0-0.2-0.1-0.3-0.2c0,0.1-0.1,0.1-0.1,0.2c0,0,0,0.1,0,0.1c0,0,0,0,0,0.1
		c0.2,0.3,0.3,0.7,0.3,1c0,0.2,0,0.4-0.2,0.5c-0.1,0.1-0.2,0.1-0.4,0.1c-0.1,0-0.3,0-0.3-0.1v0.8c0,0.2-0.1,0.3-0.3,0.3
		c-0.2,0-0.2-0.1-0.2-0.3V0.6c0-0.4,0.1-0.5,0.5-0.5h0.4c0.3,0,0.5,0,0.5,0.4c0,0.2,0,0.3-0.1,0.5c0.4-0.3,0.6-0.4,0.9-0.8
		c0.1-0.2,0.2-0.2,0.4-0.2c0.2,0,0.3,0,0.4,0.2c0.3,0.3,0.5,0.5,0.9,0.8c0.1,0.1,0.2,0.1,0.2,0.3c0,0.1-0.1,0.3-0.3,0.3
		c-0.1,0-0.2-0.1-0.3-0.1v0c0,0.2-0.1,0.2-0.3,0.2h-0.4V2h0.9c0.2,0,0.3,0.1,0.3,0.3c0,0.2-0.1,0.2-0.3,0.2h-0.9v1.1
		c0,0.4-0.1,0.5-0.3,0.5c-0.1,0-0.2,0-0.3,0h-0.1c-0.2,0-0.4,0-0.4-0.3c0-0.2,0.1-0.3,0.3-0.3h0.1c0.1,0,0.2,0,0.2-0.2V2.5h-0.7
		c-0.2,0-0.3-0.1-0.3-0.3c0-0.2,0.1-0.2,0.3-0.2h0.7V1.7H102c-0.2,0-0.3-0.1-0.3-0.2c0,0,0,0,0,0C101.6,1.5,101.5,1.6,101.4,1.6
		 M100.7,2.8c0.1,0,0.1,0,0.1-0.1c0-0.1,0-0.1,0-0.2c0-0.2-0.1-0.4-0.2-0.6c-0.1-0.1-0.1-0.2-0.1-0.2c0-0.1,0-0.2,0.1-0.4
		c0-0.1,0.2-0.4,0.2-0.5c0,0,0-0.1-0.1-0.1h-0.1c-0.1,0-0.1,0-0.1,0.1v2.1C100.5,2.8,100.6,2.8,100.7,2.8 M102,3.1
		c-0.1,0.3-0.3,0.7-0.5,0.8c0,0-0.1,0.1-0.1,0.1c-0.1,0-0.3-0.1-0.3-0.3c0-0.1,0.1-0.2,0.2-0.3c0.1-0.2,0.2-0.3,0.3-0.5
		c0.1-0.1,0.1-0.2,0.2-0.2c0.1,0,0.3,0.1,0.3,0.2C102,2.9,102,3,102,3.1 M103.2,1.2c-0.2-0.2-0.4-0.4-0.5-0.6c0,0,0-0.1-0.1-0.1
		c0,0,0,0-0.1,0.1c-0.1,0.2-0.4,0.4-0.5,0.6H103.2z M103.4,2.7c0.1,0,0.2,0.1,0.3,0.3c0.1,0.2,0.2,0.3,0.3,0.6
		c0,0.1,0.1,0.1,0.1,0.2c0,0.2-0.2,0.3-0.3,0.3c-0.1,0-0.1,0-0.2-0.1c-0.1-0.1-0.2-0.3-0.2-0.4c-0.1-0.2-0.2-0.4-0.2-0.5
		C103.1,2.8,103.3,2.7,103.4,2.7"/>
	<path class="st4" d="M108.4,3c0.2,0.1,0.5,0.5,0.5,0.7c0,0.2-0.1,0.3-0.3,0.3c-0.1,0-0.2-0.1-0.3-0.2c-0.4-0.5-0.9-0.9-1.4-1.2
		c-0.3-0.2-0.7-0.4-1-0.5c-0.1,0-0.2-0.1-0.2-0.3c0-0.1,0.1-0.2,0.2-0.3l2.6-1.3c0,0,0.1,0,0.1,0c0.2,0,0.3,0.1,0.3,0.3
		c0,0.1-0.1,0.2-0.2,0.3l-2.1,1C107.2,2.2,107.8,2.5,108.4,3"/>
	<path class="st4" d="M112.2,3.6c0,0.2-0.2,0.4-0.4,0.4c-0.2,0-0.4-0.2-0.4-0.4c0-0.2,0.2-0.4,0.4-0.4C112,3.3,112.2,3.4,112.2,3.6
		 M112,2.6c0,0.1-0.1,0.2-0.2,0.2c-0.1,0-0.2-0.1-0.2-0.2l-0.1-1.2V0.4c0-0.2,0.1-0.3,0.3-0.3c0.2,0,0.3,0.1,0.3,0.3v0.9L112,2.6z"
		/>
</g>
</svg>
